<svg width="911" height="715" viewBox="0 0 911 715" fill="none" xmlns="http://www.w3.org/2000/svg">
<path d="M205 662.781C205 672.295 195.199 680 186.233 680C177.266 680 170 672.287 170 662.781C170 653.276 177.266 643 186.233 643C195.199 643 205 653.268 205 662.781Z" fill="#29DEF6"/>
<path d="M228.557 5.25948L232.278 23.7747C232.702 25.8943 234.126 27.6688 236.077 28.5119L253.133 35.8826C258.05 38.0103 258.443 44.9716 253.801 47.6613L237.69 56.9912C235.849 58.059 234.638 59.986 234.449 62.1459L232.852 80.9822C232.388 86.4099 226.031 88.9471 222.082 85.2698L208.41 72.5195C206.844 71.0582 204.673 70.4801 202.612 70.9699L184.565 75.2334C179.365 76.4618 175.038 71.0663 177.241 66.1043L184.895 48.8898C185.769 46.9146 185.643 44.6343 184.549 42.7796L174.999 26.5849C172.246 21.9119 175.935 16.0506 181.237 16.6609L199.646 18.7725C201.754 19.0134 203.839 18.1864 205.231 16.5484L217.37 2.27267C220.871 -1.84627 227.479 -0.0798807 228.549 5.26752L228.557 5.25948Z" fill="#FFD77C"/>
<path d="M58.1755 359.098L2.30674 385.695C1.0328 386.301 0.48223 387.846 1.07709 389.145L27.1648 446.104C27.7596 447.402 29.2747 447.964 30.5486 447.357L86.4174 420.761C87.6913 420.154 88.2418 418.61 87.6469 417.311L61.5593 360.352C60.9644 359.053 59.4495 358.492 58.1755 359.098Z" fill="#FE97DC"/>
<path d="M857.175 88.0981L801.306 114.695C800.032 115.301 799.482 116.846 800.077 118.145L826.165 175.104C826.759 176.402 828.274 176.964 829.548 176.357L885.417 149.761C886.691 149.154 887.242 147.609 886.647 146.311L860.559 89.3517C859.964 88.0529 858.449 87.4917 857.175 88.0981Z" fill="#29DEF6"/>
<path d="M638.799 72.0001L598 65.0936L599.766 54.1032L632.246 59.6025L647.173 24.7225L683.809 30.9254L697.056 6.10352e-05L707 4.48034L690.369 43.323L653.726 37.1201L638.799 72.0001Z" fill="#FE97DC"/>
<path d="M844.873 715L843 677.215L874.612 667.14L872.92 633.222L908.12 622L911 631.487L882.977 640.416L884.669 674.341L853.057 684.409L854.544 714.491L844.873 715Z" fill="#FFD77C"/>
</svg>
