<svg width="647" height="165" viewBox="0 0 647 165" fill="none" xmlns="http://www.w3.org/2000/svg">
<g filter="url(#filter0_d_261_47)">
<rect x="5.99994" width="637" height="157" rx="30" fill="white"/>
</g>
<g filter="url(#filter1_d_261_47)">
<path d="M148.454 114V45.936H165.638V114H148.454ZM177.704 114V45.936H189.704L194.888 59.856V114H177.704ZM224.648 114L184.904 63.504L189.704 45.936L229.544 96.432L224.648 114ZM224.648 114L220.232 99.696V45.936H237.416V114H224.648ZM249.517 114V45.936H266.701V114H249.517ZM311.791 115.056C306.607 115.056 301.807 114.192 297.391 112.464C292.975 110.672 289.103 108.208 285.775 105.072C282.511 101.872 279.951 98.128 278.095 93.84C276.303 89.552 275.407 84.912 275.407 79.92C275.407 74.864 276.303 70.224 278.095 66C279.951 61.712 282.511 58 285.775 54.864C289.103 51.728 292.943 49.264 297.295 47.472C301.711 45.68 306.479 44.784 311.599 44.784C316.975 44.784 321.807 45.648 326.095 47.376C330.383 49.04 334.159 51.376 337.423 54.384L325.903 65.904C324.303 64.112 322.319 62.704 319.951 61.68C317.583 60.656 314.799 60.144 311.599 60.144C308.847 60.144 306.319 60.592 304.015 61.488C301.775 62.384 299.823 63.728 298.159 65.52C296.495 67.248 295.183 69.328 294.223 71.76C293.327 74.192 292.879 76.912 292.879 79.92C292.879 82.928 293.327 85.648 294.223 88.08C295.183 90.512 296.495 92.624 298.159 94.416C299.823 96.144 301.775 97.488 304.015 98.448C306.319 99.344 308.847 99.792 311.599 99.792C314.799 99.792 317.615 99.312 320.047 98.352C322.479 97.328 324.559 95.888 326.287 94.032L337.807 105.552C334.479 108.56 330.703 110.896 326.479 112.56C322.319 114.224 317.423 115.056 311.791 115.056ZM345.235 114V45.936H362.419V114H345.235ZM369.493 114L395.893 45.936H412.501L438.613 114H420.661L400.981 56.784H407.221L387.061 114H369.493ZM385.525 102.096V88.464H423.061V102.096H385.525ZM458.617 86.448V74.16H471.577C474.393 74.16 476.537 73.488 478.009 72.144C479.545 70.736 480.313 68.848 480.313 66.48C480.313 64.176 479.545 62.32 478.009 60.912C476.537 59.44 474.393 58.704 471.577 58.704H458.617V45.936H473.977C478.585 45.936 482.617 46.8 486.073 48.528C489.593 50.256 492.345 52.624 494.329 55.632C496.313 58.64 497.305 62.16 497.305 66.192C497.305 70.224 496.281 73.776 494.233 76.848C492.249 79.856 489.465 82.224 485.881 83.952C482.297 85.616 478.105 86.448 473.305 86.448H458.617ZM444.985 114V45.936H462.169V114H444.985ZM481.849 114L462.073 84.816L477.529 81.072L501.721 114H481.849Z" fill="#061288"/>
</g>
<defs>
<filter id="filter0_d_261_47" x="1.99994" y="0" width="645" height="165" filterUnits="userSpaceOnUse" color-interpolation-filters="sRGB">
<feFlood flood-opacity="0" result="BackgroundImageFix"/>
<feColorMatrix in="SourceAlpha" type="matrix" values="0 0 0 0 0 0 0 0 0 0 0 0 0 0 0 0 0 0 127 0" result="hardAlpha"/>
<feOffset dy="4"/>
<feGaussianBlur stdDeviation="2"/>
<feComposite in2="hardAlpha" operator="out"/>
<feColorMatrix type="matrix" values="0 0 0 0 0 0 0 0 0 0 0 0 0 0 0 0 0 0 0.25 0"/>
<feBlend mode="normal" in2="BackgroundImageFix" result="effect1_dropShadow_261_47"/>
<feBlend mode="normal" in="SourceGraphic" in2="effect1_dropShadow_261_47" result="shape"/>
</filter>
<filter id="filter1_d_261_47" x="144.454" y="44.784" width="361.267" height="78.272" filterUnits="userSpaceOnUse" color-interpolation-filters="sRGB">
<feFlood flood-opacity="0" result="BackgroundImageFix"/>
<feColorMatrix in="SourceAlpha" type="matrix" values="0 0 0 0 0 0 0 0 0 0 0 0 0 0 0 0 0 0 127 0" result="hardAlpha"/>
<feOffset dy="4"/>
<feGaussianBlur stdDeviation="2"/>
<feComposite in2="hardAlpha" operator="out"/>
<feColorMatrix type="matrix" values="0 0 0 0 0 0 0 0 0 0 0 0 0 0 0 0 0 0 0.25 0"/>
<feBlend mode="normal" in2="BackgroundImageFix" result="effect1_dropShadow_261_47"/>
<feBlend mode="normal" in="SourceGraphic" in2="effect1_dropShadow_261_47" result="shape"/>
</filter>
</defs>
</svg>
