<svg width="723" height="165" viewBox="0 0 723 165" fill="none" xmlns="http://www.w3.org/2000/svg">
<g filter="url(#filter0_d_6_9076)">
<rect x="4" y="6.10352e-05" width="715" height="157" rx="30" fill="white"/>
</g>
<g filter="url(#filter1_d_6_9076)">
<path d="M51.2035 102.704C48.2168 102.704 45.6355 102.192 43.4595 101.168C41.3262 100.101 39.4488 98.6081 37.8275 96.6881L45.2515 89.3281C46.0195 90.3947 46.9155 91.2054 47.9395 91.7601C49.0062 92.2721 50.2008 92.5281 51.5235 92.5281C52.6755 92.5281 53.6995 92.2934 54.5955 91.8241C55.5342 91.3121 56.2595 90.5867 56.7715 89.6481C57.3262 88.6667 57.6035 87.4294 57.6035 85.9361V56.6241H69.0595V85.4241C69.0595 89.0081 68.3342 92.1014 66.8835 94.7041C65.4755 97.2641 63.4275 99.2481 60.7395 100.656C58.0942 102.021 54.9155 102.704 51.2035 102.704ZM98.487 102.832C94.9883 102.832 91.767 102.235 88.823 101.04C85.879 99.8454 83.2977 98.1814 81.079 96.0481C78.903 93.9147 77.1963 91.4187 75.959 88.5601C74.7217 85.6587 74.103 82.5441 74.103 79.2161C74.103 75.8881 74.7003 72.8161 75.895 70.0001C77.1323 67.1414 78.839 64.6454 81.015 62.5121C83.191 60.3787 85.751 58.7361 88.695 57.5841C91.639 56.3894 94.8603 55.7921 98.359 55.7921C101.858 55.7921 105.079 56.3894 108.023 57.5841C110.967 58.7361 113.527 60.3787 115.703 62.5121C117.879 64.6454 119.564 67.1414 120.759 70.0001C121.996 72.8587 122.615 75.9521 122.615 79.2801C122.615 82.6081 121.996 85.7014 120.759 88.5601C119.564 91.4187 117.879 93.9361 115.703 96.1121C113.527 98.2454 110.967 99.9094 108.023 101.104C105.122 102.256 101.943 102.832 98.487 102.832ZM98.359 92.5921C100.919 92.5921 103.138 92.0374 105.015 90.9281C106.892 89.8187 108.343 88.2614 109.367 86.2561C110.391 84.2507 110.903 81.9041 110.903 79.2161C110.903 77.2534 110.604 75.4614 110.007 73.8401C109.452 72.2187 108.62 70.8321 107.511 69.6801C106.402 68.4854 105.079 67.5681 103.543 66.9281C102.007 66.2881 100.279 65.9681 98.359 65.9681C95.799 65.9681 93.5803 66.5227 91.703 67.6321C89.8257 68.6987 88.375 70.2347 87.351 72.2401C86.327 74.2454 85.815 76.5707 85.815 79.2161C85.815 81.2641 86.0923 83.1201 86.647 84.7841C87.2443 86.4054 88.0977 87.8134 89.207 89.0081C90.3163 90.1601 91.639 91.0561 93.175 91.6961C94.711 92.2934 96.439 92.5921 98.359 92.5921ZM150.984 102.704C147.528 102.704 144.328 102.128 141.384 100.976C138.483 99.7814 135.923 98.1174 133.704 95.9841C131.528 93.8507 129.821 91.3761 128.584 88.5601C127.389 85.7014 126.792 82.6081 126.792 79.2801C126.792 75.9094 127.411 72.8161 128.648 70.0001C129.928 67.1414 131.699 64.6667 133.96 62.5761C136.221 60.4427 138.845 58.8001 141.832 57.6481C144.861 56.4534 148.083 55.8561 151.496 55.8561C155.549 55.8561 159.219 56.5814 162.504 58.0321C165.789 59.4401 168.456 61.4027 170.504 63.9201L162.824 71.6001C161.288 69.7654 159.603 68.4001 157.768 67.5041C155.933 66.5654 153.8 66.0961 151.368 66.0961C148.893 66.0961 146.675 66.6507 144.712 67.7601C142.792 68.8267 141.256 70.3414 140.104 72.3041C138.952 74.2667 138.376 76.5707 138.376 79.2161C138.376 81.8614 138.909 84.1867 139.976 86.1921C141.085 88.1974 142.579 89.7547 144.456 90.8641C146.376 91.9734 148.573 92.5281 151.048 92.5281C153.523 92.5281 155.613 92.0587 157.32 91.1201C159.069 90.1814 160.392 88.8161 161.288 87.0241C162.227 85.2321 162.696 83.0987 162.696 80.6241L170.44 85.6161L149.768 85.1041V75.7601H174.216V77.4881C174.216 82.9067 173.235 87.4934 171.272 91.2481C169.309 95.0027 166.579 97.8614 163.08 99.8241C159.624 101.744 155.592 102.704 150.984 102.704ZM174.454 102L192.054 56.6241H203.126L220.534 102H208.566L195.446 63.8561H199.606L186.166 102H174.454ZM185.142 94.0641V84.9761H210.166V94.0641H185.142ZM233.87 83.6321V75.4401H242.51C244.387 75.4401 245.817 74.9921 246.798 74.0961C247.822 73.1574 248.334 71.8987 248.334 70.3201C248.334 68.7841 247.822 67.5467 246.798 66.6081C245.817 65.6267 244.387 65.1361 242.51 65.1361H233.87V56.6241H244.11C247.182 56.6241 249.87 57.2001 252.174 58.3521C254.521 59.5041 256.355 61.0827 257.678 63.0881C259.001 65.0934 259.662 67.4401 259.662 70.1281C259.662 72.8161 258.979 75.1841 257.614 77.2321C256.291 79.2374 254.435 80.8161 252.046 81.9681C249.657 83.0774 246.862 83.6321 243.662 83.6321H233.87ZM224.782 102V56.6241H236.238V102H224.782ZM249.358 102L236.174 82.5441L246.478 80.0481L262.606 102H249.358ZM279.032 102V56.6241H287.032L290.488 65.9041V102H279.032ZM310.328 102L283.832 68.3361L287.032 56.6241L313.592 90.2881L310.328 102ZM310.328 102L307.384 92.4641V56.6241H318.84V102H310.328ZM348.987 102.832C345.488 102.832 342.267 102.235 339.323 101.04C336.379 99.8454 333.798 98.1814 331.579 96.0481C329.403 93.9147 327.696 91.4187 326.459 88.5601C325.222 85.6587 324.603 82.5441 324.603 79.2161C324.603 75.8881 325.2 72.8161 326.395 70.0001C327.632 67.1414 329.339 64.6454 331.515 62.5121C333.691 60.3787 336.251 58.7361 339.195 57.5841C342.139 56.3894 345.36 55.7921 348.859 55.7921C352.358 55.7921 355.579 56.3894 358.523 57.5841C361.467 58.7361 364.027 60.3787 366.203 62.5121C368.379 64.6454 370.064 67.1414 371.259 70.0001C372.496 72.8587 373.115 75.9521 373.115 79.2801C373.115 82.6081 372.496 85.7014 371.259 88.5601C370.064 91.4187 368.379 93.9361 366.203 96.1121C364.027 98.2454 361.467 99.9094 358.523 101.104C355.622 102.256 352.443 102.832 348.987 102.832ZM348.859 92.5921C351.419 92.5921 353.638 92.0374 355.515 90.9281C357.392 89.8187 358.843 88.2614 359.867 86.2561C360.891 84.2507 361.403 81.9041 361.403 79.2161C361.403 77.2534 361.104 75.4614 360.507 73.8401C359.952 72.2187 359.12 70.8321 358.011 69.6801C356.902 68.4854 355.579 67.5681 354.043 66.9281C352.507 66.2881 350.779 65.9681 348.859 65.9681C346.299 65.9681 344.08 66.5227 342.203 67.6321C340.326 68.6987 338.875 70.2347 337.851 72.2401C336.827 74.2454 336.315 76.5707 336.315 79.2161C336.315 81.2641 336.592 83.1201 337.147 84.7841C337.744 86.4054 338.598 87.8134 339.707 89.0081C340.816 90.1601 342.139 91.0561 343.675 91.6961C345.211 92.2934 346.939 92.5921 348.859 92.5921ZM390.98 102L373.892 56.6241H386.116L398.916 93.2961H393.668L406.66 56.6241H418.628L401.348 102H390.98ZM414.392 102L431.992 56.6241H443.064L460.472 102H448.504L435.384 63.8561H439.544L426.104 102H414.392ZM425.08 94.0641V84.9761H450.104V94.0641H425.08ZM464.72 102V56.6241H472.976L490.384 82.9281H486.48L503.824 56.6241H512.08V102H500.752V75.5681L502.544 76.0801L492.112 91.7601H484.688L474.32 76.0801L476.112 75.5681V102H464.72ZM520.157 102V56.6241H531.613V102H520.157ZM529.245 102V92.3361H553.821V102H529.245ZM529.245 83.5681V74.1601H551.517V83.5681H529.245ZM529.245 66.2881V56.6241H553.437V66.2881H529.245ZM560.282 102V56.6241H568.282L571.738 65.9041V102H560.282ZM591.578 102L565.082 68.3361L568.282 56.6241L594.842 90.2881L591.578 102ZM591.578 102L588.634 92.4641V56.6241H600.09V102H591.578ZM619.165 102V56.9441H630.621V102H619.165ZM605.277 66.4801V56.6241H644.509V66.4801H605.277ZM649.72 102V56.6241H661.176V102H649.72ZM658.808 102V92.3361H683.384V102H658.808ZM658.808 83.5681V74.1601H681.08V83.5681H658.808ZM658.808 66.2881V56.6241H683V66.2881H658.808Z" fill="#061288"/>
</g>
<defs>
<filter id="filter0_d_6_9076" x="0" y="6.10352e-05" width="723" height="165" filterUnits="userSpaceOnUse" color-interpolation-filters="sRGB">
<feFlood flood-opacity="0" result="BackgroundImageFix"/>
<feColorMatrix in="SourceAlpha" type="matrix" values="0 0 0 0 0 0 0 0 0 0 0 0 0 0 0 0 0 0 127 0" result="hardAlpha"/>
<feOffset dy="4"/>
<feGaussianBlur stdDeviation="2"/>
<feComposite in2="hardAlpha" operator="out"/>
<feColorMatrix type="matrix" values="0 0 0 0 0 0 0 0 0 0 0 0 0 0 0 0 0 0 0.25 0"/>
<feBlend mode="normal" in2="BackgroundImageFix" result="effect1_dropShadow_6_9076"/>
<feBlend mode="normal" in="SourceGraphic" in2="effect1_dropShadow_6_9076" result="shape"/>
</filter>
<filter id="filter1_d_6_9076" x="33.8274" y="55.7921" width="653.556" height="55.04" filterUnits="userSpaceOnUse" color-interpolation-filters="sRGB">
<feFlood flood-opacity="0" result="BackgroundImageFix"/>
<feColorMatrix in="SourceAlpha" type="matrix" values="0 0 0 0 0 0 0 0 0 0 0 0 0 0 0 0 0 0 127 0" result="hardAlpha"/>
<feOffset dy="4"/>
<feGaussianBlur stdDeviation="2"/>
<feComposite in2="hardAlpha" operator="out"/>
<feColorMatrix type="matrix" values="0 0 0 0 0 0 0 0 0 0 0 0 0 0 0 0 0 0 0.25 0"/>
<feBlend mode="normal" in2="BackgroundImageFix" result="effect1_dropShadow_6_9076"/>
<feBlend mode="normal" in="SourceGraphic" in2="effect1_dropShadow_6_9076" result="shape"/>
</filter>
</defs>
</svg>
