<svg width="741" height="165" viewBox="0 0 741 165" fill="none" xmlns="http://www.w3.org/2000/svg">
<g filter="url(#filter0_d_120_11)">
<rect x="4" width="733" height="157" rx="30" fill="#27B8EF"/>
</g>
<g filter="url(#filter1_d_120_11)">
<path d="M73.232 102.64C70.8 102.64 68.5387 102.149 66.448 101.168C64.3573 100.187 62.6507 98.7787 61.328 96.944C60.816 96.176 60.56 95.4293 60.56 94.704C60.56 93.6373 60.9653 92.7413 61.776 92.016C62.6293 91.2907 63.4613 90.928 64.272 90.928C64.912 90.928 65.5307 91.12 66.128 91.504C66.768 91.888 67.344 92.336 67.856 92.848C68.7093 93.616 69.5413 94.1707 70.352 94.512C71.2053 94.8107 72.1653 94.96 73.232 94.96C74.512 94.96 75.7067 94.64 76.816 94C77.9253 93.36 78.8213 92.5067 79.504 91.44C80.1867 90.3733 80.528 89.2213 80.528 87.984V61.104C80.528 59.9947 80.9333 59.0773 81.744 58.352C82.5547 57.584 83.4933 57.2 84.56 57.2C85.7547 57.2 86.7147 57.584 87.44 58.352C88.1653 59.0773 88.528 59.9947 88.528 61.104V87.984C88.528 90.5867 87.8453 92.9973 86.48 95.216C85.1147 97.4347 83.28 99.2267 80.976 100.592C78.672 101.957 76.0907 102.64 73.232 102.64ZM139.329 79.6C139.329 82.8 138.795 85.7867 137.729 88.56C136.662 91.3333 135.147 93.7867 133.185 95.92C131.265 98.0107 128.961 99.6533 126.273 100.848C123.627 102.043 120.726 102.64 117.569 102.64C114.411 102.64 111.51 102.043 108.865 100.848C106.219 99.6533 103.915 98.0107 101.953 95.92C100.033 93.7867 98.5392 91.3333 97.4725 88.56C96.4058 85.7867 95.8725 82.8 95.8725 79.6C95.8725 76.4 96.4058 73.4133 97.4725 70.64C98.5392 67.8667 100.033 65.4347 101.953 63.344C103.915 61.2107 106.219 59.5467 108.865 58.352C111.51 57.1573 114.411 56.56 117.569 56.56C120.726 56.56 123.627 57.1573 126.273 58.352C128.961 59.5467 131.265 61.2107 133.185 63.344C135.147 65.4347 136.662 67.8667 137.729 70.64C138.795 73.4133 139.329 76.4 139.329 79.6ZM131.009 79.6C131.009 76.7413 130.433 74.16 129.281 71.856C128.129 69.5093 126.55 67.6533 124.545 66.288C122.539 64.9227 120.214 64.24 117.569 64.24C114.923 64.24 112.598 64.9227 110.593 66.288C108.587 67.6533 107.009 69.488 105.857 71.792C104.747 74.096 104.193 76.6987 104.193 79.6C104.193 82.4587 104.747 85.0613 105.857 87.408C107.009 89.712 108.587 91.5467 110.593 92.912C112.598 94.2773 114.923 94.96 117.569 94.96C120.214 94.96 122.539 94.2773 124.545 92.912C126.55 91.5467 128.129 89.712 129.281 87.408C130.433 85.0613 131.009 82.4587 131.009 79.6ZM167.795 102.64C164.552 102.64 161.523 102.043 158.707 100.848C155.891 99.6533 153.416 98.0107 151.283 95.92C149.15 93.7867 147.464 91.3333 146.227 88.56C145.032 85.7867 144.435 82.8 144.435 79.6C144.435 76.4 145.032 73.4133 146.227 70.64C147.464 67.8667 149.15 65.4347 151.283 63.344C153.416 61.2107 155.891 59.5467 158.707 58.352C161.523 57.1573 164.552 56.56 167.795 56.56C169.8 56.56 171.742 56.7733 173.619 57.2C175.496 57.6267 177.224 58.2667 178.803 59.12C179.443 59.4613 179.912 59.9307 180.211 60.528C180.552 61.0827 180.723 61.6587 180.723 62.256C180.723 63.28 180.382 64.1973 179.699 65.008C179.016 65.8187 178.142 66.224 177.075 66.224C176.734 66.224 176.371 66.1813 175.987 66.096C175.646 66.0107 175.304 65.8827 174.963 65.712C173.896 65.2427 172.766 64.88 171.571 64.624C170.376 64.368 169.118 64.24 167.795 64.24C165.022 64.24 162.483 64.944 160.179 66.352C157.918 67.7173 156.104 69.5733 154.739 71.92C153.416 74.224 152.755 76.784 152.755 79.6C152.755 82.3733 153.416 84.9333 154.739 87.28C156.104 89.6267 157.918 91.504 160.179 92.912C162.483 94.2773 165.022 94.96 167.795 94.96C169.075 94.96 170.483 94.832 172.019 94.576C173.555 94.32 174.814 93.9787 175.795 93.552L175.219 95.472V84.528L176.307 85.488H169.203C168.094 85.488 167.155 85.1253 166.387 84.4C165.662 83.6747 165.299 82.7573 165.299 81.648C165.299 80.5387 165.662 79.6213 166.387 78.896C167.155 78.1707 168.094 77.808 169.203 77.808H179.699C180.808 77.808 181.726 78.192 182.451 78.96C183.176 79.6853 183.539 80.6027 183.539 81.712V95.28C183.539 96.1333 183.326 96.8373 182.899 97.392C182.515 97.9467 182.067 98.3947 181.555 98.736C179.592 99.9307 177.438 100.891 175.091 101.616C172.787 102.299 170.355 102.64 167.795 102.64ZM207.686 67.248L193.862 99.76C193.563 100.571 193.094 101.211 192.454 101.68C191.856 102.107 191.195 102.32 190.47 102.32C189.318 102.32 188.464 102 187.91 101.36C187.355 100.72 187.078 99.9307 187.078 98.992C187.078 98.608 187.142 98.2027 187.27 97.776L203.206 59.504C203.547 58.6507 204.059 57.9893 204.742 57.52C205.467 57.0507 206.235 56.8587 207.046 56.944C207.814 56.944 208.518 57.1787 209.158 57.648C209.84 58.0747 210.331 58.6933 210.63 59.504L226.374 97.008C226.587 97.5627 226.694 98.0747 226.694 98.544C226.694 99.696 226.31 100.613 225.542 101.296C224.816 101.979 224.006 102.32 223.11 102.32C222.342 102.32 221.638 102.085 220.998 101.616C220.4 101.147 219.931 100.507 219.59 99.696L205.83 67.632L207.686 67.248ZM195.845 91.952L199.366 84.592H216.646L217.862 91.952H195.845ZM236.72 102C235.526 102 234.459 101.637 233.521 100.912C232.582 100.144 232.113 99.2053 232.113 98.096V61.104C232.113 59.9947 232.475 59.0773 233.201 58.352C233.969 57.584 234.907 57.2 236.017 57.2H254.449C256.667 57.2 258.737 57.7973 260.657 58.992C262.619 60.144 264.198 61.7653 265.393 63.856C266.587 65.904 267.185 68.272 267.185 70.96C267.185 72.5813 266.843 74.16 266.161 75.696C265.521 77.232 264.625 78.6187 263.472 79.856C262.363 81.0933 261.105 82.0533 259.697 82.736L259.761 81.264C260.955 81.904 261.937 82.672 262.705 83.568C263.515 84.4213 264.134 85.36 264.561 86.384C265.03 87.3653 265.307 88.432 265.393 89.584C265.563 90.6507 265.67 91.5893 265.713 92.4C265.798 93.2107 265.926 93.8933 266.097 94.448C266.31 95.0027 266.694 95.4293 267.249 95.728C268.187 96.2827 268.763 97.0933 268.977 98.16C269.233 99.184 268.998 100.101 268.273 100.912C267.803 101.467 267.206 101.829 266.481 102C265.755 102.128 265.03 102.128 264.305 102C263.579 101.829 262.982 101.616 262.513 101.36C261.787 100.933 261.062 100.315 260.337 99.504C259.611 98.6507 259.014 97.52 258.545 96.112C258.118 94.704 257.905 92.8907 257.905 90.672C257.905 89.9467 257.777 89.2853 257.521 88.688C257.265 88.048 256.902 87.5147 256.433 87.088C255.963 86.6187 255.366 86.2773 254.641 86.064C253.915 85.808 253.062 85.68 252.081 85.68H239.153L240.113 84.208V98.096C240.113 99.2053 239.814 100.144 239.217 100.912C238.619 101.637 237.787 102 236.72 102ZM239.217 79.088H254.129C254.897 79.088 255.643 78.7467 256.369 78.064C257.094 77.3387 257.691 76.3787 258.161 75.184C258.63 73.9467 258.865 72.6027 258.865 71.152C258.865 69.2747 258.353 67.7173 257.329 66.48C256.347 65.2 255.281 64.56 254.129 64.56H239.345L240.113 62.512V80.624L239.217 79.088ZM327.972 57.2C328.996 57.2 329.828 57.5413 330.468 58.224C331.108 58.9067 331.428 59.76 331.428 60.784V98.096C331.428 99.2053 331.044 100.144 330.276 100.912C329.55 101.637 328.633 102 327.524 102C326.969 102 326.393 101.915 325.796 101.744C325.241 101.531 324.814 101.253 324.516 100.912L299.364 68.976L301.028 67.952V98.416C301.028 99.44 300.686 100.293 300.004 100.976C299.364 101.659 298.51 102 297.444 102C296.42 102 295.588 101.659 294.948 100.976C294.308 100.293 293.988 99.44 293.988 98.416V61.104C293.988 59.9947 294.35 59.0773 295.076 58.352C295.844 57.584 296.782 57.2 297.892 57.2C298.489 57.2 299.108 57.328 299.748 57.584C300.388 57.7973 300.857 58.1387 301.156 58.608L325.54 89.712L324.451 90.48V60.784C324.451 59.76 324.772 58.9067 325.412 58.224C326.052 57.5413 326.905 57.2 327.972 57.2ZM382.266 79.6C382.266 82.8 381.733 85.7867 380.666 88.56C379.599 91.3333 378.085 93.7867 376.122 95.92C374.202 98.0107 371.898 99.6533 369.21 100.848C366.565 102.043 363.663 102.64 360.506 102.64C357.349 102.64 354.447 102.043 351.802 100.848C349.157 99.6533 346.853 98.0107 344.89 95.92C342.97 93.7867 341.477 91.3333 340.41 88.56C339.343 85.7867 338.81 82.8 338.81 79.6C338.81 76.4 339.343 73.4133 340.41 70.64C341.477 67.8667 342.97 65.4347 344.89 63.344C346.853 61.2107 349.157 59.5467 351.802 58.352C354.447 57.1573 357.349 56.56 360.506 56.56C363.663 56.56 366.565 57.1573 369.21 58.352C371.898 59.5467 374.202 61.2107 376.122 63.344C378.085 65.4347 379.599 67.8667 380.666 70.64C381.733 73.4133 382.266 76.4 382.266 79.6ZM373.946 79.6C373.946 76.7413 373.37 74.16 372.218 71.856C371.066 69.5093 369.487 67.6533 367.482 66.288C365.477 64.9227 363.151 64.24 360.506 64.24C357.861 64.24 355.535 64.9227 353.53 66.288C351.525 67.6533 349.946 69.488 348.794 71.792C347.685 74.096 347.13 76.6987 347.13 79.6C347.13 82.4587 347.685 85.0613 348.794 87.408C349.946 89.712 351.525 91.5467 353.53 92.912C355.535 94.2773 357.861 94.96 360.506 94.96C363.151 94.96 365.477 94.2773 367.482 92.912C369.487 91.5467 371.066 89.712 372.218 87.408C373.37 85.0613 373.946 82.4587 373.946 79.6ZM421.629 57.072C422.696 57.072 423.613 57.4347 424.381 58.16C425.192 58.8427 425.597 59.7173 425.597 60.784C425.597 61.3387 425.469 61.9147 425.213 62.512L409.405 99.504C409.021 100.357 408.466 100.997 407.741 101.424C407.058 101.808 406.354 102 405.629 102C404.946 101.957 404.285 101.744 403.645 101.36C403.005 100.933 402.514 100.336 402.173 99.568L386.365 62.448C386.237 62.192 386.152 61.936 386.109 61.68C386.066 61.3813 386.045 61.104 386.045 60.848C386.045 59.6107 386.493 58.672 387.389 58.032C388.285 57.3493 389.138 57.008 389.949 57.008C391.57 57.008 392.744 57.84 393.469 59.504L407.485 92.464L405.245 92.528L418.109 59.504C418.834 57.8827 420.008 57.072 421.629 57.072ZM446.561 67.248L432.737 99.76C432.438 100.571 431.969 101.211 431.329 101.68C430.731 102.107 430.07 102.32 429.345 102.32C428.193 102.32 427.339 102 426.785 101.36C426.23 100.72 425.953 99.9307 425.953 98.992C425.953 98.608 426.017 98.2027 426.145 97.776L442.081 59.504C442.422 58.6507 442.934 57.9893 443.617 57.52C444.342 57.0507 445.11 56.8587 445.921 56.944C446.689 56.944 447.393 57.1787 448.033 57.648C448.715 58.0747 449.206 58.6933 449.505 59.504L465.249 97.008C465.462 97.5627 465.569 98.0747 465.569 98.544C465.569 99.696 465.185 100.613 464.417 101.296C463.691 101.979 462.881 102.32 461.985 102.32C461.217 102.32 460.513 102.085 459.873 101.616C459.275 101.147 458.806 100.507 458.465 99.696L444.705 67.632L446.561 67.248ZM434.72 91.952L438.241 84.592H455.521L456.737 91.952H434.72ZM475.02 57.136C475.617 57.136 476.236 57.3067 476.876 57.648C477.558 57.9467 478.07 58.352 478.412 58.864L493.964 82.8L490.764 82.672L506.7 58.864C507.51 57.712 508.556 57.136 509.836 57.136C510.86 57.136 511.777 57.4987 512.588 58.224C513.398 58.9493 513.804 59.888 513.804 61.04V98.096C513.804 99.2053 513.441 100.144 512.716 100.912C511.99 101.637 511.03 102 509.836 102C508.641 102 507.66 101.637 506.892 100.912C506.166 100.144 505.804 99.2053 505.804 98.096V67.952L508.3 68.528L495.244 88.432C494.86 88.9013 494.369 89.3067 493.772 89.648C493.217 89.9893 492.641 90.1387 492.044 90.096C491.489 90.1387 490.913 89.9893 490.316 89.648C489.761 89.3067 489.292 88.9013 488.908 88.432L476.684 69.104L478.348 65.712V98.096C478.348 99.2053 478.006 100.144 477.324 100.912C476.641 101.637 475.745 102 474.635 102C473.569 102 472.694 101.637 472.012 100.912C471.329 100.144 470.988 99.2053 470.988 98.096V61.04C470.988 59.9733 471.372 59.056 472.14 58.288C472.95 57.52 473.91 57.136 475.02 57.136ZM527.329 57.2H548.769C549.878 57.2 550.796 57.5627 551.521 58.288C552.289 58.9707 552.673 59.8667 552.673 60.976C552.673 62.0427 552.289 62.9173 551.521 63.6C550.796 64.24 549.878 64.56 548.769 64.56H530.849L531.425 63.472V75.952L530.913 75.44H545.889C546.998 75.44 547.916 75.8027 548.641 76.528C549.409 77.2107 549.793 78.1067 549.793 79.216C549.793 80.2827 549.409 81.1573 548.641 81.84C547.916 82.48 546.998 82.8 545.889 82.8H531.105L531.425 82.288V95.216L530.913 94.64H548.769C549.878 94.64 550.796 95.024 551.521 95.792C552.289 96.5173 552.673 97.3707 552.673 98.352C552.673 99.4187 552.289 100.293 551.521 100.976C550.796 101.659 549.878 102 548.769 102H527.329C526.22 102 525.281 101.637 524.513 100.912C523.788 100.144 523.425 99.2053 523.425 98.096V61.104C523.425 59.9947 523.788 59.0773 524.513 58.352C525.281 57.584 526.22 57.2 527.329 57.2ZM594.034 57.2C595.058 57.2 595.89 57.5413 596.53 58.224C597.17 58.9067 597.49 59.76 597.49 60.784V98.096C597.49 99.2053 597.106 100.144 596.338 100.912C595.613 101.637 594.695 102 593.586 102C593.031 102 592.455 101.915 591.858 101.744C591.303 101.531 590.877 101.253 590.578 100.912L565.426 68.976L567.09 67.952V98.416C567.09 99.44 566.749 100.293 566.066 100.976C565.426 101.659 564.573 102 563.506 102C562.482 102 561.65 101.659 561.01 100.976C560.37 100.293 560.05 99.44 560.05 98.416V61.104C560.05 59.9947 560.413 59.0773 561.138 58.352C561.906 57.584 562.845 57.2 563.954 57.2C564.551 57.2 565.17 57.328 565.81 57.584C566.45 57.7973 566.919 58.1387 567.218 58.608L591.602 89.712L590.514 90.48V60.784C590.514 59.76 590.834 58.9067 591.474 58.224C592.114 57.5413 592.967 57.2 594.034 57.2ZM622.281 102C621.086 102 620.105 101.637 619.337 100.912C618.569 100.144 618.185 99.2053 618.185 98.096V60.976H626.505V98.096C626.505 99.2053 626.099 100.144 625.289 100.912C624.521 101.637 623.518 102 622.281 102ZM608.137 64.56C607.027 64.56 606.089 64.2187 605.321 63.536C604.595 62.8533 604.233 61.9573 604.233 60.848C604.233 59.7387 604.595 58.864 605.321 58.224C606.089 57.5413 607.027 57.2 608.137 57.2H636.553C637.662 57.2 638.579 57.5413 639.305 58.224C640.073 58.9067 640.457 59.8027 640.457 60.912C640.457 62.0213 640.073 62.9173 639.305 63.6C638.579 64.24 637.662 64.56 636.553 64.56H608.137ZM651.079 57.2H672.519C673.628 57.2 674.546 57.5627 675.271 58.288C676.039 58.9707 676.423 59.8667 676.423 60.976C676.423 62.0427 676.039 62.9173 675.271 63.6C674.546 64.24 673.628 64.56 672.519 64.56H654.599L655.175 63.472V75.952L654.663 75.44H669.639C670.748 75.44 671.666 75.8027 672.391 76.528C673.159 77.2107 673.543 78.1067 673.543 79.216C673.543 80.2827 673.159 81.1573 672.391 81.84C671.666 82.48 670.748 82.8 669.639 82.8H654.855L655.175 82.288V95.216L654.663 94.64H672.519C673.628 94.64 674.546 95.024 675.271 95.792C676.039 96.5173 676.423 97.3707 676.423 98.352C676.423 99.4187 676.039 100.293 675.271 100.976C674.546 101.659 673.628 102 672.519 102H651.079C649.97 102 649.031 101.637 648.263 100.912C647.538 100.144 647.175 99.2053 647.175 98.096V61.104C647.175 59.9947 647.538 59.0773 648.263 58.352C649.031 57.584 649.97 57.2 651.079 57.2Z" fill="white"/>
</g>
<defs>
<filter id="filter0_d_120_11" x="0" y="0" width="741" height="165" filterUnits="userSpaceOnUse" color-interpolation-filters="sRGB">
<feFlood flood-opacity="0" result="BackgroundImageFix"/>
<feColorMatrix in="SourceAlpha" type="matrix" values="0 0 0 0 0 0 0 0 0 0 0 0 0 0 0 0 0 0 127 0" result="hardAlpha"/>
<feOffset dy="4"/>
<feGaussianBlur stdDeviation="2"/>
<feComposite in2="hardAlpha" operator="out"/>
<feColorMatrix type="matrix" values="0 0 0 0 0 0 0 0 0 0 0 0 0 0 0 0 0 0 0.25 0"/>
<feBlend mode="normal" in2="BackgroundImageFix" result="effect1_dropShadow_120_11"/>
<feBlend mode="normal" in="SourceGraphic" in2="effect1_dropShadow_120_11" result="shape"/>
</filter>
<filter id="filter1_d_120_11" x="56.5601" y="56.56" width="623.863" height="54.08" filterUnits="userSpaceOnUse" color-interpolation-filters="sRGB">
<feFlood flood-opacity="0" result="BackgroundImageFix"/>
<feColorMatrix in="SourceAlpha" type="matrix" values="0 0 0 0 0 0 0 0 0 0 0 0 0 0 0 0 0 0 127 0" result="hardAlpha"/>
<feOffset dy="4"/>
<feGaussianBlur stdDeviation="2"/>
<feComposite in2="hardAlpha" operator="out"/>
<feColorMatrix type="matrix" values="0 0 0 0 0 0 0 0 0 0 0 0 0 0 0 0 0 0 0.25 0"/>
<feBlend mode="normal" in2="BackgroundImageFix" result="effect1_dropShadow_120_11"/>
<feBlend mode="normal" in="SourceGraphic" in2="effect1_dropShadow_120_11" result="shape"/>
</filter>
</defs>
</svg>
