<svg width="198" height="222" viewBox="0 0 198 222" fill="none" xmlns="http://www.w3.org/2000/svg">
<g clip-path="url(#clip0_261_5588)">
<path d="M198 92.2341C198 97.8966 184.584 101.475 183.283 106.315C181.853 111.634 191.394 121.589 188.604 125.962C185.744 130.438 172.506 126.134 168.459 129.664C164.541 133.086 167.466 146.587 162.657 149.171C158.092 151.626 148.017 141.951 142.841 143.702C137.903 145.368 136.079 159.142 130.748 160.201C125.594 161.227 118.433 149.246 113.068 149.741C107.791 150.224 103.042 163.317 97.6936 163.317C92.3456 163.317 87.7207 150.213 82.5292 149.703C77.1974 149.177 69.966 161.087 64.8986 160.002C59.6262 158.874 58.1259 145.088 53.2852 143.321C48.2017 141.467 37.905 150.864 33.4636 148.274C28.8064 145.561 32.2818 132.21 28.5312 128.654C24.6942 125.017 11.3377 128.858 8.65563 124.308C6.05988 119.902 15.914 110.248 14.5865 104.945C13.383 100.126 -0.00585938 96.4783 -0.00585938 90.891C-0.00585938 85.3036 13.464 80.8606 14.8023 75.3539C16.1623 69.7558 6.08686 59.9779 8.64484 54.8419C11.1974 49.7219 25.1961 51.699 28.7686 47.1593C32.3034 42.6679 26.9176 29.6774 31.2726 25.8683C35.5845 22.0968 47.8833 29.0327 52.8265 26.0402C57.7428 23.0693 57.2139 9.00421 62.5889 6.91433C67.9531 4.82982 77.1003 15.5317 82.7613 14.4357C88.4115 13.3398 92.9284 0 98.7081 0C104.488 0 109.053 13.3613 114.757 14.5056C120.445 15.6499 129.733 5.04472 135.14 7.20982C140.532 9.36954 139.911 23.4561 144.849 26.5076C149.797 29.5699 162.204 22.7791 166.532 26.6204C170.893 30.494 165.474 43.4953 169.02 48.0404C172.609 52.6392 186.64 50.732 189.219 55.8895C191.815 61.0847 181.767 70.927 183.154 76.5573C184.524 82.1285 198.005 86.3566 198.005 92.2287L198 92.2341Z" fill="#F39F51"/>
<path d="M65.104 36.6401C71.2885 43.8016 70.4736 54.5948 63.28 60.7516C56.0864 66.9085 45.2447 66.0972 39.0602 58.9358C32.8757 51.7743 30.6146 37.1774 37.2092 29.8816C42.9889 23.4884 58.9196 29.4787 65.104 36.6401Z" fill="#FFD36D"/>
<path d="M59.5672 39.8797C63.4743 44.4033 62.9617 51.2263 58.4178 55.1214C53.8738 59.011 47.0202 58.5006 43.1077 53.977C39.1952 49.4534 37.7705 40.2236 41.9366 35.614C45.5901 31.5739 55.6601 35.3615 59.5672 39.8851V39.8797Z" fill="#F39F51"/>
<path d="M131.978 36.6401C125.794 43.8016 126.609 54.5948 133.802 60.7516C140.996 66.9085 151.838 66.0972 158.022 58.9358C164.207 51.7743 166.468 37.1774 159.873 29.8816C154.093 23.4884 138.163 29.4787 131.978 36.6401Z" fill="#FFD36D"/>
<path d="M137.515 39.8797C133.608 44.4033 134.121 51.2263 138.665 55.1214C143.209 59.011 150.062 58.5006 153.975 53.977C157.882 49.4534 159.312 40.2236 155.146 35.614C151.492 31.5739 141.422 35.3615 137.515 39.8851V39.8797Z" fill="#F39F51"/>
<path d="M118.681 212.426H116.695C123.516 204.099 127.92 191.087 127.92 176.442C127.92 151.293 114.968 130.905 98.9944 130.905C83.0206 130.905 70.0688 151.293 70.0688 176.442C70.0688 191.087 74.4724 204.099 81.2937 212.426H79.2754C76.3774 212.426 74.0299 214.763 74.0299 217.648C74.0299 220.055 75.9889 222 78.4011 222H88.7086C95.1197 222 93.9648 213.871 93.6303 209.622C93.3496 206.049 93.5007 202.45 94.1645 198.92C94.634 196.416 95.4273 192.134 97.9745 190.786C98.2875 190.619 98.6275 190.512 98.989 190.512C101.617 190.512 102.794 194.778 103.306 196.685C104.548 201.284 104.666 206.108 104.359 210.831C104.261 212.313 104.148 213.796 104.1 215.284C103.997 218.578 105.389 222 109.237 222H119.545C121.962 222 123.916 220.05 123.916 217.648C123.916 214.763 121.568 212.426 118.67 212.426H118.681Z" fill="#FFD36D"/>
<path d="M133.387 138.249C141.897 141.8 148.411 145.953 145.804 151.793C142.453 159.293 135.907 156.027 127.397 152.47C118.886 148.919 113.328 142.853 114.979 138.926C116.636 134.999 124.876 134.693 133.387 138.249Z" fill="#FFD36D"/>
<path d="M65.0069 138.249C56.4965 141.8 49.9829 145.953 52.5894 151.793C55.9407 159.293 62.4867 156.027 70.9971 152.47C79.5075 148.919 85.0659 142.853 83.4146 138.926C81.7578 134.999 73.5173 134.693 65.0069 138.249Z" fill="#FFD36D"/>
<path d="M127.057 191.517C122.124 189.55 119.064 185.838 117.834 184.087C117.111 183.055 117.364 181.637 118.395 180.917C119.431 180.197 120.856 180.45 121.579 181.476C122.766 183.168 126.118 187.192 131.584 188.073C138.114 189.126 144.919 185.365 148.53 178.709C149.129 177.602 150.516 177.188 151.627 177.785C152.739 178.381 153.154 179.762 152.555 180.869C151.449 182.91 150.068 184.769 148.459 186.386C146.884 187.971 145.119 189.293 143.209 190.329C141.293 191.366 139.269 192.086 137.197 192.473C135.065 192.871 132.933 192.897 130.85 192.564C129.48 192.344 128.217 191.979 127.057 191.511V191.517Z" fill="#FFD36D"/>
<path d="M160.375 177.446C158.222 182.797 153.046 185.763 148.816 184.076C144.585 182.389 142.901 176.683 145.054 171.338C147.207 165.987 155.691 158.664 159.922 160.351C164.153 162.038 162.528 172.101 160.375 177.446Z" fill="#F39F51"/>
<path d="M169.938 99.8254C169.938 135.353 138.179 139.254 98.9999 139.254C59.8208 139.254 28.062 135.353 28.062 99.8254C28.062 64.2974 59.8208 24.0632 98.9999 24.0632C138.179 24.0632 169.938 64.2921 169.938 99.82V99.8254Z" fill="#FFD36D"/>
<path d="M71.9631 96.978C71.9631 104.36 65.9459 110.339 58.5202 110.339C51.0946 110.339 45.0774 104.354 45.0774 96.978C45.0774 89.6016 51.0946 83.6167 58.5202 83.6167C66.3399 83.6167 71.9631 89.6016 71.9631 96.978Z" fill="white"/>
<path d="M59.0222 110.382C64.6731 110.382 69.2541 105.528 69.2541 99.5406C69.2541 93.5529 64.6731 88.699 59.0222 88.699C53.3713 88.699 48.7903 93.5529 48.7903 99.5406C48.7903 105.528 53.3713 110.382 59.0222 110.382Z" fill="#84322C"/>
<path d="M61.7528 94.41C60.1554 93.4913 57.9914 93.2656 56.0001 94.41C55.6547 94.6087 55.2769 94.6947 54.91 94.6786C54.543 94.6571 54.1868 94.5389 53.9494 94.2488C53.7119 93.9587 53.6526 93.5396 53.7983 93.0991C53.9386 92.6639 54.2893 92.2073 54.7858 91.9225C57.3384 90.4558 60.4145 90.4558 62.967 91.9225C63.4635 92.2073 63.8143 92.6639 63.9546 93.0991C64.1003 93.5396 64.0409 93.964 63.8035 94.2488C63.566 94.5389 63.2099 94.6625 62.8429 94.6786C62.4759 94.6947 62.0982 94.6087 61.7528 94.41Z" fill="white"/>
<path d="M67.2141 99.836C67.2141 101.013 66.0808 101.963 64.8935 101.963C63.7063 101.963 62.7511 101.013 62.7511 99.836C62.7511 98.6594 63.7117 97.7085 64.8935 97.7085C66.0754 97.7085 67.2141 98.6594 67.2141 99.836Z" fill="white"/>
<path d="M152.928 96.978C152.928 104.36 146.911 110.339 139.485 110.339C132.059 110.339 126.042 104.354 126.042 96.978C126.042 89.6016 132.059 83.6167 139.485 83.6167C147.305 83.6167 152.928 89.6016 152.928 96.978Z" fill="white"/>
<path d="M139.992 110.382C145.643 110.382 150.224 105.528 150.224 99.5406C150.224 93.5529 145.643 88.699 139.992 88.699C134.341 88.699 129.76 93.5529 129.76 99.5406C129.76 105.528 134.341 110.382 139.992 110.382Z" fill="#84322C"/>
<path d="M142.718 94.41C141.12 93.4913 138.956 93.2656 136.965 94.41C136.619 94.6087 136.242 94.6947 135.875 94.6786C135.508 94.6571 135.152 94.5389 134.914 94.2488C134.677 93.9587 134.617 93.5396 134.763 93.0991C134.903 92.6639 135.254 92.2073 135.751 91.9225C138.303 90.4558 141.379 90.4558 143.932 91.9225C144.428 92.2073 144.779 92.6639 144.919 93.0991C145.065 93.5396 145.006 93.964 144.768 94.2488C144.531 94.5389 144.175 94.6625 143.808 94.6786C143.441 94.6947 143.063 94.6087 142.718 94.41Z" fill="white"/>
<path d="M148.179 99.836C148.179 101.013 147.046 101.963 145.858 101.963C144.671 101.963 143.716 101.013 143.716 99.836C143.716 98.6594 144.676 97.7085 145.858 97.7085C147.04 97.7085 148.179 98.6594 148.179 99.836Z" fill="white"/>
<path d="M98.9782 119.155C98.9782 124.501 93.722 128.836 87.2407 128.836C80.7594 128.836 75.5032 124.501 75.5032 119.155C75.5032 113.81 80.7594 109.474 87.2407 109.474C93.722 109.474 98.9782 113.81 98.9782 119.155Z" fill="#F39F51"/>
<path d="M122.086 119.155C122.086 124.501 116.728 128.836 110.111 128.836C103.495 128.836 98.1365 124.501 98.1365 119.155C98.1365 113.81 103.501 109.474 110.111 109.474C116.722 109.474 122.086 113.81 122.086 119.155Z" fill="#F39F51"/>
<path d="M108.94 112.284C108.94 115.749 104.083 120.096 98.0878 120.096C92.0923 120.096 87.2354 115.744 87.2354 112.284C87.2354 108.824 92.0923 106.014 98.0878 106.014C104.083 106.014 108.94 108.824 108.94 112.284Z" fill="#84322C"/>
<path d="M98.9999 183.2C107.557 183.2 114.493 174.298 114.493 163.317C114.493 152.335 107.557 143.433 98.9999 143.433C90.443 143.433 83.5063 152.335 83.5063 163.317C83.5063 174.298 90.443 183.2 98.9999 183.2Z" fill="#F39F51"/>
</g>
<defs>
<clipPath id="clip0_261_5588">
<rect width="198" height="222" fill="white"/>
</clipPath>
</defs>
</svg>
