<svg width="930" height="776" viewBox="0 0 930 776" fill="none" xmlns="http://www.w3.org/2000/svg">
<g filter="url(#filter0_d_1_319)">
<path d="M183.776 247.641C176.012 263.982 160.66 274.271 144.972 274.271C129.283 274.271 114.098 263.177 108.021 245.024C106.5 240.382 105.15 235.141 105.15 230.094C105.15 220.412 111.394 216.177 118.815 216.177C122.863 216.177 127.42 217.788 130.118 221.624C132.988 225.859 131.976 231.506 132.988 236.347C134.509 243.006 138.894 251.076 145.304 251.076C162.01 251.076 163.696 217.588 163.696 203.471C163.696 184.106 162.175 164.536 162.175 145.171C162.175 132.459 165.886 125.201 177.361 125.201C184.107 125.201 190.185 128.83 190.185 137.912C190.185 141.342 189.51 144.571 189.51 148C189.51 166.559 190.694 185.118 190.694 203.676C190.694 218 189.853 234.947 183.776 247.653V247.641Z" fill="#FE97DC"/>
<path d="M255.134 140.324C262.555 140.324 269.982 142.342 277.238 144.56C298.666 151.218 311.656 171.189 311.656 197.812C311.656 232.106 290.227 263.977 260.366 263.977C230.504 263.977 213.466 235.13 213.466 201.642C213.466 172.189 227.468 140.318 255.14 140.318L255.134 140.324ZM270.828 166.748C267.621 165.336 264.082 164.93 260.537 164.93C258.342 164.93 256.318 164.124 254.122 164.124C253.11 164.124 252.098 164.324 251.252 165.13C242.813 172.395 240.286 189.336 240.286 200.836C240.286 205.277 240.452 209.912 241.132 214.148C242.819 224.436 250.577 241.983 260.703 241.983C263.402 241.983 265.934 240.771 268.124 238.959C279.599 230.283 285.162 213.136 285.162 197.401C285.162 185.295 281.114 171.377 270.823 166.736L270.828 166.748Z" fill="#FFD77C"/>
<path d="M364.284 200.641C376.6 196.806 392.631 195.194 405.45 195.194C412.196 195.194 419.96 196.806 420.972 206.489C421.31 209.718 421.309 212.942 421.309 216.171C421.309 224.847 420.469 233.924 417.936 241.994C412.03 260.753 398.028 272.253 381.156 272.253C371.202 272.253 361.077 268.018 353.484 260.147C340.157 246.43 334.417 226.659 334.417 206.083C334.417 177.036 346.732 132.048 376.091 132.048C381.66 132.048 386.891 133.66 391.779 136.489C395.827 138.707 401.562 142.742 401.562 148.795C401.562 156.865 393.803 160.089 388.235 160.089C381.825 160.089 378.109 155.248 376.76 155.248C375.239 155.248 373.724 158.271 372.878 159.483C365.96 170.377 362.249 184.295 361.066 197.812V198.418C361.066 200.03 361.74 200.842 362.924 200.842C363.433 200.842 363.77 200.842 364.273 200.641H364.284ZM363.272 225.053C365.634 233.929 371.711 249.865 380.819 249.865C390.773 249.865 394.484 231.912 394.484 222.63C394.484 220.612 392.963 219.606 391.613 219.606H390.939C384.524 220.818 378.286 222.63 371.871 222.63C369.51 222.63 367.149 222.024 364.953 222.024C363.941 222.024 363.095 222.43 363.095 223.636C363.095 224.241 363.095 224.647 363.261 225.047L363.272 225.053Z" fill="#74EAB8"/>
<path d="M485.75 140.324C493.171 140.324 500.598 142.342 507.853 144.56C529.282 151.218 542.272 171.189 542.272 197.812C542.272 232.106 520.843 263.977 490.981 263.977C461.119 263.977 444.082 235.13 444.082 201.642C444.082 172.189 458.084 140.318 485.756 140.318L485.75 140.324ZM501.444 166.748C498.237 165.336 494.698 164.93 491.153 164.93C488.957 164.93 486.933 164.124 484.738 164.124C483.726 164.124 482.714 164.324 481.868 165.13C473.429 172.395 470.902 189.336 470.902 200.836C470.902 205.277 471.068 209.912 471.742 214.148C473.429 224.436 481.193 241.983 491.313 241.983C494.012 241.983 496.544 240.771 498.734 238.959C510.209 230.283 515.772 213.136 515.772 197.401C515.772 185.295 511.724 171.377 501.433 166.736L501.444 166.748Z" fill="#29DEF7"/>
<path d="M635.899 133.865C668.46 133.865 688.711 165.536 688.711 202.853C688.711 240.171 668.294 270.43 636.071 270.43C632.189 270.43 628.141 270.024 624.259 269.018C617.512 267.2 613.293 263.977 612.618 255.1C611.944 245.418 611.098 235.936 610.257 226.253C608.908 211.73 607.221 197.406 607.221 182.683C607.221 175.624 607.558 165.736 609.417 158.877C609.925 157.265 610.429 156.254 610.429 154.642C610.429 152.018 609.079 150.001 609.079 147.377C609.079 136.283 629.159 133.86 635.905 133.86L635.899 133.865ZM643.321 246.835C657.323 239.977 662.051 219.2 662.051 202.659C662.051 188.136 658.506 170.989 648.386 161.706C646.025 159.489 643.155 157.671 640.119 157.065C638.598 157.871 636.408 160.089 635.734 162.107C634.047 167.353 633.876 174.412 633.876 179.859C633.876 201.242 636.408 222.224 638.432 243.4C638.598 245.218 639.278 247.636 641.131 247.636C641.468 247.636 642.989 247.03 643.326 246.83L643.321 246.835Z" fill="#FFD77C"/>
<path d="M767.485 150.612C786.552 171.389 791.949 212.747 800.382 240.783C801.057 243.2 801.732 245.824 801.732 248.447C801.732 257.524 795.317 262.165 788.233 262.165C773.894 262.165 774.397 249.659 771.864 236.947C771.19 233.718 770.515 230.494 769.669 227.465C769.331 226.053 769.16 224.842 767.645 224.842C760.555 224.842 753.3 225.042 746.216 225.042C745.204 225.042 744.358 224.842 743.518 224.842C742.168 224.842 741.831 225.648 741.494 227.059C740.819 230.689 740.144 234.118 739.47 237.753C737.274 249.653 740.482 264.383 724.622 264.383C718.716 264.383 711.46 261.359 711.46 252.883C711.46 233.718 717.029 214.353 721.586 196.195C724.113 185.907 726.817 175.418 729.344 165.13C731.031 158.271 731.368 147.377 736.765 143.142C739.635 140.924 743.009 139.913 746.382 139.913C753.803 139.913 762.076 144.554 767.473 150.607L767.485 150.612ZM752.637 180.265C752.128 182.083 748.08 198.624 748.08 199.23C748.08 201.247 749.429 202.459 750.95 202.459H759.555C761.076 202.459 762.253 201.247 762.253 199.436C762.253 197.012 756.856 182.694 755.507 179.871C755.17 179.265 754.832 178.259 754.158 178.259C753.311 178.259 752.808 179.471 752.637 180.277V180.265Z" fill="#FE97DC"/>
<path d="M174.159 327.386C180.231 348.969 186.474 390.327 192.889 419.574C194.404 426.233 197.783 427.239 197.783 435.915C197.783 446.403 192.386 450.845 184.119 450.845C175.005 450.845 172.478 446.809 170.117 437.933C164.72 416.751 161.175 390.933 156.115 370.151C155.606 368.333 154.428 367.327 153.754 369.951C150.043 379.633 148.357 389.115 144.474 399.809C142.451 405.456 138.065 406.668 133.171 406.668C132.159 406.668 131.313 406.668 130.301 406.468C122.034 404.856 119.501 396.18 115.962 388.315C112.08 379.845 108.878 370.768 104.996 362.092C104.321 360.48 102.635 359.874 102.635 362.498C101.96 367.139 101.789 371.98 101.451 376.621C100.605 388.321 99.4273 398.809 98.5812 410.309C97.9065 418.78 96.8946 427.05 95.2079 435.321C94.196 440.162 93.3498 443.791 89.3019 446.215C86.9406 447.627 84.242 448.232 81.7092 448.232C75.9747 448.232 68.2105 445.003 68.2105 436.938C68.2105 435.932 68.3763 434.921 68.5478 433.915C70.2345 426.65 71.0806 419.791 71.7553 412.332C73.7792 386.109 77.1525 340.115 86.266 319.539C88.4614 314.497 93.5213 312.274 98.4154 312.274C103.309 312.274 108.198 315.098 111.405 319.739C119.335 330.833 124.395 343.945 130.13 356.856C130.976 359.074 132.325 359.28 133.337 356.856C136.71 348.786 145.652 325.386 150.712 320.545C153.245 318.121 156.452 316.709 159.654 316.709C165.726 316.709 172.307 320.745 174.165 327.403L174.159 327.386Z" fill="#74EAB8"/>
<path d="M284.996 438.539C279.261 451.25 258.336 452.662 247.713 452.662H240.12C223.42 452.662 224.598 426.639 223.752 412.721C223.248 404.651 223.077 396.586 223.077 388.515C223.077 367.739 224.426 346.557 226.622 325.98C227.468 318.716 230.841 313.269 236.747 311.051C239.955 309.839 243.162 309.639 246.535 309.639C249.571 309.639 252.779 309.839 255.98 309.839C262.727 309.839 269.479 310.245 276.734 310.245C281.966 310.245 288.541 312.868 288.541 320.533C288.541 334.251 264.076 332.033 256.318 332.639C254.122 332.839 252.436 334.457 252.098 337.074C251.424 341.915 250.412 356.845 250.412 361.886C250.412 364.309 251.761 366.327 253.956 366.327H262.727C266.1 366.327 269.473 365.921 273.018 365.921C278.587 365.921 285.505 368.945 285.505 377.015C285.505 388.109 272.852 388.915 266.272 388.915H260.028C256.655 388.915 249.737 387.304 249.737 393.556C249.737 403.439 250.412 413.121 251.258 422.809V424.021C251.258 426.644 250.749 430.074 253.785 430.074C260.531 430.074 266.1 423.215 272.852 423.215C277.912 423.215 286.014 426.844 286.014 434.109C286.014 435.721 285.676 437.133 285.002 438.55L284.996 438.539Z" fill="#FFD77C"/>
<path d="M419.794 327.386C425.866 348.969 432.11 390.327 438.525 419.574C440.04 426.233 443.419 427.239 443.419 435.915C443.419 446.403 438.021 450.845 429.754 450.845C420.641 450.845 418.114 446.809 415.752 437.933C410.355 416.751 406.81 390.933 401.75 370.151C401.242 368.333 400.064 367.327 399.389 369.951C395.679 379.633 393.992 389.115 390.11 399.809C388.086 405.456 383.701 406.668 378.807 406.668C377.795 406.668 376.948 406.668 375.936 406.468C367.669 404.856 365.136 396.18 361.592 388.315C357.709 379.845 354.508 370.768 350.626 362.092C349.951 360.48 348.264 359.874 348.264 362.498C347.59 367.139 347.418 371.98 347.081 376.621C346.235 388.321 345.057 398.809 344.211 410.309C343.536 418.78 342.524 427.05 340.838 435.321C339.826 440.162 338.979 443.791 334.932 446.215C332.57 447.627 329.872 448.232 327.339 448.232C321.604 448.232 313.84 445.003 313.84 436.938C313.84 435.932 314.012 434.921 314.177 433.915C315.864 426.65 316.705 419.791 317.385 412.332C319.409 386.109 322.782 340.115 331.896 319.539C334.091 314.497 339.151 312.274 344.045 312.274C348.939 312.274 353.833 315.098 357.035 319.739C364.965 330.833 370.025 343.945 375.765 356.856C376.611 359.074 377.96 359.28 378.972 356.856C382.346 348.786 391.288 325.386 396.348 320.545C398.88 318.121 402.088 316.709 405.289 316.709C411.361 316.709 417.942 320.745 419.8 327.403L419.794 327.386Z" fill="#FE97DC"/>
<path d="M510.38 318.51C517.802 318.51 525.228 320.527 532.478 322.745C553.907 329.404 566.897 349.374 566.897 375.998C566.897 410.292 545.468 442.162 515.606 442.162C485.744 442.162 468.701 413.315 468.701 379.827C468.701 350.375 482.703 318.504 510.375 318.504L510.38 318.51ZM526.069 344.933C522.867 343.521 519.322 343.116 515.778 343.116C513.582 343.116 511.558 342.31 509.368 342.31C508.356 342.31 507.344 342.51 506.498 343.316C498.059 350.58 495.532 367.522 495.532 379.021C495.532 383.463 495.704 388.098 496.379 392.333C498.065 402.621 505.829 420.168 515.949 420.168C518.648 420.168 521.181 418.957 523.37 417.145C534.845 408.469 540.408 391.322 540.408 375.586C540.408 363.481 536.36 349.563 526.069 344.922V344.933ZM523.37 296.922C517.127 301.157 509.872 309.428 502.45 302.975C494.012 295.916 507.848 288.045 512.067 285.222C518.31 280.986 525.566 272.916 532.987 279.169C541.426 286.433 527.59 294.098 523.37 296.922Z" fill="#FFD77C"/>
<path d="M644.67 396.174C650.576 403.233 654.286 412.31 659.855 419.774C663.228 424.215 668.46 424.615 670.484 430.868C673.52 439.745 663.063 445.192 656.985 445.192C638.93 445.192 625.437 410.092 622.063 410.092C621.217 410.092 621.217 411.704 621.217 412.31C621.217 420.986 621.389 429.862 621.051 438.533C620.886 443.78 620.543 448.415 616.495 451.645C613.625 453.862 610.251 454.874 606.878 454.874C598.439 454.874 593.888 449.627 593.888 439.545C593.888 428.451 594.225 412.109 593.888 400.41C593.379 374.386 592.202 351.392 592.202 325.369C592.202 323.351 592.373 321.333 593.214 319.516C597.433 310.034 615.82 305.798 623.921 305.798C644.841 305.798 662.897 321.934 662.897 348.363C662.897 365.71 655.807 380.233 644.841 391.127C644.167 391.733 643.492 392.539 643.492 393.545C643.492 394.757 644.167 395.563 644.676 396.169L644.67 396.174ZM624.253 328.192C621.892 328.192 618.856 328.598 618.856 332.027L619.193 346.751C619.359 355.827 619.702 365.11 620.205 374.186C620.371 375.798 620.88 377.21 622.395 377.21C622.904 377.21 623.241 377.01 623.744 376.804C631.503 371.763 636.397 361.069 636.397 350.58C636.397 341.704 633.361 328.186 624.247 328.186L624.253 328.192Z" fill="#29DEF7"/>
<path d="M698.991 354.416C700.003 348.163 705.737 345.945 710.465 345.945C716.709 345.945 724.804 349.775 724.804 358.451C724.804 374.992 723.284 389.115 723.284 405.656C723.284 410.498 722.1 419.374 724.296 424.415C724.805 425.627 725.142 426.633 725.142 428.045C725.142 429.862 724.633 431.674 724.13 433.492C721.934 440.551 717.04 443.58 710.803 443.58C699.162 443.58 696.464 435.509 696.464 423.204C696.464 419.974 696.635 416.751 696.635 413.521C696.635 393.957 695.789 373.78 698.996 354.416H698.991ZM697.979 316.286C697.979 307.61 704.897 303.375 711.306 303.375C717.715 303.375 724.804 307.61 724.804 316.286C724.804 324.963 717.886 329.398 711.306 329.398C704.725 329.398 697.979 325.163 697.979 316.286Z" fill="#74EAB8"/>
<path d="M804.43 328.798C823.498 349.574 828.895 390.933 837.328 418.968C838.003 421.386 838.677 424.009 838.677 426.633C838.677 435.709 832.262 440.351 825.179 440.351C810.839 440.351 811.343 427.845 808.81 415.133C808.135 411.904 807.46 408.68 806.614 405.651C806.277 404.239 806.105 403.027 804.59 403.027C797.501 403.027 790.245 403.227 783.162 403.227C782.15 403.227 781.304 403.027 780.463 403.027C779.114 403.027 778.776 403.833 778.439 405.245C777.764 408.874 777.09 412.304 776.415 415.939C774.22 427.839 777.427 442.568 761.567 442.568C755.661 442.568 748.406 439.545 748.406 431.068C748.406 411.904 753.975 392.539 758.531 374.38C761.058 364.092 763.763 353.604 766.29 343.316C767.976 336.457 768.314 325.563 773.711 321.328C776.581 319.11 779.954 318.098 783.327 318.098C790.749 318.098 799.022 322.739 804.419 328.792L804.43 328.798ZM789.582 358.451C789.073 360.268 785.026 376.81 785.026 377.415C785.026 379.433 786.375 380.645 787.896 380.645H796.5C798.021 380.645 799.199 379.433 799.199 377.621C799.199 375.198 793.802 360.88 792.452 358.056C792.115 357.451 791.778 356.445 791.103 356.445C790.257 356.445 789.754 357.656 789.582 358.462V358.451Z" fill="#FFD77C"/>
<path d="M105.991 595.994C106.871 594.519 107.798 592.456 109.09 589.655C117.283 590.438 127.7 592.278 140.164 595.159C152.793 598.046 160.1 599.423 161.941 599.429C168.653 599.469 173.736 596.399 172.415 589.735C171.741 586.328 166.178 583.642 155.509 581.356C145.006 579.07 131.971 577.521 116.397 576.686C114.716 576.675 113.378 576.669 112.509 576.515C113.143 575.486 114.321 572.977 116.042 568.993L120.479 559.265L125.264 548.799C129.546 539.952 132.405 534.945 136.739 527.286C141.221 519.478 144.943 514.62 148.871 509.916C153.102 505.057 156.824 502.72 160.18 502.743C162.696 502.76 164.394 504.543 165.091 508.093C165.943 512.391 165.263 517.409 162.862 523.016C160.455 528.612 158.099 533.624 155.429 537.9C152.759 542.169 151.61 544.827 151.816 545.862C152.319 548.376 154.394 549.571 158.082 549.594C162.278 549.617 169.402 544.198 175.285 536.694C181.169 529.189 185.422 518.575 183.696 509.841C181.546 499.039 173.45 493.666 159.363 493.586C149.471 493.529 140.758 496.873 134.149 501.565C127.54 506.252 121.062 514.934 116.625 522.153C114.516 525.834 112.206 530.258 109.713 535.413C107.386 540.575 105.448 545.141 103.893 549.131C102.509 553.109 100.594 557.824 98.4954 563.283L93.224 576.412C71.235 577.018 62.8305 583.619 64.7058 593.09C65.592 597.525 68.3077 601.092 72.6644 603.63C77.2154 606.316 82.0065 607.676 86.872 607.705C93.5785 607.745 98.3639 605.705 102.04 601.441C103.778 599.234 105.105 597.468 105.985 595.999M74.8655 594.485C74.4825 592.564 75.6603 590.941 78.5876 589.626C81.4805 588.169 85.1911 587.449 89.3534 587.323C86.8148 593.959 83.1329 597.337 78.4332 597.308C76.4264 597.297 75.2372 596.399 74.8655 594.479M363.833 566.204C370.528 561.957 373.392 556.95 372.243 551.183C370.568 542.747 363.118 538.111 353.221 538.054C342.684 537.991 331.307 543.587 323.274 553.441C320.387 553.766 316.493 553.446 311.376 552.446C311.908 550.08 311.999 548.011 311.622 546.084C310.741 541.649 307.957 539.409 303.423 539.38C299.741 539.357 296.785 540.523 294.401 542.878C291.988 545.079 291.119 547.439 291.588 549.811C292.263 553.212 295.476 555.898 301.393 557.847C298.42 565.661 293.961 572.737 288.038 579.201C282.126 585.671 276.563 588.889 271.532 588.86C268.85 588.843 267.244 587.506 266.712 584.842C266.152 582.03 268.37 576.28 273.144 567.444C277.889 558.447 279.982 552.103 279.25 548.411C278.278 543.524 273.939 539.363 268.404 539.329C262.532 539.294 256.409 544.73 249.022 552.223C245.397 555.893 242.373 558.39 240.155 559.859C240.235 559.413 240.057 558.522 239.852 557.487C239.411 555.27 238.417 553.635 237.039 552.595C239.28 544.478 232.539 537.494 220.63 537.42C208.389 537.345 197.423 542.009 188.069 551.412C178.682 560.671 174.914 570.405 176.881 580.327C179.025 591.13 190.093 599.617 202.334 599.692C210.379 599.737 217.926 596.382 224.786 589.626C231.819 582.865 236.558 575.503 238.863 567.684C248.331 564.792 254.854 556.253 258.445 552.429C261.378 549.491 263.287 549.8 263.665 551.726C263.807 552.463 262.601 554.824 260.177 558.648C257.758 562.477 255.311 567.044 252.984 572.205C250.823 577.366 250.029 581.796 250.823 585.797C252.699 595.268 258.342 600.029 267.558 600.086C275.945 600.137 284.121 595.754 292.28 587.077C300.41 578.258 306.11 568.976 309.506 559.088C312.788 559.631 315.893 559.854 318.849 559.825C315.132 566.678 313.914 573.84 315.395 581.304C317.659 592.696 327.402 600.446 340.649 600.526C349.368 600.578 357.778 597.377 366.074 591.072C374.37 584.762 380.585 577.263 384.781 568.867C385.936 567.101 384.736 564.432 381.883 564.415C381.048 564.415 379.578 565.438 377.669 567.644C367.16 582.213 356.189 589.386 344.788 589.318C338.082 589.278 333.719 585.854 332.633 580.378C331.958 576.972 332.124 573.577 333.068 569.885C346.972 571.593 357.132 570.467 363.827 566.221M229.532 568.821C228.194 572.211 224.689 576.475 218.777 581.316C213.043 586.157 207.468 588.489 202.277 588.46C197.749 588.432 194.902 585.905 193.907 580.87C192.46 573.617 195.462 565.946 202.906 557.864C210.51 549.783 217.743 545.684 224.786 545.724C228.977 545.747 231.43 547.982 231.424 550.497H231.087C227.233 550.474 224.14 551.777 221.956 554.281C219.778 556.778 218.903 559.139 219.372 561.505C220.281 566.095 224.192 568.93 229.532 568.816M335.029 564.569C337.521 559.413 341.192 555.144 346.029 551.623C350.826 547.954 354.834 546.21 358.19 546.227C360.871 546.245 362.506 547.736 363.067 550.543C363.861 554.538 361.717 558.07 356.8 561.151C351.884 564.22 344.565 565.363 335.034 564.569M430.886 621.468C434.579 613.061 438.307 605.693 442.104 599.509H442.441C458.204 599.606 470.725 596.874 479.981 591.164C489.232 585.454 493.314 579.864 492.228 574.388C490.85 567.432 483.171 562.511 477.483 560.848C474.818 560.088 472.554 559.631 470.708 559.619C456.62 559.533 443.173 571.13 432.464 588.072C424.991 586.694 420.852 583.568 419.829 578.389C418.216 570.245 421.584 563.614 430.006 558.79C438.399 553.812 449.044 550.92 461.92 549.965C467.563 549.703 470.096 548.096 469.478 544.987C468.895 542.021 466.414 540.535 462.051 540.506C459.707 540.495 456.38 540.62 452.28 541.038C448.175 541.455 445.019 541.586 442.835 541.575C438.639 541.552 436.198 540.197 435.7 537.688C434.791 533.099 439.216 528.395 448.919 523.285C458.793 518.175 469.027 515.717 479.93 515.786C486.133 515.826 489.495 516.729 489.849 518.506C490.055 519.541 489.112 520.718 487.065 522.187C485.172 523.651 484.298 525.125 484.561 526.457C484.909 528.24 487.419 529.875 490.604 529.892C495.469 529.921 501.587 527 500.295 520.49C499.266 515.311 492.817 509.807 481.811 507.521L485.738 500.302C489.558 493.38 491.279 489.397 491.01 488.065C490.661 486.293 487.814 483.761 483.617 483.732C480.095 483.71 474.75 491.369 467.209 506.544C453.71 506.909 442.281 510.093 433.036 515.803C423.951 521.513 419.983 527.691 421.309 534.356C422.482 540.277 427.616 545.039 433.184 546.113C426.684 547.102 418.691 549.868 410.492 554.99C402.568 559.825 397.565 568.364 399.441 577.835C401.527 588.34 411.761 595.205 426.913 598.103C423.894 603.996 421.435 610.191 419.514 616.536C418.325 620.668 420.12 623.783 423.842 624.841C426.141 625.446 429.628 624.429 430.88 621.486M476.259 568.25C478.443 568.261 479.65 569.302 480.067 571.376C480.621 574.188 477.911 577.423 472 581.379C466.219 585.18 458.815 587.506 449.793 588.483C460.005 574.949 468.718 568.204 476.259 568.25ZM540.122 521.33C532.832 527.64 526.921 534.99 522.558 543.392C518.368 551.789 516.99 560.065 518.545 567.907C523.828 594.542 548.218 605.19 567.16 605.304C586.444 605.419 602.27 599.903 614.768 588.592C616.918 586.729 618.896 584.814 620.8 582.876C620.88 583.562 620.926 584.254 621.063 584.934C623.378 596.634 630.639 601.995 638.695 602.041C644.567 602.075 649.907 599.446 653.292 597.102C654.875 595.782 656.842 593.873 658.826 591.221C660.781 588.426 662.245 586.511 662.988 585.185L667.071 578.71L667.431 578.864C661.753 593.313 668.986 601.938 679.054 601.995C688.099 602.052 698.436 592.69 710.082 574.08C710.134 574.011 710.174 573.92 710.225 573.851C710.837 572.874 711.449 571.885 712.072 570.85C712.141 570.742 712.169 570.628 712.226 570.513C717.652 561.768 721.243 555.624 723.084 552.143C730.368 550.863 735.244 550.148 738.04 549.868C736.72 552.526 734.112 557.093 730.007 563.426C726.068 569.759 722.855 575.503 720.362 580.659C717.869 585.814 716.983 589.804 717.601 592.913C718.893 599.423 724.433 602.858 731.305 602.898C741.945 602.961 751.127 596.182 760.595 583.282C760.635 583.522 760.658 583.762 760.71 584.008C762.974 595.399 772.716 603.15 785.963 603.23C794.682 603.281 803.093 600.08 811.388 593.776C819.684 587.466 825.905 579.967 830.096 571.571C831.251 569.804 830.05 567.135 827.203 567.118C826.368 567.118 824.893 568.141 822.989 570.348C812.48 584.917 801.509 592.09 790.108 592.021C783.402 591.981 779.04 588.558 777.948 583.082C777.273 579.675 777.439 576.28 778.382 572.588C792.287 574.297 802.446 573.171 809.141 568.924C815.836 564.678 818.701 559.671 817.552 553.904C815.877 545.467 808.427 540.832 798.53 540.775C785.958 540.7 772.11 548.605 764.283 562.3C762.739 565.106 761.636 567.964 760.944 570.873C750.607 584.814 742.734 591.884 737.16 591.85C735.313 591.838 734.324 591.095 734.038 589.615C733.392 586.357 739.624 574.72 752.905 554.698C754.421 552.195 755.015 550.131 754.632 548.199C753.957 544.799 751.791 543.158 748.103 543.135C744.244 543.112 737.24 544.107 727.389 545.964C727.274 545.376 727.68 544.044 727.389 542.569C726.651 538.866 724.118 537.077 719.756 537.054C713.215 537.014 708.236 542.306 709.328 547.788C709.945 550.891 713.341 552.84 715.354 552.852C712.804 557.716 709.225 563.311 704.96 569.639C704.948 569.656 704.942 569.667 704.931 569.69C694.823 583.631 687.327 590.518 682.479 590.489C680.632 590.478 679.449 589.586 679.1 587.809C678.597 585.288 680.975 579.544 686.287 570.85C691.764 562.163 694.48 557.299 694.668 556.567C696.446 551.989 693.393 548.428 687.356 548.388C684.84 548.371 682.885 548.657 681.518 549.388C679.477 543.312 674.166 540.18 665.281 540.129C652.869 540.055 641.96 545.016 632.423 555.155C628.981 558.739 626.329 562.311 624.39 565.878C616.769 574.88 607.25 581.962 598.153 585.843C586.85 590.501 577.234 592.661 569.852 592.616C563.312 592.576 557.48 591.067 552.003 587.929C546.691 584.791 543.261 579.31 541.763 571.754C540.036 563.02 542.009 553.566 547.898 543.552C553.752 533.39 561.471 525.005 571.047 518.409C580.79 511.813 590.006 508.475 598.731 508.527C601.584 508.544 603.299 509.59 603.682 511.51C604.3 514.62 602.773 518.747 599.303 524.051C595.798 529.195 594.128 532.59 594.449 534.213C594.917 536.579 596.833 537.774 600.189 537.791C605.049 537.82 609.948 535.482 614.74 530.932C619.531 526.377 621.44 521.661 620.503 516.929C618.742 508.047 608.936 500.005 589.657 499.891C582.111 499.845 573.803 501.868 564.735 505.949C555.633 509.887 547.44 515.008 540.151 521.324M791.366 554.315C796.163 550.646 800.171 548.902 803.527 548.919C806.208 548.937 807.844 550.428 808.404 553.235C809.193 557.23 807.049 560.762 802.132 563.843C797.215 566.912 789.903 568.056 780.366 567.261C782.859 562.106 786.535 557.836 791.366 554.315ZM670.381 548.862C674.406 548.885 676.853 550.228 677.876 552.892L677.276 554.075C664.704 577.646 652.634 589.404 640.891 589.335C638.878 589.323 637.666 588.278 637.226 586.06C636.077 580.287 639.616 572.765 647.929 563.209C656.253 553.652 663.669 548.822 670.375 548.862" fill="white"/>
<path d="M555.079 12.6478C555.079 17.4261 551.385 21.2956 546.834 21.2956C542.283 21.2956 538.59 17.4204 538.59 12.6478C538.59 7.87522 542.283 4 546.834 4C551.385 4 555.079 7.87522 555.079 12.6478Z" fill="white"/>
<path d="M738.535 684.489C738.535 691.942 732.777 699.784 725.671 699.784C718.564 699.784 711 691.936 711 684.489C711 677.041 718.564 671 725.671 671C732.777 671 738.535 677.041 738.535 684.489Z" fill="white"/>
<path d="M252.756 731.5C252.756 738.205 245.769 743.635 239.377 743.635C232.985 743.635 227.805 738.199 227.805 731.5C227.805 724.802 232.985 717.56 239.377 717.56C245.769 717.56 252.756 724.796 252.756 731.5Z" fill="white"/>
<path d="M47.6044 236.397L50.3087 249.578C50.6174 251.087 51.6523 252.35 53.0702 252.95L65.4655 258.197C69.0388 259.712 69.3247 264.667 65.9514 266.582L54.2423 273.223C52.9044 273.984 52.0239 275.355 51.8867 276.893L50.7261 290.302C50.3888 294.166 45.7691 295.972 42.899 293.354L32.9622 284.278C31.8245 283.237 30.2465 282.826 28.7485 283.174L15.6329 286.209C11.8537 287.084 8.70913 283.243 10.31 279.711L15.873 267.456C16.5076 266.05 16.4161 264.427 15.6214 263.107L8.68055 251.578C6.67947 248.252 9.36092 244.079 13.2144 244.514L26.5931 246.017C28.1253 246.188 29.6404 245.6 30.6524 244.434L39.4743 234.271C42.0185 231.339 46.8211 232.597 47.5987 236.403L47.6044 236.397Z" fill="white"/>
<path d="M680.045 27.6685L639.643 46.5284C638.721 46.9585 638.323 48.0537 638.753 48.9747L657.619 89.3648C658.049 90.2858 659.145 90.6838 660.066 90.2537L700.468 71.3938C701.389 70.9637 701.788 69.8685 701.357 68.9475L682.492 28.5574C682.062 27.6364 680.966 27.2384 680.045 27.6685Z" fill="white"/>
<path d="M597.07 700.779L556.668 719.639C555.747 720.069 555.349 721.164 555.779 722.085L574.645 762.475C575.075 763.396 576.17 763.794 577.092 763.364L617.494 744.504C618.415 744.074 618.813 742.979 618.383 742.058L599.517 701.668C599.087 700.747 597.992 700.349 597.07 700.779Z" fill="white"/>
<path d="M880.574 278.923L920.356 269.024C920.922 268.881 921.431 269.407 921.27 269.967L909.956 309.353C909.796 309.914 909.087 310.091 908.681 309.668L880.214 280.175C879.808 279.758 880.008 279.055 880.574 278.912V278.923Z" fill="white"/>
<path d="M447.719 62.0482L487.5 52.1487C488.066 52.0058 488.575 52.5316 488.415 53.0918L477.1 92.4784C476.94 93.0385 476.231 93.2157 475.825 92.7927L447.358 63.2999C446.952 62.8827 447.153 62.1797 447.719 62.0368V62.0482Z" fill="white"/>
<path d="M301.719 79.5553L272.138 74.6741L273.418 66.9065L296.968 70.7932L307.791 46.1415L334.354 50.5254L343.959 28.6688L351.169 31.8352L339.111 59.2876L312.542 54.9036L301.719 79.5553Z" fill="white"/>
<path d="M406.97 717.56L405.61 690.811L428.576 683.678L427.347 659.666L452.921 651.721L455.013 658.437L434.654 664.759L435.883 688.776L412.916 695.903L413.997 717.2L406.97 717.56Z" fill="white"/>
<g filter="url(#filter1_d_1_319)">
<path d="M79.7011 106.411C79.923 104.203 80.8282 102.45 82.4167 101.152C84.0137 99.7687 85.916 99.1881 88.1236 99.41C91.6047 99.7599 94.7974 99.5663 97.7017 98.8291C100.615 98.007 102.997 96.4884 104.849 94.2732C106.786 92.0666 107.951 89.0104 108.344 85.1048C108.634 82.218 108.168 79.5983 106.947 77.2456C105.81 74.9015 104.075 72.9689 101.741 71.4478C99.4915 69.9352 96.8385 69.0253 93.7819 68.718C91.4046 68.479 89.1119 68.6774 86.9039 69.313C84.7808 69.9572 82.7977 70.9157 80.9545 72.1884C79.4765 73.2405 77.7312 73.9655 75.7186 74.3636C73.7995 74.6852 71.9361 74.0262 70.1284 72.3865C68.2443 70.6533 67.324 68.7169 67.3676 66.5772C67.4112 64.4375 68.4141 62.5657 70.3763 60.962C73.7488 58.1278 77.558 56.0664 81.8042 54.778C86.1438 53.4133 90.6485 52.9656 95.3183 53.4351C101.177 54.024 106.304 55.9117 110.701 59.0981C115.191 62.2082 118.611 66.154 120.96 70.9357C123.31 75.7174 124.199 80.9525 123.627 86.6412C123.2 90.8864 122.183 94.6007 120.577 97.784C118.979 100.882 116.872 103.501 114.256 105.639C111.733 107.701 108.828 109.296 105.541 110.423C102.348 111.475 98.8962 112.114 95.1855 112.341C95.0072 112.409 94.8288 112.477 94.6505 112.545C94.5571 112.621 94.5018 112.744 94.4847 112.914L94.011 117.626C93.7891 119.834 92.8796 121.629 91.2826 123.012C89.6941 124.311 87.7961 124.849 85.5885 124.627C83.381 124.405 81.6281 123.5 80.3298 121.911C79.04 120.238 78.5061 118.297 78.728 116.09L79.7011 106.411ZM82.6599 147.36C80.1977 147.112 78.3513 146.284 77.1209 144.873C75.9839 143.387 75.5391 141.413 75.7867 138.95L76.0043 136.785C76.2518 134.323 77.0764 132.519 78.478 131.373C79.9731 130.152 81.9517 129.664 84.414 129.912L86.0696 130.078C88.5319 130.326 90.3315 131.193 91.4685 132.679C92.699 134.09 93.1905 136.026 92.9429 138.488L92.7253 140.653C92.4777 143.115 91.6065 144.957 90.1114 146.179C88.7098 147.325 86.7779 147.774 84.3156 147.526L82.6599 147.36Z" fill="white"/>
</g>
</g>
<defs>
<filter id="filter0_d_1_319" x="0" y="0" width="929.3" height="775.537" filterUnits="userSpaceOnUse" color-interpolation-filters="sRGB">
<feFlood flood-opacity="0" result="BackgroundImageFix"/>
<feColorMatrix in="SourceAlpha" type="matrix" values="0 0 0 0 0 0 0 0 0 0 0 0 0 0 0 0 0 0 127 0" result="hardAlpha"/>
<feOffset dy="4"/>
<feGaussianBlur stdDeviation="4"/>
<feComposite in2="hardAlpha" operator="out"/>
<feColorMatrix type="matrix" values="0 0 0 0 0 0 0 0 0 0 0 0 0 0 0 0 0 0 0.25 0"/>
<feBlend mode="normal" in2="BackgroundImageFix" result="effect1_dropShadow_1_319"/>
<feBlend mode="normal" in="SourceGraphic" in2="effect1_dropShadow_1_319" result="shape"/>
</filter>
<filter id="filter1_d_1_319" x="55.226" y="50.7592" width="75.4224" height="108.07" filterUnits="userSpaceOnUse" color-interpolation-filters="sRGB">
<feFlood flood-opacity="0" result="BackgroundImageFix"/>
<feColorMatrix in="SourceAlpha" type="matrix" values="0 0 0 0 0 0 0 0 0 0 0 0 0 0 0 0 0 0 127 0" result="hardAlpha"/>
<feOffset dy="4"/>
<feGaussianBlur stdDeviation="2"/>
<feComposite in2="hardAlpha" operator="out"/>
<feColorMatrix type="matrix" values="0 0 0 0 0 0 0 0 0 0 0 0 0 0 0 0 0 0 0.25 0"/>
<feBlend mode="normal" in2="BackgroundImageFix" result="effect1_dropShadow_1_319"/>
<feBlend mode="normal" in="SourceGraphic" in2="effect1_dropShadow_1_319" result="shape"/>
</filter>
</defs>
</svg>
