<svg width="866" height="265" viewBox="0 0 866 265" fill="none" xmlns="http://www.w3.org/2000/svg">
<g filter="url(#filter0_d_1_191)">
<path d="M141.225 139.805C137.417 147.766 129.887 152.778 122.192 152.778C114.497 152.778 107.048 147.373 104.067 138.53C103.321 136.269 102.66 133.716 102.66 131.257C102.66 126.54 105.722 124.477 109.362 124.477C111.347 124.477 113.583 125.262 114.906 127.13C116.314 129.194 115.818 131.945 116.314 134.303C117.06 137.547 119.211 141.479 122.355 141.479C130.549 141.479 131.376 125.164 131.376 118.287C131.376 108.853 130.63 99.3192 130.63 89.8855C130.63 83.6929 132.45 80.1566 138.079 80.1566C141.388 80.1566 144.369 81.9247 144.369 86.3492C144.369 88.0199 144.038 89.5931 144.038 91.2638C144.038 100.305 144.619 109.346 144.619 118.387C144.619 125.365 144.206 133.621 141.225 139.811V139.805Z" fill="#FE97DC"/>
<path d="M175.311 87.4215C178.909 87.4215 182.51 88.3958 186.028 89.4666C196.417 92.6819 202.715 102.325 202.715 115.181C202.715 131.74 192.326 147.13 177.847 147.13C163.369 147.13 155.108 133.2 155.108 117.03C155.108 102.808 161.897 87.4188 175.314 87.4188L175.311 87.4215ZM182.92 100.181C181.365 99.4989 179.649 99.303 177.931 99.303C176.866 99.303 175.885 98.9138 174.82 98.9138C174.33 98.9138 173.839 99.0104 173.429 99.3996C169.337 102.907 168.112 111.088 168.112 116.641C168.112 118.785 168.192 121.024 168.522 123.069C169.34 128.036 173.102 136.509 178.011 136.509C179.319 136.509 180.547 135.924 181.609 135.049C187.173 130.86 189.87 122.58 189.87 114.982C189.87 109.137 187.907 102.416 182.917 100.175L182.92 100.181Z" fill="#FFD77C"/>
<path d="M228.712 116.939C234.773 115.063 242.663 114.275 248.972 114.275C252.293 114.275 256.114 115.063 256.612 119.8C256.778 121.38 256.778 122.957 256.778 124.536C256.778 128.781 256.364 133.221 255.118 137.169C252.211 146.345 245.32 151.971 237.016 151.971C232.117 151.971 227.133 149.899 223.396 146.049C216.837 139.338 214.012 129.667 214.012 119.601C214.012 105.392 220.073 83.3842 234.523 83.3842C237.263 83.3842 239.838 84.1727 242.244 85.5567C244.236 86.6416 247.059 88.6156 247.059 91.5766C247.059 95.5246 243.24 97.1016 240.499 97.1016C237.345 97.1016 235.516 94.7333 234.852 94.7333C234.103 94.7333 233.358 96.2124 232.941 96.8052C229.536 102.134 227.71 108.943 227.128 115.555V115.852C227.128 116.64 227.46 117.037 228.042 117.037C228.293 117.037 228.459 117.037 228.706 116.939H228.712ZM228.214 128.881C229.376 133.224 232.367 141.019 236.85 141.019C241.749 141.019 243.575 132.237 243.575 127.696C243.575 126.709 242.827 126.217 242.162 126.217H241.83C238.673 126.809 235.603 127.696 232.446 127.696C231.284 127.696 230.122 127.399 229.041 127.399C228.543 127.399 228.127 127.598 228.127 128.188C228.127 128.484 228.127 128.683 228.208 128.879L228.214 128.881Z" fill="#74EAB8"/>
<path d="M288.277 87.4215C291.875 87.4215 295.476 88.3958 298.994 89.4666C309.384 92.6819 315.682 102.325 315.682 115.181C315.682 131.74 305.292 147.13 290.814 147.13C276.335 147.13 268.074 133.2 268.074 117.03C268.074 102.808 274.863 87.4188 288.28 87.4188L288.277 87.4215ZM295.886 100.181C294.331 99.4989 292.615 99.303 290.897 99.303C289.832 99.303 288.851 98.9138 287.787 98.9138C287.296 98.9138 286.805 99.0104 286.395 99.3996C282.303 102.907 281.078 111.088 281.078 116.641C281.078 118.785 281.159 121.024 281.486 123.069C282.303 128.036 286.068 136.509 290.974 136.509C292.283 136.509 293.511 135.924 294.573 135.049C300.136 130.86 302.833 122.58 302.833 114.982C302.833 109.137 300.871 102.416 295.881 100.175L295.886 100.181Z" fill="#29DEF6"/>
<path d="M361.349 84.194C377.47 84.194 387.496 99.7249 387.496 118.025C387.496 136.325 377.388 151.164 361.434 151.164C359.512 151.164 357.508 150.965 355.586 150.472C352.246 149.58 350.157 148 349.823 143.647C349.489 138.899 349.07 134.248 348.654 129.5C347.986 122.378 347.151 115.354 347.151 108.134C347.151 104.672 347.318 99.823 348.238 96.4595C348.49 95.6691 348.739 95.173 348.739 94.3826C348.739 93.096 348.071 92.1066 348.071 90.8201C348.071 85.3796 358.012 84.1912 361.352 84.1912L361.349 84.194ZM365.024 139.594C371.956 136.23 374.297 126.042 374.297 117.93C374.297 110.808 372.542 102.399 367.532 97.847C366.363 96.7595 364.942 95.8681 363.438 95.571C362.686 95.9662 361.601 97.0538 361.267 98.0432C360.432 100.616 360.347 104.078 360.347 106.749C360.347 117.235 361.601 127.524 362.603 137.909C362.686 138.8 363.022 139.986 363.94 139.986C364.107 139.986 364.86 139.689 365.027 139.591L365.024 139.594Z" fill="#FFD77C"/>
<path d="M425.529 92.621C434.903 102.723 437.556 122.831 441.702 136.462C442.034 137.638 442.366 138.913 442.366 140.189C442.366 144.602 439.212 146.858 435.729 146.858C428.68 146.858 428.927 140.778 427.682 134.597C427.35 133.027 427.019 131.46 426.603 129.987C426.437 129.301 426.353 128.712 425.608 128.712C422.122 128.712 418.555 128.809 415.073 128.809C414.575 128.809 414.159 128.712 413.746 128.712C413.083 128.712 412.917 129.103 412.751 129.79C412.419 131.554 412.088 133.222 411.756 134.989C410.677 140.775 412.254 147.936 404.456 147.936C401.553 147.936 397.986 146.466 397.986 142.345C397.986 133.027 400.724 123.612 402.964 114.783C404.206 109.781 405.536 104.682 406.778 99.6796C407.607 96.3448 407.773 91.0481 410.427 88.9889C411.838 87.9106 413.496 87.4188 415.154 87.4188C418.803 87.4188 422.87 89.6753 425.523 92.6182L425.529 92.621ZM418.229 107.038C417.979 107.922 415.989 115.964 415.989 116.259C415.989 117.24 416.652 117.829 417.4 117.829H421.63C422.378 117.829 422.957 117.24 422.957 116.359C422.957 115.181 420.304 108.219 419.64 106.847C419.475 106.552 419.309 106.063 418.977 106.063C418.561 106.063 418.314 106.652 418.229 107.044V107.038Z" fill="#FE97DC"/>
<path d="M515.031 95.6325C517.716 105.058 520.476 123.121 523.313 135.894C523.983 138.802 525.477 139.241 525.477 143.03C525.477 147.611 523.09 149.55 519.435 149.55C515.405 149.55 514.288 147.788 513.244 143.911C510.858 134.66 509.29 123.385 507.053 114.309C506.828 113.515 506.307 113.076 506.009 114.222C504.369 118.45 503.623 122.591 501.906 127.262C501.011 129.728 499.073 130.257 496.909 130.257C496.461 130.257 496.087 130.257 495.64 130.17C491.984 129.466 490.864 125.677 489.3 122.242C487.583 118.543 486.168 114.579 484.451 110.789C484.153 110.085 483.407 109.821 483.407 110.967C483.109 112.994 483.033 115.108 482.884 117.135C482.51 122.244 481.989 126.825 481.615 131.847C481.317 135.547 480.869 139.159 480.123 142.771C479.676 144.885 479.302 146.47 477.512 147.528C476.468 148.145 475.275 148.41 474.155 148.41C471.619 148.41 468.187 146.999 468.187 143.477C468.187 143.038 468.26 142.596 468.336 142.157C469.081 138.984 469.456 135.988 469.754 132.731C470.649 121.278 472.14 101.191 476.17 92.2052C477.14 90.0036 479.378 89.0325 481.541 89.0325C483.705 89.0325 485.867 90.2657 487.285 92.2926C490.791 97.1377 493.028 102.864 495.564 108.503C495.938 109.471 496.535 109.561 496.982 108.503C498.473 104.978 502.427 94.7588 504.664 92.6445C505.784 91.5861 507.202 90.9696 508.618 90.9696C511.303 90.9696 514.212 92.7319 515.034 95.64L515.031 95.6325Z" fill="#74EAB8"/>
<path d="M562.679 144.142C560.205 149.736 551.177 150.357 546.595 150.357H543.319C536.114 150.357 536.622 138.905 536.257 132.781C536.04 129.229 535.966 125.68 535.966 122.129C535.966 112.986 536.548 103.665 537.496 94.6098C537.861 91.4129 539.316 89.0159 541.864 88.04C543.247 87.5068 544.631 87.4188 546.086 87.4188C547.396 87.4188 548.78 87.5068 550.161 87.5068C553.072 87.5068 555.985 87.6854 559.115 87.6854C561.371 87.6854 564.208 88.8399 564.208 92.2128C564.208 98.2493 553.654 97.2734 550.307 97.54C549.359 97.628 548.632 98.3399 548.486 99.4918C548.195 101.622 547.759 108.192 547.759 110.41C547.759 111.477 548.341 112.365 549.288 112.365H553.072C554.527 112.365 555.982 112.186 557.511 112.186C559.914 112.186 562.898 113.517 562.898 117.068C562.898 121.95 557.44 122.305 554.601 122.305H551.907C550.452 122.305 547.468 121.596 547.468 124.347C547.468 128.696 547.759 132.957 548.124 137.22V137.753C548.124 138.908 547.904 140.417 549.214 140.417C552.124 140.417 554.527 137.399 557.44 137.399C559.623 137.399 563.118 138.996 563.118 142.193C563.118 142.902 562.972 143.523 562.681 144.147L562.679 144.142Z" fill="#FFD77C"/>
<path d="M622.35 95.6325C625.034 105.058 627.795 123.121 630.631 135.894C631.301 138.802 632.795 139.241 632.795 143.03C632.795 147.611 630.409 149.55 626.753 149.55C622.724 149.55 621.607 147.788 620.563 143.911C618.176 134.66 616.609 123.385 614.372 114.309C614.147 113.515 613.626 113.076 613.328 114.222C611.688 118.45 610.942 122.591 609.226 127.262C608.331 129.728 606.392 130.257 604.228 130.257C603.781 130.257 603.407 130.257 602.959 130.17C599.304 129.466 598.184 125.677 596.617 122.242C594.9 118.543 593.485 114.579 591.769 110.789C591.47 110.085 590.725 109.821 590.725 110.967C590.426 112.994 590.35 115.108 590.201 117.135C589.827 122.244 589.306 126.825 588.932 131.847C588.634 135.547 588.187 139.159 587.441 142.771C586.993 144.885 586.619 146.47 584.83 147.528C583.786 148.145 582.593 148.41 581.473 148.41C578.937 148.41 575.505 146.999 575.505 143.477C575.505 143.038 575.58 142.596 575.654 142.157C576.399 138.984 576.771 135.988 577.072 132.731C577.967 121.278 579.458 101.191 583.487 92.2052C584.458 90.0036 586.695 89.0325 588.859 89.0325C591.023 89.0325 593.187 90.2657 594.602 92.2926C598.108 97.1377 600.345 102.864 602.883 108.503C603.257 109.471 603.854 109.561 604.301 108.503C605.793 104.978 609.746 94.7588 611.983 92.6445C613.103 91.5861 614.521 90.9696 615.937 90.9696C618.621 90.9696 621.531 92.7319 622.352 95.64L622.35 95.6325Z" fill="#FE97DC"/>
<path d="M660.972 91.7902C664.265 91.7902 667.561 92.6668 670.778 93.6304C680.287 96.5235 686.051 105.2 686.051 116.768C686.051 131.668 676.542 145.516 663.291 145.516C650.041 145.516 642.478 132.982 642.478 118.432C642.478 105.635 648.691 91.7877 660.97 91.7877L660.972 91.7902ZM667.934 103.271C666.513 102.657 664.94 102.481 663.367 102.481C662.393 102.481 661.495 102.131 660.523 102.131C660.074 102.131 659.625 102.218 659.25 102.568C655.505 105.724 654.384 113.085 654.384 118.082C654.384 120.011 654.46 122.025 654.759 123.866C655.508 128.336 658.953 135.96 663.443 135.96C664.641 135.96 665.765 135.433 666.736 134.646C671.828 130.876 674.297 123.426 674.297 116.589C674.297 111.329 672.501 105.282 667.934 103.266V103.271ZM666.736 82.4105C663.966 84.2507 660.747 87.8441 657.454 85.0404C653.709 81.9734 659.849 78.5538 661.721 77.327C664.491 75.4868 667.711 71.9803 671.004 74.6971C674.748 77.8535 668.609 81.1837 666.736 82.4105Z" fill="#FFD77C"/>
<path d="M719.906 125.428C722.445 128.523 724.04 132.503 726.435 135.775C727.885 137.722 730.134 137.898 731.004 140.639C732.31 144.531 727.814 146.919 725.201 146.919C717.438 146.919 711.636 131.53 710.186 131.53C709.822 131.53 709.822 132.237 709.822 132.503C709.822 136.307 709.896 140.198 709.751 144C709.68 146.3 709.532 148.332 707.792 149.748C706.558 150.721 705.107 151.164 703.657 151.164C700.029 151.164 698.072 148.864 698.072 144.443C698.072 139.579 698.217 132.415 698.072 127.285C697.853 115.876 697.347 105.795 697.347 94.3852C697.347 93.5006 697.421 92.6161 697.782 91.8192C699.596 87.6619 707.502 85.805 710.985 85.805C719.979 85.805 727.742 92.8792 727.742 104.466C727.742 112.072 724.694 118.439 719.979 123.216C719.689 123.481 719.399 123.835 719.399 124.276C719.399 124.807 719.689 125.16 719.908 125.426L719.906 125.428ZM711.128 95.6231C710.112 95.6231 708.807 95.8011 708.807 97.3046L708.952 103.76C709.023 107.739 709.171 111.809 709.387 115.788C709.458 116.495 709.677 117.114 710.329 117.114C710.547 117.114 710.692 117.026 710.909 116.936C714.245 114.726 716.349 110.037 716.349 105.439C716.349 101.547 715.043 95.6206 711.125 95.6206L711.128 95.6231Z" fill="#29DEF6"/>
<path d="M744.407 107.323C744.834 104.588 747.255 103.618 749.25 103.618C751.885 103.618 755.302 105.293 755.302 109.088C755.302 116.323 754.66 122.5 754.66 129.735C754.66 131.853 754.161 135.735 755.087 137.94C755.302 138.47 755.444 138.91 755.444 139.528C755.444 140.323 755.229 141.115 755.017 141.91C754.091 144.998 752.025 146.323 749.392 146.323C744.48 146.323 743.341 142.793 743.341 137.41C743.341 135.998 743.413 134.588 743.413 133.175C743.413 124.618 743.056 115.793 744.41 107.323H744.407ZM743.98 90.6455C743.98 86.8505 746.9 84.998 749.605 84.998C752.31 84.998 755.302 86.8505 755.302 90.6455C755.302 94.4405 752.382 96.3805 749.605 96.3805C746.827 96.3805 743.98 94.528 743.98 90.6455Z" fill="#74EAB8"/>
<path d="M789.665 96.1006C798.017 105.125 800.381 123.088 804.074 135.265C804.37 136.315 804.665 137.455 804.665 138.594C804.665 142.537 801.856 144.553 798.753 144.553C792.472 144.553 792.693 139.121 791.583 133.6C791.288 132.197 790.992 130.797 790.622 129.481C790.474 128.868 790.399 128.341 789.735 128.341C786.63 128.341 783.452 128.428 780.35 128.428C779.907 128.428 779.536 128.341 779.168 128.341C778.577 128.341 778.429 128.692 778.281 129.305C777.986 130.881 777.69 132.371 777.395 133.95C776.433 139.118 777.838 145.516 770.892 145.516C768.305 145.516 765.127 144.202 765.127 140.521C765.127 132.197 767.566 123.786 769.562 115.899C770.669 111.43 771.853 106.875 772.96 102.406C773.699 99.4272 773.846 94.6955 776.21 92.8559C777.467 91.8927 778.945 91.4532 780.422 91.4532C783.673 91.4532 787.296 93.4691 789.66 96.0981L789.665 96.1006ZM783.162 108.98C782.939 109.77 781.166 116.954 781.166 117.217C781.166 118.094 781.757 118.62 782.423 118.62H786.192C786.858 118.62 787.374 118.093 787.374 117.307C787.374 116.254 785.01 110.035 784.419 108.809C784.271 108.546 784.124 108.109 783.828 108.109C783.457 108.109 783.237 108.635 783.162 108.985V108.98Z" fill="#FFD77C"/>
<path d="M247.106 230.048C247.608 229.204 248.136 228.023 248.873 226.421C253.547 226.869 259.488 227.922 266.598 229.57C273.801 231.222 277.969 232.01 279.019 232.014C282.848 232.037 285.747 230.28 284.994 226.466C284.609 224.517 281.436 222.98 275.351 221.672C269.36 220.363 261.924 219.477 253.041 218.999C252.082 218.993 251.319 218.99 250.824 218.901C251.186 218.313 251.857 216.877 252.839 214.597L255.37 209.03L258.099 203.042C260.542 197.979 262.172 195.113 264.644 190.731C267.201 186.263 269.324 183.483 271.564 180.791C273.978 178.011 276.101 176.673 278.015 176.686C279.45 176.696 280.418 177.717 280.816 179.748C281.302 182.207 280.914 185.079 279.544 188.288C278.171 191.49 276.828 194.358 275.305 196.804C273.782 199.248 273.126 200.769 273.244 201.361C273.531 202.8 274.715 203.483 276.818 203.496C279.212 203.509 283.275 200.409 286.631 196.114C289.986 191.82 292.413 185.746 291.428 180.749C290.202 174.567 285.584 171.492 277.549 171.447C271.907 171.414 266.937 173.327 263.167 176.013C259.397 178.695 255.702 183.663 253.172 187.794C251.968 189.9 250.651 192.432 249.229 195.382C247.902 198.335 246.796 200.948 245.909 203.231C245.12 205.508 244.027 208.206 242.831 211.33L239.824 218.842C227.282 219.189 222.488 222.967 223.557 228.386C224.063 230.924 225.612 232.965 228.097 234.418C230.693 235.955 233.426 236.733 236.201 236.75C240.026 236.773 242.756 235.605 244.853 233.165C245.844 231.902 246.6 230.892 247.103 230.051M229.352 229.184C229.134 228.086 229.806 227.157 231.475 226.404C233.126 225.57 235.242 225.158 237.616 225.086C236.168 228.884 234.068 230.817 231.387 230.8C230.243 230.794 229.564 230.28 229.352 229.181M394.176 213.001C397.995 210.571 399.628 207.706 398.973 204.406C398.017 199.578 393.768 196.925 388.123 196.893C382.113 196.857 375.623 200.059 371.042 205.697C369.395 205.884 367.174 205.701 364.255 205.128C364.558 203.774 364.611 202.59 364.395 201.488C363.893 198.95 362.305 197.668 359.719 197.652C357.619 197.638 355.933 198.306 354.573 199.653C353.197 200.912 352.701 202.263 352.968 203.621C353.353 205.567 355.186 207.104 358.561 208.219C356.865 212.69 354.322 216.739 350.943 220.439C347.571 224.141 344.398 225.982 341.528 225.966C339.999 225.956 339.083 225.191 338.779 223.667C338.46 222.058 339.725 218.767 342.448 213.711C345.155 208.563 346.348 204.932 345.931 202.819C345.377 200.023 342.901 197.642 339.745 197.622C336.395 197.603 332.903 200.713 328.689 205.001C326.622 207.101 324.897 208.53 323.631 209.37C323.677 209.115 323.576 208.605 323.459 208.013C323.207 206.744 322.64 205.809 321.854 205.213C323.132 200.569 319.288 196.572 312.495 196.53C305.513 196.487 299.258 199.156 293.923 204.536C288.568 209.835 286.419 215.405 287.541 221.083C288.763 227.265 295.077 232.122 302.059 232.164C306.647 232.19 310.952 230.27 314.865 226.404C318.877 222.535 321.58 218.322 322.894 213.848C328.295 212.193 332.016 207.307 334.064 205.119C335.737 203.437 336.826 203.614 337.041 204.716C337.123 205.138 336.435 206.489 335.052 208.677C333.672 210.868 332.277 213.482 330.949 216.435C329.717 219.389 329.263 221.923 329.717 224.213C330.786 229.633 334.005 232.357 339.262 232.39C344.046 232.419 348.709 229.911 353.363 224.946C358 219.899 361.252 214.587 363.189 208.929C365.061 209.24 366.831 209.367 368.517 209.351C366.398 213.272 365.703 217.371 366.548 221.642C367.839 228.161 373.396 232.596 380.952 232.642C385.925 232.671 390.722 230.839 395.454 227.232C400.186 223.621 403.731 219.33 406.125 214.525C406.783 213.514 406.099 211.987 404.471 211.977C403.995 211.977 403.157 212.563 402.068 213.825C396.074 222.162 389.816 226.267 383.313 226.228C379.488 226.205 377 224.246 376.38 221.112C375.995 219.163 376.09 217.22 376.628 215.107C384.559 216.085 390.354 215.441 394.173 213.011M317.572 214.499C316.809 216.439 314.81 218.878 311.438 221.649C308.167 224.419 304.988 225.753 302.026 225.737C299.444 225.721 297.82 224.275 297.252 221.394C296.427 217.243 298.139 212.854 302.385 208.229C306.722 203.604 310.848 201.259 314.865 201.282C317.256 201.295 318.655 202.574 318.652 204.013H318.459C316.261 204 314.497 204.746 313.251 206.178C312.009 207.608 311.51 208.958 311.777 210.312C312.296 212.939 314.526 214.561 317.572 214.496M377.746 212.066C379.168 209.115 381.262 206.672 384.021 204.657C386.757 202.558 389.043 201.56 390.957 201.57C392.487 201.58 393.419 202.433 393.739 204.039C394.192 206.325 392.969 208.347 390.165 210.11C387.36 211.866 383.186 212.52 377.75 212.066M432.422 244.625C434.529 239.814 436.655 235.598 438.821 232.059H439.013C448.004 232.115 455.146 230.552 460.425 227.284C465.702 224.017 468.03 220.818 467.411 217.685C466.625 213.704 462.245 210.888 459 209.936C457.481 209.501 456.189 209.24 455.136 209.233C447.101 209.184 439.43 215.82 433.322 225.515C429.06 224.726 426.699 222.937 426.115 219.974C425.196 215.313 427.116 211.519 431.92 208.759C436.707 205.91 442.78 204.255 450.124 203.709C453.342 203.558 454.787 202.639 454.435 200.86C454.102 199.163 452.687 198.312 450.199 198.296C448.862 198.289 446.964 198.361 444.625 198.6C442.284 198.839 440.484 198.914 439.238 198.908C436.844 198.894 435.452 198.119 435.168 196.683C434.65 194.057 437.174 191.365 442.708 188.441C448.34 185.517 454.177 184.111 460.396 184.15C463.934 184.173 465.852 184.69 466.054 185.707C466.172 186.299 465.633 186.973 464.466 187.813C463.387 188.651 462.888 189.494 463.038 190.256C463.237 191.277 464.668 192.212 466.485 192.222C469.26 192.239 472.749 190.567 472.012 186.842C471.425 183.879 467.747 180.729 461.469 179.421L463.709 175.29C465.888 171.329 466.869 169.049 466.716 168.287C466.517 167.273 464.893 165.824 462.5 165.808C460.491 165.795 457.442 170.178 453.14 178.861C445.441 179.071 438.922 180.892 433.648 184.16C428.467 187.427 426.203 190.963 426.96 194.777C427.628 198.165 430.557 200.89 433.733 201.504C430.025 202.07 425.466 203.653 420.79 206.584C416.27 209.351 413.416 214.237 414.486 219.657C415.676 225.668 421.514 229.597 430.156 231.255C428.434 234.627 427.032 238.172 425.936 241.803C425.258 244.168 426.282 245.95 428.405 246.555C429.716 246.902 431.705 246.32 432.419 244.635M458.303 214.172C459.548 214.178 460.236 214.774 460.474 215.961C460.791 217.57 459.245 219.421 455.873 221.685C452.576 223.86 448.353 225.191 443.207 225.75C449.031 218.005 454.001 214.146 458.303 214.172ZM494.729 187.323C490.571 190.934 487.199 195.14 484.711 199.948C482.321 204.752 481.535 209.488 482.422 213.976C485.435 229.217 499.347 235.31 510.151 235.376C521.151 235.441 530.178 232.285 537.306 225.812C538.533 224.746 539.661 223.65 540.747 222.542C540.793 222.934 540.819 223.33 540.897 223.719C542.218 230.414 546.359 233.482 550.954 233.508C554.303 233.528 557.349 232.023 559.28 230.682C560.183 229.927 561.305 228.834 562.437 227.317C563.552 225.717 564.387 224.622 564.811 223.863L567.139 220.157L567.345 220.246C564.106 228.514 568.232 233.449 573.974 233.482C579.133 233.515 585.03 228.157 591.672 217.508C591.702 217.469 591.725 217.416 591.754 217.377C592.103 216.818 592.452 216.252 592.807 215.66C592.846 215.598 592.863 215.533 592.895 215.467C595.99 210.463 598.038 206.947 599.088 204.955C603.243 204.222 606.025 203.814 607.619 203.653C606.866 205.174 605.379 207.787 603.037 211.411C600.791 215.035 598.958 218.322 597.536 221.273C596.114 224.223 595.609 226.506 595.961 228.285C596.698 232.01 599.858 233.976 603.778 233.999C609.847 234.035 615.084 230.156 620.484 222.774C620.507 222.911 620.52 223.049 620.55 223.189C621.841 229.708 627.398 234.143 634.954 234.189C639.927 234.218 644.724 232.386 649.456 228.779C654.188 225.168 657.736 220.877 660.127 216.072C660.785 215.062 660.101 213.534 658.477 213.524C658 213.524 657.159 214.11 656.073 215.372C650.079 223.709 643.821 227.814 637.318 227.775C633.493 227.752 631.005 225.793 630.382 222.659C629.997 220.71 630.092 218.767 630.63 216.654C638.561 217.632 644.356 216.988 648.175 214.558C651.993 212.128 653.627 209.263 652.972 205.962C652.016 201.135 647.767 198.482 642.122 198.45C634.951 198.407 627.052 202.93 622.588 210.767C621.707 212.373 621.078 214.008 620.683 215.673C614.787 223.65 610.297 227.696 607.117 227.677C606.064 227.67 605.5 227.245 605.337 226.398C604.968 224.534 608.523 217.874 616.098 206.417C616.962 204.985 617.302 203.804 617.083 202.698C616.698 200.752 615.462 199.813 613.359 199.8C611.158 199.787 607.163 200.356 601.544 201.419C601.479 201.083 601.71 200.32 601.544 199.477C601.123 197.357 599.679 196.333 597.19 196.32C593.46 196.298 590.619 199.326 591.242 202.463C591.594 204.239 593.531 205.354 594.679 205.361C593.225 208.144 591.183 211.346 588.751 214.967C588.744 214.976 588.741 214.983 588.734 214.996C582.969 222.973 578.693 226.915 575.928 226.898C574.874 226.892 574.199 226.381 574 225.364C573.714 223.922 575.07 220.635 578.1 215.66C581.224 210.689 582.773 207.905 582.88 207.487C583.895 204.867 582.153 202.829 578.71 202.806C577.275 202.796 576.159 202.96 575.38 203.379C574.216 199.902 571.186 198.109 566.118 198.08C559.038 198.038 552.816 200.876 547.377 206.679C545.414 208.729 543.9 210.774 542.795 212.815C538.448 217.966 533.018 222.018 527.83 224.239C521.382 226.905 515.897 228.141 511.687 228.115C507.956 228.092 504.63 227.229 501.506 225.433C498.476 223.637 496.52 220.501 495.665 216.177C494.68 211.179 495.805 205.769 499.164 200.039C502.504 194.224 506.906 189.426 512.369 185.651C517.926 181.877 523.182 179.967 528.159 179.996C529.786 180.006 530.765 180.605 530.983 181.704C531.335 183.483 530.465 185.844 528.485 188.88C526.486 191.823 525.534 193.766 525.716 194.695C525.984 196.049 527.076 196.732 528.991 196.742C531.762 196.759 534.557 195.421 537.29 192.817C540.023 190.211 541.112 187.512 540.577 184.804C539.573 179.722 533.98 175.12 522.984 175.054C518.679 175.028 513.94 176.186 508.768 178.521C503.577 180.775 498.903 183.705 494.746 187.319M638.036 206.198C640.772 204.098 643.058 203.101 644.972 203.11C646.502 203.12 647.434 203.974 647.754 205.58C648.204 207.866 646.981 209.887 644.176 211.65C641.372 213.407 637.201 214.061 631.761 213.606C633.183 210.656 635.28 208.213 638.036 206.198ZM569.027 203.078C571.323 203.091 572.719 203.859 573.303 205.384L572.96 206.061C565.789 219.549 558.905 226.277 552.206 226.238C551.059 226.231 550.367 225.632 550.116 224.363C549.461 221.06 551.479 216.756 556.221 211.287C560.969 205.819 565.199 203.055 569.024 203.078" fill="white"/>
<path d="M707.588 200.155L748.297 190.024C748.876 189.878 749.397 190.416 749.233 190.989L737.655 231.295C737.491 231.868 736.765 232.049 736.35 231.617L707.219 201.436C706.804 201.009 707.008 200.289 707.588 200.143V200.155Z" fill="white"/>
<path d="M811.272 242.074L781 237.079L782.311 229.13L806.41 233.107L817.485 207.88L844.668 212.367L854.497 190L861.875 193.24L849.536 221.333L822.347 216.847L811.272 242.074Z" fill="white"/>
<path d="M147.464 185.784L145.446 195.584C145.215 196.706 144.443 197.645 143.384 198.092L134.132 201.993C131.465 203.119 131.251 206.804 133.769 208.228L142.509 213.166C143.508 213.731 144.165 214.751 144.268 215.894L145.134 225.865C145.386 228.738 148.834 230.081 150.976 228.134L158.394 221.385C159.243 220.612 160.421 220.306 161.539 220.565L171.329 222.822C174.15 223.472 176.497 220.616 175.302 217.99L171.15 208.878C170.676 207.832 170.744 206.625 171.338 205.644L176.519 197.072C178.012 194.598 176.011 191.496 173.134 191.819L163.148 192.936C162.004 193.064 160.873 192.626 160.118 191.759L153.533 184.203C151.634 182.023 148.049 182.958 147.468 185.788L147.464 185.784Z" fill="white"/>
<path d="M39.3925 256.375L38 229.001L61.5025 221.702L60.2446 197.13L86.4151 189L88.5564 195.873L67.7219 202.342L68.9798 226.919L45.4773 234.213L46.5831 256.006L39.3925 256.375Z" fill="white"/>
<g filter="url(#filter1_d_1_191)">
<path d="M44.7418 84.263C45.3937 82.7321 46.4333 81.6792 47.8606 81.1044C49.3129 80.4707 50.8046 80.4798 52.3356 81.1317C54.7499 82.1597 57.079 82.7341 59.3231 82.8549C61.5922 82.9168 63.6372 82.3616 65.458 81.1892C67.3377 80.0419 68.8543 78.114 70.0076 75.4053C70.8601 73.4032 71.1118 71.4236 70.7627 69.4664C70.4724 67.5342 69.6615 65.7629 68.33 64.1526C67.0573 62.5672 65.3611 61.3233 63.2413 60.4206C61.5925 59.7186 59.9067 59.3486 58.1839 59.3106C56.5199 59.2977 54.886 59.541 53.2821 60.0406C51.9889 60.4638 50.5774 60.5932 49.0475 60.4287C47.6016 60.2304 46.4147 59.3424 45.4866 57.7646C44.5247 56.103 44.2982 54.511 44.8073 52.9888C45.3163 51.4665 46.4524 50.3504 48.2155 49.6403C51.2631 48.3643 54.4508 47.7391 57.7787 47.765C61.1905 47.757 64.5158 48.4425 67.7544 49.8215C71.8174 51.5515 75.0671 54.0482 77.5033 57.3115C80.0236 60.541 81.5909 64.1299 82.2052 68.0782C82.8195 72.0264 82.2867 75.9732 80.6068 79.9184C79.3531 82.8626 77.7958 85.2949 75.9346 87.2153C74.0986 89.0768 72.0052 90.4809 69.6544 91.4276C67.3875 92.3405 64.9516 92.8337 62.3467 92.907C59.8257 92.9465 57.2114 92.6333 54.5039 91.9673C54.3611 91.9761 54.2182 91.9848 54.0754 91.9936C53.9914 92.0274 53.9244 92.1032 53.8742 92.2209L52.4827 95.489C51.8308 97.02 50.7786 98.1023 49.3263 98.736C47.899 99.3108 46.4199 99.2722 44.8889 98.6203C43.3579 97.9684 42.305 96.9288 41.7302 95.5016C41.1805 94.0154 41.2316 92.5068 41.8835 90.9758L44.7418 84.263ZM37.7152 114.243C36.0075 113.516 34.8707 112.51 34.3046 111.225C33.8225 109.907 33.945 108.394 34.6722 106.687L35.3115 105.185C36.0386 103.477 37.0319 102.37 38.2912 101.863C39.6346 101.322 41.16 101.415 42.8677 102.142L44.0159 102.631C45.7236 103.358 46.8184 104.381 47.3005 105.699C47.8666 106.983 47.786 108.479 47.0589 110.187L46.4196 111.689C45.6924 113.396 44.6572 114.521 43.3139 115.062C42.0545 115.569 40.571 115.459 38.8634 114.732L37.7152 114.243Z" fill="white"/>
</g>
</g>
<defs>
<filter id="filter0_d_1_191" x="17.4631" y="41.9611" width="848.412" height="222.414" filterUnits="userSpaceOnUse" color-interpolation-filters="sRGB">
<feFlood flood-opacity="0" result="BackgroundImageFix"/>
<feColorMatrix in="SourceAlpha" type="matrix" values="0 0 0 0 0 0 0 0 0 0 0 0 0 0 0 0 0 0 127 0" result="hardAlpha"/>
<feOffset dy="4"/>
<feGaussianBlur stdDeviation="2"/>
<feComposite in2="hardAlpha" operator="out"/>
<feColorMatrix type="matrix" values="0 0 0 0 0 0 0 0 0 0 0 0 0 0 0 0 0 0 0.25 0"/>
<feBlend mode="normal" in2="BackgroundImageFix" result="effect1_dropShadow_1_191"/>
<feBlend mode="normal" in="SourceGraphic" in2="effect1_dropShadow_1_191" result="shape"/>
</filter>
<filter id="filter1_d_1_191" x="17.4631" y="41.9611" width="76.0195" height="90.4738" filterUnits="userSpaceOnUse" color-interpolation-filters="sRGB">
<feFlood flood-opacity="0" result="BackgroundImageFix"/>
<feColorMatrix in="SourceAlpha" type="matrix" values="0 0 0 0 0 0 0 0 0 0 0 0 0 0 0 0 0 0 127 0" result="hardAlpha"/>
<feOffset dy="4"/>
<feGaussianBlur stdDeviation="2"/>
<feComposite in2="hardAlpha" operator="out"/>
<feColorMatrix type="matrix" values="0 0 0 0 0 0 0 0 0 0 0 0 0 0 0 0 0 0 0.25 0"/>
<feBlend mode="normal" in2="BackgroundImageFix" result="effect1_dropShadow_1_191"/>
<feBlend mode="normal" in="SourceGraphic" in2="effect1_dropShadow_1_191" result="shape"/>
</filter>
</defs>
</svg>
