<svg width="645" height="165" viewBox="0 0 645 165" fill="none" xmlns="http://www.w3.org/2000/svg">
<g filter="url(#filter0_d_304_7)">
<rect x="4" width="637" height="157" rx="30" fill="#7E2383"/>
</g>
<g filter="url(#filter1_d_304_7)">
<path d="M146.454 114V45.936H163.638V114H146.454ZM175.704 114V45.936H187.704L192.888 59.856V114H175.704ZM222.648 114L182.904 63.504L187.704 45.936L227.544 96.432L222.648 114ZM222.648 114L218.232 99.696V45.936H235.416V114H222.648ZM247.517 114V45.936H264.701V114H247.517ZM309.791 115.056C304.607 115.056 299.807 114.192 295.391 112.464C290.975 110.672 287.103 108.208 283.775 105.072C280.511 101.872 277.951 98.128 276.095 93.84C274.303 89.552 273.407 84.912 273.407 79.92C273.407 74.864 274.303 70.224 276.095 66C277.951 61.712 280.511 58 283.775 54.864C287.103 51.728 290.943 49.264 295.295 47.472C299.711 45.68 304.479 44.784 309.599 44.784C314.975 44.784 319.807 45.648 324.095 47.376C328.383 49.04 332.159 51.376 335.423 54.384L323.903 65.904C322.303 64.112 320.319 62.704 317.951 61.68C315.583 60.656 312.799 60.144 309.599 60.144C306.847 60.144 304.319 60.592 302.015 61.488C299.775 62.384 297.823 63.728 296.159 65.52C294.495 67.248 293.183 69.328 292.223 71.76C291.327 74.192 290.879 76.912 290.879 79.92C290.879 82.928 291.327 85.648 292.223 88.08C293.183 90.512 294.495 92.624 296.159 94.416C297.823 96.144 299.775 97.488 302.015 98.448C304.319 99.344 306.847 99.792 309.599 99.792C312.799 99.792 315.615 99.312 318.047 98.352C320.479 97.328 322.559 95.888 324.287 94.032L335.807 105.552C332.479 108.56 328.703 110.896 324.479 112.56C320.319 114.224 315.423 115.056 309.791 115.056ZM343.236 114V45.936H360.42V114H343.236ZM367.494 114L393.894 45.936H410.502L436.614 114H418.662L398.982 56.784H405.222L385.062 114H367.494ZM383.526 102.096V88.464H421.062V102.096H383.526ZM456.618 86.448V74.16H469.578C472.394 74.16 474.538 73.488 476.01 72.144C477.546 70.736 478.314 68.848 478.314 66.48C478.314 64.176 477.546 62.32 476.01 60.912C474.538 59.44 472.394 58.704 469.578 58.704H456.618V45.936H471.978C476.586 45.936 480.618 46.8 484.074 48.528C487.594 50.256 490.346 52.624 492.33 55.632C494.314 58.64 495.306 62.16 495.306 66.192C495.306 70.224 494.282 73.776 492.234 76.848C490.25 79.856 487.466 82.224 483.882 83.952C480.298 85.616 476.106 86.448 471.306 86.448H456.618ZM442.986 114V45.936H460.17V114H442.986ZM479.85 114L460.074 84.816L475.53 81.072L499.722 114H479.85Z" fill="white"/>
</g>
<defs>
<filter id="filter0_d_304_7" x="0" y="0" width="645" height="165" filterUnits="userSpaceOnUse" color-interpolation-filters="sRGB">
<feFlood flood-opacity="0" result="BackgroundImageFix"/>
<feColorMatrix in="SourceAlpha" type="matrix" values="0 0 0 0 0 0 0 0 0 0 0 0 0 0 0 0 0 0 127 0" result="hardAlpha"/>
<feOffset dy="4"/>
<feGaussianBlur stdDeviation="2"/>
<feComposite in2="hardAlpha" operator="out"/>
<feColorMatrix type="matrix" values="0 0 0 0 0 0 0 0 0 0 0 0 0 0 0 0 0 0 0.25 0"/>
<feBlend mode="normal" in2="BackgroundImageFix" result="effect1_dropShadow_304_7"/>
<feBlend mode="normal" in="SourceGraphic" in2="effect1_dropShadow_304_7" result="shape"/>
</filter>
<filter id="filter1_d_304_7" x="142.454" y="44.7839" width="361.267" height="78.272" filterUnits="userSpaceOnUse" color-interpolation-filters="sRGB">
<feFlood flood-opacity="0" result="BackgroundImageFix"/>
<feColorMatrix in="SourceAlpha" type="matrix" values="0 0 0 0 0 0 0 0 0 0 0 0 0 0 0 0 0 0 127 0" result="hardAlpha"/>
<feOffset dy="4"/>
<feGaussianBlur stdDeviation="2"/>
<feComposite in2="hardAlpha" operator="out"/>
<feColorMatrix type="matrix" values="0 0 0 0 0 0 0 0 0 0 0 0 0 0 0 0 0 0 0.25 0"/>
<feBlend mode="normal" in2="BackgroundImageFix" result="effect1_dropShadow_304_7"/>
<feBlend mode="normal" in="SourceGraphic" in2="effect1_dropShadow_304_7" result="shape"/>
</filter>
</defs>
</svg>
