<svg width="723" height="165" viewBox="0 0 723 165" fill="none" xmlns="http://www.w3.org/2000/svg">
<g filter="url(#filter0_d_357_3)">
<rect x="4" width="715" height="157" rx="30" fill="#7E2383"/>
<rect x="4.5" y="0.5" width="714" height="156" rx="29.5" stroke="black"/>
<rect x="4.5" y="0.5" width="714" height="156" rx="29.5" stroke="black" stroke-opacity="0.2"/>
</g>
<g filter="url(#filter1_d_357_3)">
<path d="M51.2035 102.704C48.2168 102.704 45.6355 102.192 43.4595 101.168C41.3262 100.101 39.4488 98.608 37.8275 96.688L45.2515 89.328C46.0195 90.3947 46.9155 91.2053 47.9395 91.76C49.0062 92.272 50.2008 92.528 51.5235 92.528C52.6755 92.528 53.6995 92.2933 54.5955 91.824C55.5342 91.312 56.2595 90.5867 56.7715 89.648C57.3262 88.6667 57.6035 87.4293 57.6035 85.936V56.624H69.0595V85.424C69.0595 89.008 68.3342 92.1013 66.8835 94.704C65.4755 97.264 63.4275 99.248 60.7395 100.656C58.0942 102.021 54.9155 102.704 51.2035 102.704ZM98.487 102.832C94.9883 102.832 91.767 102.235 88.823 101.04C85.879 99.8453 83.2977 98.1813 81.079 96.048C78.903 93.9147 77.1963 91.4187 75.959 88.56C74.7217 85.6587 74.103 82.544 74.103 79.216C74.103 75.888 74.7003 72.816 75.895 70C77.1323 67.1413 78.839 64.6453 81.015 62.512C83.191 60.3787 85.751 58.736 88.695 57.584C91.639 56.3893 94.8603 55.792 98.359 55.792C101.858 55.792 105.079 56.3893 108.023 57.584C110.967 58.736 113.527 60.3787 115.703 62.512C117.879 64.6453 119.564 67.1413 120.759 70C121.996 72.8587 122.615 75.952 122.615 79.28C122.615 82.608 121.996 85.7013 120.759 88.56C119.564 91.4187 117.879 93.936 115.703 96.112C113.527 98.2453 110.967 99.9093 108.023 101.104C105.122 102.256 101.943 102.832 98.487 102.832ZM98.359 92.592C100.919 92.592 103.138 92.0373 105.015 90.928C106.892 89.8187 108.343 88.2613 109.367 86.256C110.391 84.2507 110.903 81.904 110.903 79.216C110.903 77.2533 110.604 75.4613 110.007 73.84C109.452 72.2187 108.62 70.832 107.511 69.68C106.402 68.4853 105.079 67.568 103.543 66.928C102.007 66.288 100.279 65.968 98.359 65.968C95.799 65.968 93.5803 66.5227 91.703 67.632C89.8257 68.6987 88.375 70.2347 87.351 72.24C86.327 74.2453 85.815 76.5707 85.815 79.216C85.815 81.264 86.0923 83.12 86.647 84.784C87.2443 86.4053 88.0977 87.8133 89.207 89.008C90.3163 90.16 91.639 91.056 93.175 91.696C94.711 92.2933 96.439 92.592 98.359 92.592ZM150.984 102.704C147.528 102.704 144.328 102.128 141.384 100.976C138.483 99.7813 135.923 98.1173 133.704 95.984C131.528 93.8507 129.821 91.376 128.584 88.56C127.389 85.7013 126.792 82.608 126.792 79.28C126.792 75.9093 127.411 72.816 128.648 70C129.928 67.1413 131.699 64.6667 133.96 62.576C136.221 60.4427 138.845 58.8 141.832 57.648C144.861 56.4533 148.083 55.856 151.496 55.856C155.549 55.856 159.219 56.5813 162.504 58.032C165.789 59.44 168.456 61.4027 170.504 63.92L162.824 71.6C161.288 69.7653 159.603 68.4 157.768 67.504C155.933 66.5653 153.8 66.096 151.368 66.096C148.893 66.096 146.675 66.6507 144.712 67.76C142.792 68.8267 141.256 70.3413 140.104 72.304C138.952 74.2667 138.376 76.5707 138.376 79.216C138.376 81.8613 138.909 84.1867 139.976 86.192C141.085 88.1973 142.579 89.7547 144.456 90.864C146.376 91.9733 148.573 92.528 151.048 92.528C153.523 92.528 155.613 92.0587 157.32 91.12C159.069 90.1813 160.392 88.816 161.288 87.024C162.227 85.232 162.696 83.0987 162.696 80.624L170.44 85.616L149.768 85.104V75.76H174.216V77.488C174.216 82.9067 173.235 87.4933 171.272 91.248C169.309 95.0027 166.579 97.8613 163.08 99.824C159.624 101.744 155.592 102.704 150.984 102.704ZM174.454 102L192.054 56.624H203.126L220.534 102H208.566L195.446 63.856H199.606L186.166 102H174.454ZM185.142 94.064V84.976H210.166V94.064H185.142ZM233.87 83.632V75.44H242.51C244.387 75.44 245.817 74.992 246.798 74.096C247.822 73.1573 248.334 71.8987 248.334 70.32C248.334 68.784 247.822 67.5467 246.798 66.608C245.817 65.6267 244.387 65.136 242.51 65.136H233.87V56.624H244.11C247.182 56.624 249.87 57.2 252.174 58.352C254.521 59.504 256.355 61.0827 257.678 63.088C259.001 65.0933 259.662 67.44 259.662 70.128C259.662 72.816 258.979 75.184 257.614 77.232C256.291 79.2373 254.435 80.816 252.046 81.968C249.657 83.0773 246.862 83.632 243.662 83.632H233.87ZM224.782 102V56.624H236.238V102H224.782ZM249.358 102L236.174 82.544L246.478 80.048L262.606 102H249.358ZM279.032 102V56.624H287.032L290.488 65.904V102H279.032ZM310.328 102L283.832 68.336L287.032 56.624L313.592 90.288L310.328 102ZM310.328 102L307.384 92.464V56.624H318.84V102H310.328ZM348.987 102.832C345.488 102.832 342.267 102.235 339.323 101.04C336.379 99.8453 333.798 98.1813 331.579 96.048C329.403 93.9147 327.696 91.4187 326.459 88.56C325.222 85.6587 324.603 82.544 324.603 79.216C324.603 75.888 325.2 72.816 326.395 70C327.632 67.1413 329.339 64.6453 331.515 62.512C333.691 60.3787 336.251 58.736 339.195 57.584C342.139 56.3893 345.36 55.792 348.859 55.792C352.358 55.792 355.579 56.3893 358.523 57.584C361.467 58.736 364.027 60.3787 366.203 62.512C368.379 64.6453 370.064 67.1413 371.259 70C372.496 72.8587 373.115 75.952 373.115 79.28C373.115 82.608 372.496 85.7013 371.259 88.56C370.064 91.4187 368.379 93.936 366.203 96.112C364.027 98.2453 361.467 99.9093 358.523 101.104C355.622 102.256 352.443 102.832 348.987 102.832ZM348.859 92.592C351.419 92.592 353.638 92.0373 355.515 90.928C357.392 89.8187 358.843 88.2613 359.867 86.256C360.891 84.2507 361.403 81.904 361.403 79.216C361.403 77.2533 361.104 75.4613 360.507 73.84C359.952 72.2187 359.12 70.832 358.011 69.68C356.902 68.4853 355.579 67.568 354.043 66.928C352.507 66.288 350.779 65.968 348.859 65.968C346.299 65.968 344.08 66.5227 342.203 67.632C340.326 68.6987 338.875 70.2347 337.851 72.24C336.827 74.2453 336.315 76.5707 336.315 79.216C336.315 81.264 336.592 83.12 337.147 84.784C337.744 86.4053 338.598 87.8133 339.707 89.008C340.816 90.16 342.139 91.056 343.675 91.696C345.211 92.2933 346.939 92.592 348.859 92.592ZM390.98 102L373.892 56.624H386.116L398.916 93.296H393.668L406.66 56.624H418.628L401.348 102H390.98ZM414.392 102L431.992 56.624H443.064L460.472 102H448.504L435.384 63.856H439.544L426.104 102H414.392ZM425.08 94.064V84.976H450.104V94.064H425.08ZM464.72 102V56.624H472.976L490.384 82.928H486.48L503.824 56.624H512.08V102H500.752V75.568L502.544 76.08L492.112 91.76H484.688L474.32 76.08L476.112 75.568V102H464.72ZM520.157 102V56.624H531.613V102H520.157ZM529.245 102V92.336H553.821V102H529.245ZM529.245 83.568V74.16H551.517V83.568H529.245ZM529.245 66.288V56.624H553.437V66.288H529.245ZM560.282 102V56.624H568.282L571.738 65.904V102H560.282ZM591.578 102L565.082 68.336L568.282 56.624L594.842 90.288L591.578 102ZM591.578 102L588.634 92.464V56.624H600.09V102H591.578ZM619.165 102V56.944H630.621V102H619.165ZM605.277 66.48V56.624H644.509V66.48H605.277ZM649.72 102V56.624H661.176V102H649.72ZM658.808 102V92.336H683.384V102H658.808ZM658.808 83.568V74.16H681.08V83.568H658.808ZM658.808 66.288V56.624H683V66.288H658.808Z" fill="white"/>
</g>
<defs>
<filter id="filter0_d_357_3" x="0" y="0" width="723" height="165" filterUnits="userSpaceOnUse" color-interpolation-filters="sRGB">
<feFlood flood-opacity="0" result="BackgroundImageFix"/>
<feColorMatrix in="SourceAlpha" type="matrix" values="0 0 0 0 0 0 0 0 0 0 0 0 0 0 0 0 0 0 127 0" result="hardAlpha"/>
<feOffset dy="4"/>
<feGaussianBlur stdDeviation="2"/>
<feComposite in2="hardAlpha" operator="out"/>
<feColorMatrix type="matrix" values="0 0 0 0 0 0 0 0 0 0 0 0 0 0 0 0 0 0 0.25 0"/>
<feBlend mode="normal" in2="BackgroundImageFix" result="effect1_dropShadow_357_3"/>
<feBlend mode="normal" in="SourceGraphic" in2="effect1_dropShadow_357_3" result="shape"/>
</filter>
<filter id="filter1_d_357_3" x="33.8274" y="55.792" width="653.556" height="55.04" filterUnits="userSpaceOnUse" color-interpolation-filters="sRGB">
<feFlood flood-opacity="0" result="BackgroundImageFix"/>
<feColorMatrix in="SourceAlpha" type="matrix" values="0 0 0 0 0 0 0 0 0 0 0 0 0 0 0 0 0 0 127 0" result="hardAlpha"/>
<feOffset dy="4"/>
<feGaussianBlur stdDeviation="2"/>
<feComposite in2="hardAlpha" operator="out"/>
<feColorMatrix type="matrix" values="0 0 0 0 0 0 0 0 0 0 0 0 0 0 0 0 0 0 0.25 0"/>
<feBlend mode="normal" in2="BackgroundImageFix" result="effect1_dropShadow_357_3"/>
<feBlend mode="normal" in="SourceGraphic" in2="effect1_dropShadow_357_3" result="shape"/>
</filter>
</defs>
</svg>
