<svg width="942" height="715" viewBox="0 0 942 715" fill="none" xmlns="http://www.w3.org/2000/svg">
<g filter="url(#filter0_d_12_101)">
<path d="M147.598 193C152.798 193 157.648 194.5 162.148 197.5C166.748 200.5 170.448 204.55 173.248 209.65C176.048 214.75 177.448 220.45 177.448 226.75C177.448 232.95 176.048 238.6 173.248 243.7C170.448 248.8 166.748 252.9 162.148 256C157.648 259 152.798 260.5 147.598 260.5H119.998L121.498 257.8V288.85C121.498 291.45 120.698 293.65 119.098 295.45C117.498 297.15 115.398 298 112.798 298C110.298 298 108.248 297.15 106.648 295.45C105.048 293.65 104.248 291.45 104.248 288.85V202.15C104.248 199.55 105.098 197.4 106.798 195.7C108.598 193.9 110.798 193 113.398 193H147.598ZM147.598 243.4C149.498 243.4 151.348 242.6 153.148 241C154.948 239.4 156.448 237.35 157.648 234.85C158.848 232.25 159.448 229.55 159.448 226.75C159.448 223.85 158.848 221.15 157.648 218.65C156.448 216.15 154.948 214.15 153.148 212.65C151.348 211.05 149.498 210.25 147.598 210.25H119.698L121.498 207.55V245.8L119.848 243.4H147.598ZM258.096 216.25C260.696 216.25 262.846 217.1 264.546 218.8C266.246 220.5 267.096 222.7 267.096 225.4V288.85C267.096 291.45 266.246 293.65 264.546 295.45C262.846 297.15 260.696 298 258.096 298C255.496 298 253.346 297.15 251.646 295.45C249.946 293.65 249.096 291.45 249.096 288.85V281.5L252.396 282.85C252.396 284.15 251.696 285.75 250.296 287.65C248.896 289.45 246.996 291.25 244.596 293.05C242.196 294.85 239.346 296.4 236.046 297.7C232.846 298.9 229.346 299.5 225.546 299.5C218.646 299.5 212.396 297.75 206.796 294.25C201.196 290.65 196.746 285.75 193.446 279.55C190.246 273.25 188.646 266.05 188.646 257.95C188.646 249.75 190.246 242.55 193.446 236.35C196.746 230.05 201.146 225.15 206.646 221.65C212.146 218.05 218.246 216.25 224.946 216.25C229.246 216.25 233.196 216.9 236.796 218.2C240.396 219.5 243.496 221.15 246.096 223.15C248.796 225.15 250.846 227.2 252.246 229.3C253.746 231.3 254.496 233 254.496 234.4L249.096 236.35V225.4C249.096 222.8 249.946 220.65 251.646 218.95C253.346 217.15 255.496 216.25 258.096 216.25ZM227.796 283C232.196 283 236.046 281.9 239.346 279.7C242.646 277.5 245.196 274.5 246.996 270.7C248.896 266.9 249.846 262.65 249.846 257.95C249.846 253.15 248.896 248.85 246.996 245.05C245.196 241.25 242.646 238.25 239.346 236.05C236.046 233.85 232.196 232.75 227.796 232.75C223.496 232.75 219.696 233.85 216.396 236.05C213.096 238.25 210.496 241.25 208.596 245.05C206.796 248.85 205.896 253.15 205.896 257.95C205.896 262.65 206.796 266.9 208.596 270.7C210.496 274.5 213.096 277.5 216.396 279.7C219.696 281.9 223.496 283 227.796 283ZM295.586 298C292.986 298 290.836 297.15 289.136 295.45C287.436 293.65 286.586 291.45 286.586 288.85V226.9C286.586 224.3 287.436 222.15 289.136 220.45C290.836 218.65 292.986 217.75 295.586 217.75C298.186 217.75 300.336 218.65 302.036 220.45C303.736 222.15 304.586 224.3 304.586 226.9V241L303.536 230.95C304.636 228.55 306.036 226.45 307.736 224.65C309.536 222.75 311.536 221.2 313.736 220C315.936 218.7 318.286 217.75 320.786 217.15C323.286 216.55 325.786 216.25 328.286 216.25C331.286 216.25 333.786 217.1 335.786 218.8C337.886 220.5 338.936 222.5 338.936 224.8C338.936 228.1 338.086 230.5 336.386 232C334.686 233.4 332.836 234.1 330.836 234.1C328.936 234.1 327.186 233.75 325.586 233.05C324.086 232.35 322.336 232 320.336 232C318.536 232 316.686 232.45 314.786 233.35C312.986 234.15 311.286 235.45 309.686 237.25C308.186 239.05 306.936 241.3 305.936 244C305.036 246.6 304.586 249.7 304.586 253.3V288.85C304.586 291.45 303.736 293.65 302.036 295.45C300.336 297.15 298.186 298 295.586 298ZM415.567 216.25C418.167 216.25 420.317 217.1 422.017 218.8C423.717 220.5 424.567 222.7 424.567 225.4V288.85C424.567 291.45 423.717 293.65 422.017 295.45C420.317 297.15 418.167 298 415.567 298C412.967 298 410.817 297.15 409.117 295.45C407.417 293.65 406.567 291.45 406.567 288.85V281.5L409.867 282.85C409.867 284.15 409.167 285.75 407.767 287.65C406.367 289.45 404.467 291.25 402.067 293.05C399.667 294.85 396.817 296.4 393.517 297.7C390.317 298.9 386.817 299.5 383.017 299.5C376.117 299.5 369.867 297.75 364.267 294.25C358.667 290.65 354.217 285.75 350.917 279.55C347.717 273.25 346.117 266.05 346.117 257.95C346.117 249.75 347.717 242.55 350.917 236.35C354.217 230.05 358.617 225.15 364.117 221.65C369.617 218.05 375.717 216.25 382.417 216.25C386.717 216.25 390.667 216.9 394.267 218.2C397.867 219.5 400.967 221.15 403.567 223.15C406.267 225.15 408.317 227.2 409.717 229.3C411.217 231.3 411.967 233 411.967 234.4L406.567 236.35V225.4C406.567 222.8 407.417 220.65 409.117 218.95C410.817 217.15 412.967 216.25 415.567 216.25ZM385.267 283C389.667 283 393.517 281.9 396.817 279.7C400.117 277.5 402.667 274.5 404.467 270.7C406.367 266.9 407.317 262.65 407.317 257.95C407.317 253.15 406.367 248.85 404.467 245.05C402.667 241.25 400.117 238.25 396.817 236.05C393.517 233.85 389.667 232.75 385.267 232.75C380.967 232.75 377.167 233.85 373.867 236.05C370.567 238.25 367.967 241.25 366.067 245.05C364.267 248.85 363.367 253.15 363.367 257.95C363.367 262.65 364.267 266.9 366.067 270.7C367.967 274.5 370.567 277.5 373.867 279.7C377.167 281.9 380.967 283 385.267 283ZM485.607 216.25C492.607 216.25 498.857 218.05 504.357 221.65C509.957 225.15 514.357 230 517.557 236.2C520.857 242.4 522.507 249.6 522.507 257.8C522.507 266 520.857 273.25 517.557 279.55C514.357 285.75 510.007 290.65 504.507 294.25C499.107 297.75 493.007 299.5 486.207 299.5C482.207 299.5 478.457 298.85 474.957 297.55C471.457 296.25 468.357 294.6 465.657 292.6C463.057 290.6 461.007 288.6 459.507 286.6C458.107 284.5 457.407 282.75 457.407 281.35L462.057 279.4V290.35C462.057 292.95 461.207 295.15 459.507 296.95C457.807 298.65 455.657 299.5 453.057 299.5C450.457 299.5 448.307 298.65 446.607 296.95C444.907 295.25 444.057 293.05 444.057 290.35V196.15C444.057 193.55 444.907 191.4 446.607 189.7C448.307 187.9 450.457 187 453.057 187C455.657 187 457.807 187.9 459.507 189.7C461.207 191.4 462.057 193.55 462.057 196.15V234.25L459.507 232.9C459.507 231.6 460.207 230.05 461.607 228.25C463.007 226.35 464.907 224.5 467.307 222.7C469.707 220.8 472.457 219.25 475.557 218.05C478.757 216.85 482.107 216.25 485.607 216.25ZM483.357 232.75C478.957 232.75 475.107 233.85 471.807 236.05C468.507 238.25 465.907 241.25 464.007 245.05C462.207 248.75 461.307 253 461.307 257.8C461.307 262.5 462.207 266.8 464.007 270.7C465.907 274.5 468.507 277.5 471.807 279.7C475.107 281.9 478.957 283 483.357 283C487.757 283 491.557 281.9 494.757 279.7C498.057 277.5 500.607 274.5 502.407 270.7C504.307 266.8 505.257 262.5 505.257 257.8C505.257 253 504.307 248.75 502.407 245.05C500.607 241.25 498.057 238.25 494.757 236.05C491.557 233.85 487.757 232.75 483.357 232.75ZM576.046 299.5C567.546 299.5 560.146 297.75 553.846 294.25C547.646 290.65 542.846 285.8 539.446 279.7C536.146 273.6 534.496 266.7 534.496 259C534.496 250 536.296 242.35 539.896 236.05C543.596 229.65 548.396 224.75 554.296 221.35C560.196 217.95 566.446 216.25 573.046 216.25C578.146 216.25 582.946 217.3 587.446 219.4C592.046 221.5 596.096 224.4 599.596 228.1C603.096 231.7 605.846 235.9 607.846 240.7C609.946 245.5 610.996 250.6 610.996 256C610.896 258.4 609.946 260.35 608.146 261.85C606.346 263.35 604.246 264.1 601.846 264.1H544.546L540.046 249.1H595.096L591.796 252.1V248.05C591.596 245.15 590.546 242.55 588.646 240.25C586.846 237.95 584.546 236.15 581.746 234.85C579.046 233.45 576.146 232.75 573.046 232.75C570.046 232.75 567.246 233.15 564.646 233.95C562.046 234.75 559.796 236.1 557.896 238C555.996 239.9 554.496 242.45 553.396 245.65C552.296 248.85 551.746 252.9 551.746 257.8C551.746 263.2 552.846 267.8 555.046 271.6C557.346 275.3 560.246 278.15 563.746 280.15C567.346 282.05 571.146 283 575.146 283C578.846 283 581.796 282.7 583.996 282.1C586.196 281.5 587.946 280.8 589.246 280C590.646 279.1 591.896 278.35 592.996 277.75C594.796 276.85 596.496 276.4 598.096 276.4C600.296 276.4 602.096 277.15 603.496 278.65C604.996 280.15 605.746 281.9 605.746 283.9C605.746 286.6 604.346 289.05 601.546 291.25C598.946 293.45 595.296 295.4 590.596 297.1C585.896 298.7 581.046 299.5 576.046 299.5ZM573.196 212.65C572.396 212.65 571.346 212.25 570.046 211.45C568.846 210.55 568.296 209.3 568.396 207.7C568.396 206.8 568.696 205.85 569.296 204.85L577.996 189.55C578.896 187.95 580.046 186.55 581.446 185.35C582.846 184.15 584.446 183.55 586.246 183.55C589.046 183.55 591.096 184.3 592.396 185.8C593.696 187.2 594.296 188.95 594.196 191.05C594.096 192.05 593.796 193.1 593.296 194.2C592.896 195.3 592.246 196.4 591.346 197.5L579.946 210.1C578.946 211.2 577.846 211.9 576.646 212.2C575.446 212.5 574.296 212.65 573.196 212.65ZM669.623 216.25C677.023 216.25 682.623 217.8 686.423 220.9C690.323 224 692.973 228.15 694.373 233.35C695.873 238.45 696.623 244.15 696.623 250.45V288.85C696.623 291.45 695.773 293.65 694.073 295.45C692.373 297.15 690.223 298 687.623 298C685.023 298 682.873 297.15 681.173 295.45C679.473 293.65 678.623 291.45 678.623 288.85V250.45C678.623 247.15 678.173 244.2 677.273 241.6C676.473 238.9 674.973 236.75 672.773 235.15C670.573 233.55 667.423 232.75 663.323 232.75C659.323 232.75 655.923 233.55 653.123 235.15C650.423 236.75 648.323 238.9 646.823 241.6C645.423 244.2 644.723 247.15 644.723 250.45V288.85C644.723 291.45 643.873 293.65 642.173 295.45C640.473 297.15 638.323 298 635.723 298C633.123 298 630.973 297.15 629.273 295.45C627.573 293.65 626.723 291.45 626.723 288.85V226.9C626.723 224.3 627.573 222.15 629.273 220.45C630.973 218.65 633.123 217.75 635.723 217.75C638.323 217.75 640.473 218.65 642.173 220.45C643.873 222.15 644.723 224.3 644.723 226.9V233.35L642.473 232.9C643.373 231.2 644.673 229.4 646.373 227.5C648.073 225.5 650.073 223.65 652.373 221.95C654.673 220.25 657.273 218.9 660.173 217.9C663.073 216.8 666.223 216.25 669.623 216.25ZM711.428 285.55C710.428 284.15 709.978 282.35 710.078 280.15C710.178 277.95 711.478 276.05 713.978 274.45C715.578 273.45 717.278 273.05 719.078 273.25C720.878 273.35 722.628 274.25 724.328 275.95C727.228 278.85 730.278 281.1 733.478 282.7C736.678 284.3 740.678 285.1 745.478 285.1C746.978 285 748.628 284.8 750.428 284.5C752.228 284.1 753.778 283.3 755.078 282.1C756.478 280.8 757.178 278.85 757.178 276.25C757.178 274.05 756.428 272.3 754.928 271C753.428 269.7 751.428 268.6 748.928 267.7C746.528 266.8 743.828 265.95 740.828 265.15C737.728 264.25 734.528 263.25 731.228 262.15C728.028 261.05 725.078 259.65 722.378 257.95C719.678 256.15 717.478 253.8 715.778 250.9C714.078 248 713.228 244.35 713.228 239.95C713.228 234.95 714.628 230.7 717.428 227.2C720.228 223.7 723.828 221 728.228 219.1C732.728 217.2 737.428 216.25 742.328 216.25C745.428 216.25 748.678 216.65 752.078 217.45C755.478 218.15 758.728 219.35 761.828 221.05C764.928 222.65 767.528 224.8 769.628 227.5C770.728 229 771.378 230.8 771.578 232.9C771.778 235 770.828 236.9 768.728 238.6C767.228 239.8 765.478 240.35 763.478 240.25C761.478 240.05 759.828 239.35 758.528 238.15C756.828 235.95 754.528 234.2 751.628 232.9C748.828 231.6 745.578 230.95 741.878 230.95C740.378 230.95 738.728 231.15 736.928 231.55C735.228 231.85 733.728 232.6 732.428 233.8C731.128 234.9 730.478 236.7 730.478 239.2C730.478 241.5 731.228 243.35 732.728 244.75C734.228 246.05 736.228 247.15 738.728 248.05C741.328 248.85 744.078 249.65 746.978 250.45C749.978 251.25 753.028 252.2 756.128 253.3C759.228 254.4 762.078 255.85 764.678 257.65C767.278 259.45 769.378 261.8 770.978 264.7C772.578 267.5 773.378 271.1 773.378 275.5C773.378 280.6 771.878 284.95 768.878 288.55C765.878 292.15 762.128 294.9 757.628 296.8C753.128 298.6 748.528 299.5 743.828 299.5C737.928 299.5 732.028 298.5 726.128 296.5C720.228 294.4 715.328 290.75 711.428 285.55ZM811.241 296.8C811.241 300.1 810.291 303.4 808.391 306.7C806.591 310.1 804.191 312.9 801.191 315.1C798.291 317.4 795.191 318.55 791.891 318.55C790.791 318.55 789.591 318.1 788.291 317.2C787.091 316.3 786.491 314.75 786.491 312.55C786.491 310.25 787.191 308.85 788.591 308.35C790.091 307.95 791.341 307.5 792.341 307C793.641 306.3 794.641 305.45 795.341 304.45C796.141 303.55 796.541 302.4 796.541 301C796.541 299.9 795.991 298.9 794.891 298C793.891 297.2 792.541 296.8 790.841 296.8C790.241 296.8 789.541 296.9 788.741 297.1C787.941 297.2 787.241 297.45 786.641 297.85C785.641 297.35 784.741 296.75 783.941 296.05C783.241 295.25 782.891 294 782.891 292.3C782.891 289.2 784.291 286.55 787.091 284.35C789.991 282.05 793.341 280.9 797.141 280.9C801.441 280.9 804.841 282.35 807.341 285.25C809.941 288.15 811.241 292 811.241 296.8ZM298.096 367.75C299.996 367.75 301.746 368.25 303.346 369.25C304.946 370.15 306.146 371.55 306.946 373.45L328.996 423.85L325.696 425.35L348.196 373.6C349.896 369.6 352.546 367.7 356.146 367.9C358.646 367.9 360.646 368.7 362.146 370.3C363.746 371.8 364.546 373.7 364.546 376C364.546 376.7 364.396 377.45 364.096 378.25C363.896 379.05 363.646 379.8 363.346 380.5L335.296 442.3C333.696 445.9 331.146 447.8 327.646 448C325.746 448.3 323.896 447.95 322.096 446.95C320.396 445.95 319.096 444.4 318.196 442.3L290.296 380.5C290.096 380 289.846 379.35 289.546 378.55C289.346 377.75 289.246 376.8 289.246 375.7C289.246 373.9 290.046 372.15 291.646 370.45C293.246 368.65 295.396 367.75 298.096 367.75ZM455.842 407.95C455.842 416.15 453.992 423.4 450.292 429.7C446.692 435.9 441.792 440.75 435.592 444.25C429.492 447.75 422.642 449.5 415.042 449.5C407.442 449.5 400.542 447.75 394.342 444.25C388.242 440.75 383.342 435.9 379.642 429.7C376.042 423.4 374.242 416.15 374.242 407.95C374.242 399.75 376.042 392.55 379.642 386.35C383.342 380.05 388.242 375.15 394.342 371.65C400.542 368.05 407.442 366.25 415.042 366.25C422.642 366.25 429.492 368.05 435.592 371.65C441.792 375.15 446.692 380.05 450.292 386.35C453.992 392.55 455.842 399.75 455.842 407.95ZM437.842 407.95C437.842 402.85 436.792 398.45 434.692 394.75C432.692 390.95 429.942 388 426.442 385.9C423.042 383.8 419.242 382.75 415.042 382.75C410.842 382.75 406.992 383.8 403.492 385.9C400.092 388 397.342 390.95 395.242 394.75C393.242 398.45 392.242 402.85 392.242 407.95C392.242 412.95 393.242 417.35 395.242 421.15C397.342 424.85 400.092 427.75 403.492 429.85C406.992 431.95 410.842 433 415.042 433C419.242 433 423.042 431.95 426.442 429.85C429.942 427.75 432.692 424.85 434.692 421.15C436.792 417.35 437.842 412.95 437.842 407.95ZM507.296 366.25C512.996 366.25 517.946 366.85 522.146 368.05C526.446 369.25 529.746 370.95 532.046 373.15C534.446 375.25 535.646 377.8 535.646 380.8C535.646 382.8 535.046 384.7 533.846 386.5C532.646 388.2 530.896 389.05 528.596 389.05C526.996 389.05 525.646 388.85 524.546 388.45C523.546 387.95 522.646 387.35 521.846 386.65C521.046 385.95 520.096 385.3 518.996 384.7C517.996 384.1 516.446 383.65 514.346 383.35C512.346 382.95 510.846 382.75 509.846 382.75C504.746 382.75 500.396 383.85 496.796 386.05C493.296 388.25 490.596 391.25 488.696 395.05C486.796 398.75 485.846 403.05 485.846 407.95C485.846 412.75 486.796 417.05 488.696 420.85C490.696 424.55 493.396 427.5 496.796 429.7C500.296 431.9 504.296 433 508.796 433C511.296 433 513.446 432.85 515.246 432.55C517.046 432.25 518.546 431.8 519.746 431.2C521.146 430.4 522.396 429.55 523.496 428.65C524.596 427.75 526.246 427.3 528.446 427.3C531.046 427.3 533.046 428.15 534.446 429.85C535.846 431.45 536.546 433.45 536.546 435.85C536.546 438.35 535.146 440.65 532.346 442.75C529.546 444.75 525.846 446.4 521.246 447.7C516.746 448.9 511.846 449.5 506.546 449.5C498.646 449.5 491.796 447.7 485.996 444.1C480.196 440.4 475.696 435.4 472.496 429.1C469.396 422.8 467.846 415.75 467.846 407.95C467.846 399.75 469.496 392.55 472.796 386.35C476.196 380.05 480.846 375.15 486.746 371.65C492.746 368.05 499.596 366.25 507.296 366.25ZM587.325 449.5C578.825 449.5 571.425 447.75 565.125 444.25C558.925 440.65 554.125 435.8 550.725 429.7C547.425 423.6 545.775 416.7 545.775 409C545.775 400 547.575 392.35 551.175 386.05C554.875 379.65 559.675 374.75 565.575 371.35C571.475 367.95 577.725 366.25 584.325 366.25C589.425 366.25 594.225 367.3 598.725 369.4C603.325 371.5 607.375 374.4 610.875 378.1C614.375 381.7 617.125 385.9 619.125 390.7C621.225 395.5 622.275 400.6 622.275 406C622.175 408.4 621.225 410.35 619.425 411.85C617.625 413.35 615.525 414.1 613.125 414.1H555.825L551.325 399.1H606.375L603.075 402.1V398.05C602.875 395.15 601.825 392.55 599.925 390.25C598.125 387.95 595.825 386.15 593.025 384.85C590.325 383.45 587.425 382.75 584.325 382.75C581.325 382.75 578.525 383.15 575.925 383.95C573.325 384.75 571.075 386.1 569.175 388C567.275 389.9 565.775 392.45 564.675 395.65C563.575 398.85 563.025 402.9 563.025 407.8C563.025 413.2 564.125 417.8 566.325 421.6C568.625 425.3 571.525 428.15 575.025 430.15C578.625 432.05 582.425 433 586.425 433C590.125 433 593.075 432.7 595.275 432.1C597.475 431.5 599.225 430.8 600.525 430C601.925 429.1 603.175 428.35 604.275 427.75C606.075 426.85 607.775 426.4 609.375 426.4C611.575 426.4 613.375 427.15 614.775 428.65C616.275 430.15 617.025 431.9 617.025 433.9C617.025 436.6 615.625 439.05 612.825 441.25C610.225 443.45 606.575 445.4 601.875 447.1C597.175 448.7 592.325 449.5 587.325 449.5ZM587.025 344.95L575.475 354.55C574.175 355.65 573.075 356.55 572.175 357.25C571.375 357.85 570.025 358.15 568.125 358.15C566.825 358.15 565.725 357.8 564.825 357.1C564.025 356.3 563.625 355.4 563.625 354.4C563.625 353.6 563.725 352.9 563.925 352.3C564.125 351.6 564.625 350.75 565.425 349.75L572.775 340.45C575.075 337.55 578.125 336.1 581.925 336.1H587.325C589.325 336.1 590.875 336.4 591.975 337C593.175 337.6 594.325 338.75 595.425 340.45L602.025 349.75C602.825 350.75 603.325 351.6 603.525 352.3C603.725 352.9 603.825 353.6 603.825 354.4C603.825 355.4 603.425 356.3 602.625 357.1C601.825 357.8 600.725 358.15 599.325 358.15C597.425 358.15 596.075 357.85 595.275 357.25C594.475 356.55 593.375 355.65 591.975 354.55L579.375 343.45L587.025 344.95ZM118.453 516.25C124.153 516.25 129.103 516.85 133.303 518.05C137.603 519.25 140.903 520.95 143.203 523.15C145.603 525.25 146.803 527.8 146.803 530.8C146.803 532.8 146.203 534.7 145.003 536.5C143.803 538.2 142.053 539.05 139.753 539.05C138.153 539.05 136.803 538.85 135.703 538.45C134.703 537.95 133.803 537.35 133.003 536.65C132.203 535.95 131.253 535.3 130.153 534.7C129.153 534.1 127.603 533.65 125.503 533.35C123.503 532.95 122.003 532.75 121.003 532.75C115.903 532.75 111.553 533.85 107.953 536.05C104.453 538.25 101.753 541.25 99.8529 545.05C97.9529 548.75 97.0029 553.05 97.0029 557.95C97.0029 562.75 97.9529 567.05 99.8529 570.85C101.853 574.55 104.553 577.5 107.953 579.7C111.453 581.9 115.453 583 119.953 583C122.453 583 124.603 582.85 126.403 582.55C128.203 582.25 129.703 581.8 130.903 581.2C132.303 580.4 133.553 579.55 134.653 578.65C135.753 577.75 137.403 577.3 139.603 577.3C142.203 577.3 144.203 578.15 145.603 579.85C147.003 581.45 147.703 583.45 147.703 585.85C147.703 588.35 146.303 590.65 143.503 592.75C140.703 594.75 137.003 596.4 132.403 597.7C127.903 598.9 123.003 599.5 117.703 599.5C109.803 599.5 102.953 597.7 97.1529 594.1C91.3529 590.4 86.8529 585.4 83.6529 579.1C80.5529 572.8 79.0029 565.75 79.0029 557.95C79.0029 549.75 80.6529 542.55 83.9529 536.35C87.3529 530.05 92.0029 525.15 97.9029 521.65C103.903 518.05 110.753 516.25 118.453 516.25ZM238.533 557.95C238.533 566.15 236.683 573.4 232.983 579.7C229.383 585.9 224.483 590.75 218.283 594.25C212.183 597.75 205.333 599.5 197.733 599.5C190.133 599.5 183.233 597.75 177.033 594.25C170.933 590.75 166.033 585.9 162.333 579.7C158.733 573.4 156.933 566.15 156.933 557.95C156.933 549.75 158.733 542.55 162.333 536.35C166.033 530.05 170.933 525.15 177.033 521.65C183.233 518.05 190.133 516.25 197.733 516.25C205.333 516.25 212.183 518.05 218.283 521.65C224.483 525.15 229.383 530.05 232.983 536.35C236.683 542.55 238.533 549.75 238.533 557.95ZM220.533 557.95C220.533 552.85 219.483 548.45 217.383 544.75C215.383 540.95 212.633 538 209.133 535.9C205.733 533.8 201.933 532.75 197.733 532.75C193.533 532.75 189.683 533.8 186.183 535.9C182.783 538 180.033 540.95 177.933 544.75C175.933 548.45 174.933 552.85 174.933 557.95C174.933 562.95 175.933 567.35 177.933 571.15C180.033 574.85 182.783 577.75 186.183 579.85C189.683 581.95 193.533 583 197.733 583C201.933 583 205.733 581.95 209.133 579.85C212.633 577.75 215.383 574.85 217.383 571.15C219.483 567.35 220.533 562.95 220.533 557.95ZM297.186 516.25C304.586 516.25 310.186 517.8 313.986 520.9C317.886 524 320.536 528.15 321.936 533.35C323.436 538.45 324.186 544.15 324.186 550.45V588.85C324.186 591.45 323.336 593.65 321.636 595.45C319.936 597.15 317.786 598 315.186 598C312.586 598 310.436 597.15 308.736 595.45C307.036 593.65 306.186 591.45 306.186 588.85V550.45C306.186 547.15 305.736 544.2 304.836 541.6C304.036 538.9 302.536 536.75 300.336 535.15C298.136 533.55 294.986 532.75 290.886 532.75C286.886 532.75 283.486 533.55 280.686 535.15C277.986 536.75 275.886 538.9 274.386 541.6C272.986 544.2 272.286 547.15 272.286 550.45V588.85C272.286 591.45 271.436 593.65 269.736 595.45C268.036 597.15 265.886 598 263.286 598C260.686 598 258.536 597.15 256.836 595.45C255.136 593.65 254.286 591.45 254.286 588.85V526.9C254.286 524.3 255.136 522.15 256.836 520.45C258.536 518.65 260.686 517.75 263.286 517.75C265.886 517.75 268.036 518.65 269.736 520.45C271.436 522.15 272.286 524.3 272.286 526.9V533.35L270.036 532.9C270.936 531.2 272.236 529.4 273.936 527.5C275.636 525.5 277.636 523.65 279.936 521.95C282.236 520.25 284.836 518.9 287.736 517.9C290.636 516.8 293.786 516.25 297.186 516.25ZM338.992 585.55C337.992 584.15 337.542 582.35 337.642 580.15C337.742 577.95 339.042 576.05 341.542 574.45C343.142 573.45 344.842 573.05 346.642 573.25C348.442 573.35 350.192 574.25 351.892 575.95C354.792 578.85 357.842 581.1 361.042 582.7C364.242 584.3 368.242 585.1 373.042 585.1C374.542 585 376.192 584.8 377.992 584.5C379.792 584.1 381.342 583.3 382.642 582.1C384.042 580.8 384.742 578.85 384.742 576.25C384.742 574.05 383.992 572.3 382.492 571C380.992 569.7 378.992 568.6 376.492 567.7C374.092 566.8 371.392 565.95 368.392 565.15C365.292 564.25 362.092 563.25 358.792 562.15C355.592 561.05 352.642 559.65 349.942 557.95C347.242 556.15 345.042 553.8 343.342 550.9C341.642 548 340.792 544.35 340.792 539.95C340.792 534.95 342.192 530.7 344.992 527.2C347.792 523.7 351.392 521 355.792 519.1C360.292 517.2 364.992 516.25 369.892 516.25C372.992 516.25 376.242 516.65 379.642 517.45C383.042 518.15 386.292 519.35 389.392 521.05C392.492 522.65 395.092 524.8 397.192 527.5C398.292 529 398.942 530.8 399.142 532.9C399.342 535 398.392 536.9 396.292 538.6C394.792 539.8 393.042 540.35 391.042 540.25C389.042 540.05 387.392 539.35 386.092 538.15C384.392 535.95 382.092 534.2 379.192 532.9C376.392 531.6 373.142 530.95 369.442 530.95C367.942 530.95 366.292 531.15 364.492 531.55C362.792 531.85 361.292 532.6 359.992 533.8C358.692 534.9 358.042 536.7 358.042 539.2C358.042 541.5 358.792 543.35 360.292 544.75C361.792 546.05 363.792 547.15 366.292 548.05C368.892 548.85 371.642 549.65 374.542 550.45C377.542 551.25 380.592 552.2 383.692 553.3C386.792 554.4 389.642 555.85 392.242 557.65C394.842 559.45 396.942 561.8 398.542 564.7C400.142 567.5 400.942 571.1 400.942 575.5C400.942 580.6 399.442 584.95 396.442 588.55C393.442 592.15 389.692 594.9 385.192 596.8C380.692 598.6 376.092 599.5 371.392 599.5C365.492 599.5 359.592 598.5 353.692 596.5C347.792 594.4 342.892 590.75 338.992 585.55ZM453.805 599.5C445.305 599.5 437.905 597.75 431.605 594.25C425.405 590.65 420.605 585.8 417.205 579.7C413.905 573.6 412.255 566.7 412.255 559C412.255 550 414.055 542.35 417.655 536.05C421.355 529.65 426.155 524.75 432.055 521.35C437.955 517.95 444.205 516.25 450.805 516.25C455.905 516.25 460.705 517.3 465.205 519.4C469.805 521.5 473.855 524.4 477.355 528.1C480.855 531.7 483.605 535.9 485.605 540.7C487.705 545.5 488.755 550.6 488.755 556C488.655 558.4 487.705 560.35 485.905 561.85C484.105 563.35 482.005 564.1 479.605 564.1H422.305L417.805 549.1H472.855L469.555 552.1V548.05C469.355 545.15 468.305 542.55 466.405 540.25C464.605 537.95 462.305 536.15 459.505 534.85C456.805 533.45 453.905 532.75 450.805 532.75C447.805 532.75 445.005 533.15 442.405 533.95C439.805 534.75 437.555 536.1 435.655 538C433.755 539.9 432.255 542.45 431.155 545.65C430.055 548.85 429.505 552.9 429.505 557.8C429.505 563.2 430.605 567.8 432.805 571.6C435.105 575.3 438.005 578.15 441.505 580.15C445.105 582.05 448.905 583 452.905 583C456.605 583 459.555 582.7 461.755 582.1C463.955 581.5 465.705 580.8 467.005 580C468.405 579.1 469.655 578.35 470.755 577.75C472.555 576.85 474.255 576.4 475.855 576.4C478.055 576.4 479.855 577.15 481.255 578.65C482.755 580.15 483.505 581.9 483.505 583.9C483.505 586.6 482.105 589.05 479.305 591.25C476.705 593.45 473.055 595.4 468.355 597.1C463.655 598.7 458.805 599.5 453.805 599.5ZM537.049 516.25C541.249 516.25 545.099 516.9 548.599 518.2C552.099 519.5 555.099 521.15 557.599 523.15C560.199 525.15 562.199 527.2 563.599 529.3C565.099 531.3 565.849 533 565.849 534.4L561.949 536.35V525.4C561.949 522.8 562.799 520.65 564.499 518.95C566.199 517.15 568.349 516.25 570.949 516.25C573.549 516.25 575.699 517.1 577.399 518.8C579.099 520.5 579.949 522.7 579.949 525.4V592.15C579.949 600.85 578.049 607.8 574.249 613C570.549 618.3 565.649 622.1 559.549 624.4C553.449 626.8 546.899 628 539.899 628C537.899 628 535.299 627.75 532.099 627.25C528.899 626.75 525.849 626.15 522.949 625.45C520.049 624.75 517.849 624.1 516.349 623.5C513.349 622.2 511.249 620.55 510.049 618.55C508.949 616.65 508.749 614.6 509.449 612.4C510.349 609.5 511.799 607.5 513.799 606.4C515.799 605.4 517.899 605.3 520.099 606.1C521.099 606.4 522.749 607 525.049 607.9C527.349 608.8 529.849 609.6 532.549 610.3C535.349 611.1 537.799 611.5 539.899 611.5C547.399 611.5 552.949 610 556.549 607C560.149 604 561.949 599.85 561.949 594.55V581.5L563.749 582.85C563.749 584.15 563.049 585.75 561.649 587.65C560.349 589.45 558.499 591.25 556.099 593.05C553.799 594.85 551.049 596.4 547.849 597.7C544.649 598.9 541.249 599.5 537.649 599.5C530.549 599.5 524.149 597.75 518.449 594.25C512.749 590.65 508.249 585.75 504.949 579.55C501.649 573.25 499.999 566.05 499.999 557.95C499.999 549.75 501.649 542.55 504.949 536.35C508.249 530.05 512.699 525.15 518.299 521.65C523.899 518.05 530.149 516.25 537.049 516.25ZM539.899 532.75C535.399 532.75 531.449 533.85 528.049 536.05C524.649 538.25 521.999 541.25 520.099 545.05C518.199 548.85 517.249 553.15 517.249 557.95C517.249 562.65 518.199 566.9 520.099 570.7C521.999 574.5 524.649 577.5 528.049 579.7C531.449 581.9 535.399 583 539.899 583C544.499 583 548.499 581.9 551.899 579.7C555.299 577.5 557.949 574.5 559.849 570.7C561.749 566.9 562.699 562.65 562.699 557.95C562.699 553.15 561.749 548.85 559.849 545.05C557.949 541.25 555.299 538.25 551.899 536.05C548.499 533.85 544.499 532.75 539.899 532.75ZM657.781 517.75C660.381 517.75 662.531 518.65 664.231 520.45C665.931 522.15 666.781 524.3 666.781 526.9V565C666.781 575.6 663.831 584 657.931 590.2C652.031 596.4 643.531 599.5 632.431 599.5C621.331 599.5 612.831 596.4 606.931 590.2C601.131 584 598.231 575.6 598.231 565V526.9C598.231 524.3 599.081 522.15 600.781 520.45C602.481 518.65 604.631 517.75 607.231 517.75C609.831 517.75 611.981 518.65 613.681 520.45C615.381 522.15 616.231 524.3 616.231 526.9V565C616.231 571.1 617.581 575.65 620.281 578.65C622.981 581.55 627.031 583 632.431 583C637.931 583 642.031 581.55 644.731 578.65C647.431 575.65 648.781 571.1 648.781 565V526.9C648.781 524.3 649.631 522.15 651.331 520.45C653.031 518.65 655.181 517.75 657.781 517.75ZM703.219 588.85C703.219 591.45 702.369 593.65 700.669 595.45C698.969 597.15 696.819 598 694.219 598C691.619 598 689.469 597.15 687.769 595.45C686.069 593.65 685.219 591.45 685.219 588.85V526.9C685.219 524.3 686.069 522.15 687.769 520.45C689.469 518.65 691.619 517.75 694.219 517.75C696.819 517.75 698.969 518.65 700.669 520.45C702.369 522.15 703.219 524.3 703.219 526.9V588.85ZM694.069 508C690.669 508 688.269 507.45 686.869 506.35C685.469 505.25 684.769 503.3 684.769 500.5V497.65C684.769 494.75 685.519 492.8 687.019 491.8C688.619 490.7 691.019 490.15 694.219 490.15C697.719 490.15 700.169 490.7 701.569 491.8C702.969 492.9 703.669 494.85 703.669 497.65V500.5C703.669 503.4 702.919 505.4 701.419 506.5C699.919 507.5 697.469 508 694.069 508ZM781.268 517.75C783.868 517.75 786.018 518.65 787.718 520.45C789.418 522.15 790.268 524.3 790.268 526.9V565C790.268 575.6 787.318 584 781.418 590.2C775.518 596.4 767.018 599.5 755.918 599.5C744.818 599.5 736.318 596.4 730.418 590.2C724.618 584 721.718 575.6 721.718 565V526.9C721.718 524.3 722.568 522.15 724.268 520.45C725.968 518.65 728.118 517.75 730.718 517.75C733.318 517.75 735.468 518.65 737.168 520.45C738.868 522.15 739.718 524.3 739.718 526.9V565C739.718 571.1 741.068 575.65 743.768 578.65C746.468 581.55 750.518 583 755.918 583C761.418 583 765.518 581.55 768.218 578.65C770.918 575.65 772.268 571.1 772.268 565V526.9C772.268 524.3 773.118 522.15 774.818 520.45C776.518 518.65 778.668 517.75 781.268 517.75ZM820.105 564.85C816.705 564.85 814.855 562.95 814.555 559.15L810.205 503.95C810.005 500.85 810.805 498.25 812.605 496.15C814.505 494.05 816.955 493 819.955 493C822.955 493 825.405 494.05 827.305 496.15C829.205 498.25 830.005 500.85 829.705 503.95L825.505 559.15C825.205 562.95 823.405 564.85 820.105 564.85ZM819.055 598C816.155 598 813.905 597.25 812.305 595.75C810.805 594.15 810.055 591.9 810.055 589V586.45C810.055 583.55 810.805 581.35 812.305 579.85C813.905 578.25 816.155 577.45 819.055 577.45H821.005C823.905 577.45 826.105 578.25 827.605 579.85C829.205 581.35 830.005 583.55 830.005 586.45V589C830.005 591.9 829.205 594.15 827.605 595.75C826.105 597.25 823.905 598 821.005 598H819.055Z" fill="white"/>
</g>
<path d="M236 662.781C236 672.295 226.199 680 217.233 680C208.266 680 201 672.287 201 662.781C201 653.276 208.266 643 217.233 643C226.199 643 236 653.268 236 662.781Z" fill="#29DEF6"/>
<path d="M259.557 5.25942L263.278 23.7746C263.702 25.8943 265.126 27.6687 267.077 28.5118L284.133 35.8825C289.05 38.0103 289.443 44.9715 284.801 47.6613L268.69 56.9911C266.849 58.059 265.638 59.986 265.449 62.1458L263.852 80.9822C263.388 86.4099 257.031 88.9471 253.082 85.2697L239.41 72.5195C237.844 71.0582 235.673 70.4801 233.612 70.9698L215.565 75.2333C210.365 76.4618 206.038 71.0662 208.241 66.1042L215.895 48.8897C216.769 46.9146 216.643 44.6343 215.549 42.7795L205.999 26.5848C203.246 21.9118 206.935 16.0506 212.237 16.6608L230.646 18.7725C232.754 19.0133 234.839 18.1863 236.231 16.5484L248.37 2.27261C251.871 -1.84634 258.479 -0.0799417 259.549 5.26746L259.557 5.25942Z" fill="#FFD77C"/>
<path d="M89.1755 359.098L33.3067 385.695C32.0328 386.301 31.4822 387.846 32.0771 389.145L58.1648 446.104C58.7596 447.402 60.2747 447.964 61.5486 447.357L117.417 420.76C118.691 420.154 119.242 418.609 118.647 417.311L92.5593 360.352C91.9644 359.053 90.4495 358.492 89.1755 359.098Z" fill="#FE97DC"/>
<path d="M888.175 88.0981L832.306 114.695C831.032 115.301 830.482 116.846 831.077 118.145L857.165 175.104C857.759 176.402 859.274 176.964 860.548 176.357L916.417 149.761C917.691 149.154 918.242 147.609 917.647 146.311L891.559 89.3516C890.964 88.0528 889.449 87.4916 888.175 88.0981Z" fill="#29DEF6"/>
<path d="M669.799 72L629 65.0936L630.766 54.1031L663.246 59.6024L678.173 24.7225L714.809 30.9253L728.056 0L738 4.48028L721.369 43.3229L684.726 37.1201L669.799 72Z" fill="#FE97DC"/>
<path d="M875.873 715L874 677.215L905.612 667.139L903.92 633.222L939.12 622L942 631.486L913.977 640.416L915.669 674.341L884.057 684.409L885.544 714.491L875.873 715Z" fill="#FFD77C"/>
<defs>
<filter id="filter0_d_12_101" x="75.0029" y="183.55" width="759.152" height="452.45" filterUnits="userSpaceOnUse" color-interpolation-filters="sRGB">
<feFlood flood-opacity="0" result="BackgroundImageFix"/>
<feColorMatrix in="SourceAlpha" type="matrix" values="0 0 0 0 0 0 0 0 0 0 0 0 0 0 0 0 0 0 127 0" result="hardAlpha"/>
<feOffset dy="4"/>
<feGaussianBlur stdDeviation="2"/>
<feComposite in2="hardAlpha" operator="out"/>
<feColorMatrix type="matrix" values="0 0 0 0 0 0 0 0 0 0 0 0 0 0 0 0 0 0 0.25 0"/>
<feBlend mode="normal" in2="BackgroundImageFix" result="effect1_dropShadow_12_101"/>
<feBlend mode="normal" in="SourceGraphic" in2="effect1_dropShadow_12_101" result="shape"/>
</filter>
</defs>
</svg>
