<svg width="203" height="292" viewBox="0 0 203 292" fill="none" xmlns="http://www.w3.org/2000/svg">
<rect x="1" width="201.087" height="290.858" rx="30" transform="rotate(0.194113 1 0)" fill="white"/>
<mask id="mask0_6_9040" style="mask-type:luminance" maskUnits="userSpaceOnUse" x="27" y="111" width="151" height="70">
<path d="M177.99 111H27V180.409H177.99V111Z" fill="white"/>
</mask>
<g mask="url(#mask0_6_9040)">
<mask id="mask1_6_9040" style="mask-type:luminance" maskUnits="userSpaceOnUse" x="27" y="111" width="151" height="70">
<path d="M177.99 111H27V180.409H177.99V111Z" fill="white"/>
</mask>
<g mask="url(#mask1_6_9040)">
<path fill-rule="evenodd" clip-rule="evenodd" d="M80.9733 173.54L89.3288 150.024L68.3556 177.881C67.174 179.271 65.4439 180.241 63.2495 180.241C60.0423 180.241 57.426 178.176 57.426 175.605L58.5231 149.814L48.5218 173.161C47.6778 174.931 46.4541 177.375 43.5001 179.061C41.4323 180.241 38.9425 180.831 35.9042 179.609C32.5282 178.26 29.4476 175.942 27.2533 173.835C27.0845 173.666 26.9157 173.54 26.9579 173.203C27.0001 172.992 27.1689 172.655 27.1689 172.655L28.899 169.579C28.899 169.579 29.1522 169.157 29.4054 168.989C29.8696 168.694 30.165 169.073 30.165 169.073L32.4016 171.264C33.0768 171.939 34.0052 172.065 34.6804 171.433C35.2712 170.885 35.862 169.452 36.1152 168.862L59.0295 115.762C59.3671 115.046 60.0001 113.739 61.3083 112.559C62.6587 111.337 64.3045 111.084 65.9503 111H71.4362C73.1664 111 74.77 111.548 74.6434 114.287L72.449 153.269L95.1102 121.62C95.1102 121.62 98.1063 117.406 100.849 113.655C102.833 110.916 105.449 111 107.179 111H112.201C113.72 111.126 114.48 111.084 115.239 112.686C115.746 113.781 115.324 115.256 115.113 115.973L96.7138 168.904C96.545 169.494 96.5028 169.874 96.8404 170.253C97.3046 170.801 98.0219 170.379 98.6127 170L100.048 169.115C100.048 169.115 100.723 168.651 100.934 168.946C101.06 169.115 100.976 169.536 100.976 169.536L100.596 173.835C100.596 173.835 100.512 174.214 100.385 174.383C100.174 174.72 99.9209 174.846 99.5833 175.015C95.7432 177.122 93.2956 178.091 88.7802 179.693C86.2905 180.578 83.1255 180.536 81.9439 179.356C80.5091 177.796 80.3825 175.268 80.9733 173.54Z" fill="#17468C"/>
</g>
<mask id="mask2_6_9040" style="mask-type:luminance" maskUnits="userSpaceOnUse" x="27" y="111" width="151" height="70">
<path d="M177.99 111H27V180.409H177.99V111Z" fill="white"/>
</mask>
<g mask="url(#mask2_6_9040)">
<path fill-rule="evenodd" clip-rule="evenodd" d="M147.522 168.989C147.649 169.157 147.564 169.579 147.564 169.579L147.184 173.877C147.184 173.877 147.1 174.256 146.973 174.425C146.762 174.762 146.509 174.889 146.172 175.057C142.331 177.164 139.884 178.134 135.369 179.735C132.879 180.62 129.714 180.578 128.532 179.398C126.844 177.712 126.844 175.015 127.604 173.287L145.37 121.409L141.867 121.283C141.867 121.283 141.192 121.283 140.812 120.988C140.432 120.651 140.77 119.934 140.77 119.934L141.909 117.026C142.205 116.563 142.5 116.184 143.049 115.804C143.808 115.256 144.399 115.172 145.285 114.961L161.574 111C162.123 110.874 162.376 110.831 162.714 111.084C163.178 111.464 163.136 111.885 162.925 112.601L143.302 168.904C143.133 169.452 143.133 169.831 143.471 170.211C143.935 170.759 144.652 170.337 145.243 169.958L146.678 169.073C146.636 169.157 147.311 168.736 147.522 168.989Z" fill="#17468C"/>
</g>
<mask id="mask3_6_9040" style="mask-type:luminance" maskUnits="userSpaceOnUse" x="27" y="111" width="151" height="70">
<path d="M177.99 111H27V180.409H177.99V111Z" fill="white"/>
</mask>
<g mask="url(#mask3_6_9040)">
<path fill-rule="evenodd" clip-rule="evenodd" d="M159.549 133.715C158.241 130.175 161.195 125.75 166.216 123.769C171.238 121.789 176.344 123.053 177.695 126.593C179.003 130.133 176.049 134.558 171.027 136.539C166.006 138.519 160.857 137.255 159.549 133.715Z" fill="#17468C"/>
</g>
<mask id="mask4_6_9040" style="mask-type:luminance" maskUnits="userSpaceOnUse" x="27" y="111" width="151" height="70">
<path d="M177.99 111H27V180.409H177.99V111Z" fill="white"/>
</mask>
<g mask="url(#mask4_6_9040)">
<path fill-rule="evenodd" clip-rule="evenodd" d="M113.636 133.799C112.328 130.259 115.282 125.834 120.303 123.854C125.325 121.873 130.431 123.137 131.782 126.677C133.09 130.217 130.136 134.642 125.114 136.623C120.092 138.604 114.944 137.339 113.636 133.799Z" fill="#17468C"/>
</g>
<mask id="mask5_6_9040" style="mask-type:luminance" maskUnits="userSpaceOnUse" x="27" y="111" width="151" height="70">
<path d="M177.99 111H27V180.409H177.99V111Z" fill="white"/>
</mask>
<g mask="url(#mask5_6_9040)">
<path fill-rule="evenodd" clip-rule="evenodd" d="M170.183 168.862C170.31 169.031 170.225 169.452 170.225 169.452L169.846 173.751C169.846 173.751 169.761 174.13 169.635 174.299C169.424 174.636 169.17 174.762 168.833 174.931C164.993 177.038 162.545 178.007 158.03 179.609C155.54 180.494 152.375 180.451 151.193 179.271C149.505 177.586 149.505 174.889 150.265 173.161L158.705 148.296L155.202 148.17C155.202 148.17 154.527 148.17 154.147 147.875C153.768 147.538 154.105 146.821 154.105 146.821L155.245 143.914C155.54 143.45 155.835 143.071 156.384 142.691C157.144 142.144 157.734 142.059 158.621 141.849L174.91 137.887C175.458 137.761 175.711 137.719 176.049 137.971C176.513 138.351 176.471 138.772 176.26 139.489L165.921 168.862C165.752 169.41 165.752 169.789 166.09 170.169C166.554 170.716 167.272 170.295 167.862 169.916L169.297 169.031C169.255 169.031 169.93 168.567 170.183 168.862Z" fill="#17468C"/>
</g>
<mask id="mask6_6_9040" style="mask-type:luminance" maskUnits="userSpaceOnUse" x="27" y="111" width="151" height="70">
<path d="M177.99 111H27V180.409H177.99V111Z" fill="white"/>
</mask>
<g mask="url(#mask6_6_9040)">
<path fill-rule="evenodd" clip-rule="evenodd" d="M124.439 168.904C124.566 169.073 124.481 169.494 124.481 169.494L124.101 173.793C124.101 173.793 124.017 174.172 123.89 174.341C123.679 174.678 123.426 174.804 123.089 174.973C119.248 177.08 116.801 178.049 112.285 179.651C109.796 180.536 106.631 180.494 105.449 179.314C103.761 177.628 103.761 174.931 104.521 173.203L112.961 148.339L109.458 148.212C109.458 148.212 108.783 148.212 108.403 147.917C108.023 147.58 108.361 146.864 108.361 146.864L109.5 143.956C109.796 143.492 110.091 143.113 110.64 142.734C111.399 142.186 111.99 142.101 112.876 141.891L129.165 137.929C129.714 137.803 129.967 137.761 130.305 138.014C130.769 138.393 130.727 138.814 130.516 139.531L120.219 168.946C120.05 169.494 120.05 169.874 120.388 170.253C120.852 170.801 121.569 170.379 122.16 170L123.595 169.115C123.553 169.073 124.186 168.609 124.439 168.904Z" fill="#17468C"/>
</g>
</g>
</svg>
