<svg width="198" height="181" viewBox="0 0 198 181" fill="none" xmlns="http://www.w3.org/2000/svg">
<g clip-path="url(#clip0_1_295)">
<path d="M198 92.2338C198 97.8963 184.584 101.474 183.283 106.315C181.853 111.634 191.394 121.589 188.604 125.962C185.744 130.437 172.506 126.134 168.459 129.664C164.541 133.086 167.466 146.587 162.657 149.171C158.092 151.626 148.017 141.95 142.841 143.702C137.903 145.367 136.079 159.142 130.748 160.201C125.594 161.227 118.433 149.246 113.068 149.74C107.791 150.224 103.042 163.317 97.6936 163.317C92.3456 163.317 87.7207 150.213 82.5292 149.703C77.1974 149.176 69.966 161.087 64.8986 160.002C59.6262 158.874 58.1259 145.088 53.2852 143.32C48.2017 141.467 37.905 150.863 33.4636 148.274C28.8064 145.561 32.2818 132.21 28.5312 128.654C24.6942 125.016 11.3377 128.858 8.65563 124.307C6.05988 119.902 15.914 110.248 14.5865 104.945C13.383 100.126 -0.00585938 96.478 -0.00585938 90.8906C-0.00585938 85.3033 13.464 80.8603 14.8023 75.3535C16.1623 69.7555 6.08686 59.9776 8.64484 54.8416C11.1974 49.7216 25.1961 51.6987 28.7686 47.159C32.3034 42.6676 26.9176 29.6771 31.2726 25.868C35.5845 22.0965 47.8833 29.0324 52.8265 26.0399C57.7428 23.069 57.2139 9.00391 62.5889 6.91403C67.9531 4.82952 77.1003 15.5314 82.7613 14.4354C88.4115 13.3395 92.9284 -0.000305176 98.7081 -0.000305176C104.488 -0.000305176 109.053 13.361 114.757 14.5053C120.445 15.6496 129.733 5.04442 135.14 7.20951C140.532 9.36923 139.911 23.4558 144.849 26.5073C149.797 29.5696 162.204 22.7788 166.532 26.6201C170.893 30.4937 165.474 43.495 169.02 48.0401C172.609 52.6389 186.64 50.7317 189.219 55.8892C191.815 61.0843 181.767 70.9267 183.154 76.557C184.524 82.1282 198.005 86.3563 198.005 92.2284L198 92.2338Z" fill="#F39F51"/>
<path d="M65.104 36.6398C71.2885 43.8012 70.4736 54.5945 63.28 60.7513C56.0864 66.9081 45.2447 66.0969 39.0602 58.9354C32.8757 51.7739 30.6146 37.177 37.2092 29.8812C42.9889 23.488 58.9196 29.4783 65.104 36.6398Z" fill="#FFD36D"/>
<path d="M59.5672 39.8793C63.4743 44.4029 62.9617 51.2259 58.4178 55.1209C53.8738 59.0106 47.0202 58.5002 43.1077 53.9766C39.1952 49.453 37.7705 40.2232 41.9366 35.6136C45.5901 31.5735 55.6601 35.3611 59.5672 39.8847V39.8793Z" fill="#F39F51"/>
<path d="M131.978 36.6398C125.794 43.8012 126.609 54.5945 133.802 60.7513C140.996 66.9081 151.838 66.0969 158.022 58.9354C164.207 51.7739 166.468 37.177 159.873 29.8812C154.093 23.488 138.163 29.4783 131.978 36.6398Z" fill="#FFD36D"/>
<path d="M137.515 39.8793C133.608 44.4029 134.121 51.2259 138.665 55.1209C143.209 59.0106 150.062 58.5002 153.975 53.9766C157.882 49.453 159.312 40.2232 155.146 35.6136C151.492 31.5735 141.422 35.3611 137.515 39.8847V39.8793Z" fill="#F39F51"/>
<path d="M118.681 212.426H116.695C123.516 204.099 127.92 191.087 127.92 176.441C127.92 151.293 114.968 130.905 98.9944 130.905C83.0206 130.905 70.0688 151.293 70.0688 176.441C70.0688 191.087 74.4724 204.099 81.2937 212.426H79.2754C76.3774 212.426 74.0299 214.763 74.0299 217.648C74.0299 220.055 75.9889 222 78.4011 222H88.7086C95.1197 222 93.9648 213.871 93.6303 209.622C93.3496 206.049 93.5007 202.449 94.1645 198.92C94.634 196.416 95.4273 192.134 97.9745 190.786C98.2875 190.619 98.6275 190.512 98.989 190.512C101.617 190.512 102.794 194.778 103.306 196.685C104.548 201.284 104.666 206.108 104.359 210.83C104.261 212.313 104.148 213.796 104.1 215.284C103.997 218.577 105.389 222 109.237 222H119.545C121.962 222 123.916 220.05 123.916 217.648C123.916 214.763 121.568 212.426 118.67 212.426H118.681Z" fill="#FFD36D"/>
<path d="M133.387 138.249C141.897 141.8 148.411 145.953 145.804 151.793C142.453 159.293 135.907 156.026 127.397 152.47C118.886 148.918 113.328 142.853 114.979 138.926C116.636 134.998 124.876 134.692 133.387 138.249Z" fill="#FFD36D"/>
<path d="M65.0069 138.249C56.4965 141.8 49.9829 145.953 52.5894 151.793C55.9407 159.293 62.4867 156.026 70.9971 152.47C79.5075 148.918 85.0659 142.853 83.4146 138.926C81.7578 134.998 73.5173 134.692 65.0069 138.249Z" fill="#FFD36D"/>
<path d="M127.057 191.516C122.124 189.55 119.064 185.838 117.834 184.086C117.111 183.055 117.364 181.637 118.395 180.917C119.431 180.197 120.856 180.449 121.579 181.475C122.766 183.168 126.118 187.192 131.584 188.073C138.114 189.126 144.919 185.365 148.53 178.709C149.129 177.602 150.516 177.188 151.627 177.785C152.739 178.381 153.154 179.762 152.555 180.868C151.449 182.91 150.068 184.769 148.459 186.386C146.884 187.971 145.119 189.292 143.209 190.329C141.293 191.366 139.269 192.086 137.197 192.473C135.065 192.87 132.933 192.897 130.85 192.564C129.48 192.344 128.217 191.978 127.057 191.511V191.516Z" fill="#FFD36D"/>
<path d="M160.375 177.446C158.222 182.797 153.046 185.763 148.816 184.076C144.585 182.389 142.901 176.683 145.054 171.338C147.207 165.987 155.691 158.664 159.922 160.351C164.153 162.038 162.528 172.1 160.375 177.446Z" fill="#F39F51"/>
<path d="M169.938 99.825C169.938 135.353 138.179 139.253 98.9999 139.253C59.8208 139.253 28.062 135.353 28.062 99.825C28.062 64.2971 59.8208 24.0629 98.9999 24.0629C138.179 24.0629 169.938 64.2917 169.938 99.8197V99.825Z" fill="#FFD36D"/>

<path d="M71.9631 96.9777C71.9631 104.359 65.9459 110.339 58.5202 110.339C51.0946 110.339 45.0774 104.354 45.0774 96.9777C45.0774 89.6013 51.0946 83.6164 58.5202 83.6164C66.3399 83.6164 71.9631 89.6013 71.9631 96.9777Z" fill="white"/>
<path d="M59.0222 110.382C64.6731 110.382 69.2541 105.528 69.2541 99.5403C69.2541 93.5526 64.6731 88.6987 59.0222 88.6987C53.3713 88.6987 48.7903 93.5526 48.7903 99.5403C48.7903 105.528 53.3713 110.382 59.0222 110.382Z" fill="#84322C"/>
<path d="M61.7528 94.4096C60.1554 93.4909 57.9914 93.2653 56.0001 94.4096C55.6547 94.6084 55.2769 94.6943 54.91 94.6782C54.543 94.6567 54.1868 94.5385 53.9494 94.2484C53.7119 93.9583 53.6526 93.5392 53.7983 93.0987C53.9386 92.6635 54.2893 92.2069 54.7858 91.9222C57.3384 90.4555 60.4145 90.4555 62.967 91.9222C63.4635 92.2069 63.8143 92.6635 63.9546 93.0987C64.1003 93.5392 64.0409 93.9637 63.8035 94.2484C63.566 94.5385 63.2099 94.6621 62.8429 94.6782C62.4759 94.6943 62.0982 94.6084 61.7528 94.4096Z" fill="white"/>
<path d="M67.2141 99.8357C67.2141 101.012 66.0808 101.963 64.8935 101.963C63.7063 101.963 62.7511 101.012 62.7511 99.8357C62.7511 98.6592 63.7117 97.7083 64.8935 97.7083C66.0754 97.7083 67.2141 98.6592 67.2141 99.8357Z" fill="white"/>
<path d="M152.928 96.9777C152.928 104.359 146.911 110.339 139.485 110.339C132.059 110.339 126.042 104.354 126.042 96.9777C126.042 89.6013 132.059 83.6164 139.485 83.6164C147.305 83.6164 152.928 89.6013 152.928 96.9777Z" fill="white"/>
<path d="M139.992 110.382C145.643 110.382 150.224 105.528 150.224 99.5403C150.224 93.5526 145.643 88.6987 139.992 88.6987C134.341 88.6987 129.76 93.5526 129.76 99.5403C129.76 105.528 134.341 110.382 139.992 110.382Z" fill="#84322C"/>
<path d="M142.718 94.4096C141.12 93.4909 138.956 93.2653 136.965 94.4096C136.619 94.6084 136.242 94.6943 135.875 94.6782C135.508 94.6567 135.152 94.5385 134.914 94.2484C134.677 93.9583 134.617 93.5392 134.763 93.0987C134.903 92.6635 135.254 92.2069 135.751 91.9222C138.303 90.4555 141.379 90.4555 143.932 91.9222C144.428 92.2069 144.779 92.6635 144.919 93.0987C145.065 93.5392 145.006 93.9637 144.768 94.2484C144.531 94.5385 144.175 94.6621 143.808 94.6782C143.441 94.6943 143.063 94.6084 142.718 94.4096Z" fill="white"/>
<path d="M148.179 99.8357C148.179 101.012 147.046 101.963 145.858 101.963C144.671 101.963 143.716 101.012 143.716 99.8357C143.716 98.6592 144.676 97.7083 145.858 97.7083C147.04 97.7083 148.179 98.6592 148.179 99.8357Z" fill="white"/>

<path d="M98.9782 119.155C98.9782 124.501 93.722 128.836 87.2407 128.836C80.7594 128.836 75.5032 124.501 75.5032 119.155C75.5032 113.809 80.7594 109.474 87.2407 109.474C93.722 109.474 98.9782 113.809 98.9782 119.155Z" fill="#F39F51"/>
<path d="M122.086 119.155C122.086 124.501 116.728 128.836 110.111 128.836C103.495 128.836 98.1365 124.501 98.1365 119.155C98.1365 113.809 103.501 109.474 110.111 109.474C116.722 109.474 122.086 113.809 122.086 119.155Z" fill="#F39F51"/>
<path d="M108.94 112.284C108.94 115.749 104.083 120.095 98.0878 120.095C92.0923 120.095 87.2354 115.744 87.2354 112.284C87.2354 108.824 92.0923 106.014 98.0878 106.014C104.083 106.014 108.94 108.824 108.94 112.284Z" fill="#84322C"/>
<path d="M98.9999 183.2C107.557 183.2 114.493 174.298 114.493 163.316C114.493 152.335 107.557 143.433 98.9999 143.433C90.443 143.433 83.5063 152.335 83.5063 163.316C83.5063 174.298 90.443 183.2 98.9999 183.2Z" fill="#F39F51"/>
</g>
<defs>
<clipPath id="clip0_1_295">
<rect width="198" height="222" fill="white" transform="translate(-0.00012207 -0.000305176)"/>
</clipPath>
</defs>
</svg>
