<svg width="135" height="188" viewBox="0 0 135 188" fill="none" xmlns="http://www.w3.org/2000/svg">
<g clip-path="url(#clip0_261_5563)">
<path d="M62.3239 165.522C64.1818 165.445 65.891 170.287 66.1373 176.336C66.3888 182.385 65.0851 187.35 63.2323 187.428C61.3744 187.505 59.6652 182.663 59.4189 176.614C59.1674 170.566 60.471 165.6 62.3239 165.522Z" fill="#F4BD3E"/>
<path d="M63.0014 166.203C63.5711 167.889 59.0648 170.947 52.9366 173.025C46.8084 175.108 41.3782 175.428 40.8085 173.737C40.2388 172.051 44.7451 168.993 50.8733 166.915C57.0015 164.831 62.4317 164.512 63.0014 166.203Z" fill="#F4BD3E"/>
<path d="M63.0014 165.997C64.6592 167.27 62.832 172.453 58.921 177.573C55.0101 182.694 50.4986 185.813 48.8408 184.54C47.183 183.266 49.0102 178.084 52.9211 172.963C56.8321 167.843 61.3436 164.723 63.0014 165.997Z" fill="#F4BD3E"/>
<path d="M74.0619 166.337C72.2706 165.847 69.5299 170.184 67.9439 176.026C66.358 181.869 66.5274 187 68.3186 187.489C70.1099 187.979 72.8506 183.643 74.4365 177.8C76.0225 171.958 75.8531 166.827 74.0619 166.337Z" fill="#F4BD3E"/>
<path d="M73.251 166.853C72.322 168.369 76.0379 172.355 81.5553 175.748C87.0676 179.141 92.2925 180.667 93.2215 179.146C94.1505 177.63 90.4346 173.644 84.9171 170.251C79.4048 166.858 74.18 165.332 73.251 166.853Z" fill="#F4BD3E"/>
<path d="M73.292 166.646C71.393 167.518 72.0243 172.979 74.7034 178.842C77.3826 184.705 81.0883 188.753 82.9873 187.881C84.8863 187.01 84.255 181.549 81.5758 175.686C78.8967 169.823 75.191 165.775 73.292 166.646Z" fill="#F4BD3E"/>
<path d="M43.8367 131.695C38.4937 146.061 27.6488 155.261 26.5094 154.833C25.5598 154.477 23.1886 140.312 28.5316 125.945C33.8745 111.579 47.4294 104.855 51.6534 106.443C55.8775 108.031 49.1796 117.329 43.8367 131.695Z" fill="#A44A43"/>
<path d="M89.8802 131.695C95.2232 146.061 106.068 155.261 107.208 154.833C108.157 154.477 110.528 140.312 105.185 125.945C99.8424 111.579 86.2875 104.855 82.0635 106.443C77.8394 108.031 84.5373 117.329 89.8802 131.695Z" fill="#A44A43"/>
<path d="M67.4974 173C83.3173 173 96.1419 157.125 96.1419 137.543C96.1419 117.96 83.3173 102.086 67.4974 102.086C51.6775 102.086 38.853 117.96 38.853 137.543C38.853 157.125 51.6775 173 67.4974 173Z" fill="#A44A43"/>
<path d="M135 72.7496C135 106.866 104.78 110.609 67.5026 110.609C30.2253 110.609 0 106.871 0 72.7496C0 38.6282 30.2201 0 67.4974 0C104.775 0 134.995 38.6334 134.995 72.7496H135Z" fill="#A44A43"/>
<path d="M79.1225 85.4606C77.9267 94.4022 69.34 107.35 67.5898 106.613C64.9312 105.494 57.33 94.4228 56.0571 85.4606C54.543 74.7967 61.2204 65.9583 67.5898 65.9583C73.9592 65.9583 80.5494 74.7864 79.1225 85.4606Z" fill="#F8DEA2"/>
<path d="M67.8413 124.409C55.703 124.409 45.1146 132.603 39.4535 144.767C42.1481 160.887 53.6808 173 67.4974 173C81.3141 173 93.3549 160.335 95.7056 143.674C89.9264 132.113 79.6153 124.409 67.8413 124.409Z" fill="#EAD3AC"/>
<path d="M19.9756 15.7998C17.7841 13.9073 15.8389 11.8808 14.1554 9.77173C13.1802 8.54961 11.2453 8.79713 10.5986 10.2307C7.206 17.7593 10.2342 30.8571 14.8124 37.1482C20.3554 44.7697 31.0567 46.4095 38.7195 40.8043C42.6151 37.9526 67.7335 43.2588 65.4855 39.4068C58.7157 27.8044 44.4884 25.716 42.5535 25.6386C35.4142 25.3602 27.1509 21.9826 19.9808 15.7947L19.9756 15.7998Z" fill="#A44A43"/>
<path d="M10.9528 9.67899C13.1187 6.51798 10.7218 23.6019 21.6694 31.4709C28.7163 36.5398 33.6948 33.121 41.3987 37.994C50.3139 43.6353 56.1084 56.0886 52.5773 67.6497C52.1102 69.1812 47.3781 83.759 32.848 86.0382C23.2348 87.5439 14.1092 82.1914 9.17178 76.55C-4.31129 61.1266 12.01 33.714 12.01 33.714C12.01 33.714 6.26165 16.5321 10.9528 9.67899Z" fill="#EAD3AC"/>
<path d="M32.9455 78.9427C42.2373 78.9427 49.7698 71.3864 49.7698 62.0651C49.7698 52.7439 42.2373 45.1875 32.9455 45.1875C23.6537 45.1875 16.1212 52.7439 16.1212 62.0651C16.1212 71.3864 23.6537 78.9427 32.9455 78.9427Z" fill="white"/>
<path d="M33.6435 75.5857C40.6988 75.5857 46.4183 69.8486 46.4183 62.7715C46.4183 55.6944 40.6988 49.9573 33.6435 49.9573C26.5882 49.9573 20.8687 55.6944 20.8687 62.7715C20.8687 69.8486 26.5882 75.5857 33.6435 75.5857Z" fill="#A44A43"/>
<path d="M29.2501 57.4964C28.6085 59.5023 26.4734 60.6059 24.4717 59.9613C22.4752 59.3167 21.3717 57.1716 22.0133 55.1708C22.6548 53.1649 24.79 52.0613 26.7916 52.7059C28.7882 53.3505 29.8917 55.4957 29.2501 57.4964Z" fill="white"/>
<path d="M25.5393 65.2518C25.2211 66.2521 24.1535 66.8039 23.1527 66.4842C22.157 66.1645 21.6078 65.0919 21.926 64.0915C22.2443 63.0911 23.3118 62.5394 24.3126 62.8591C25.3084 63.1788 25.8575 64.2514 25.5393 65.2518Z" fill="white"/>
<path d="M114.891 15.7998C117.082 13.9073 119.028 11.8808 120.711 9.77173C121.686 8.54961 123.621 8.79713 124.268 10.2307C127.661 17.7593 124.632 30.8571 120.054 37.1482C114.511 44.7697 103.81 46.4095 96.147 40.8043C92.2515 37.9526 73.8823 42.5214 73.2356 38.1073C72.9533 36.1891 81.2371 26.0048 92.3131 25.6438C99.4575 25.4066 107.716 21.9878 114.886 15.7998H114.891Z" fill="#A44A43"/>
<path d="M123.914 9.67899C121.748 6.51798 124.145 23.6019 113.197 31.4709C106.15 36.5398 101.172 33.121 93.4678 37.994C84.5527 43.6353 78.7581 56.0886 82.2893 67.6497C82.7563 69.1812 87.4885 83.759 102.019 86.0382C111.632 87.5439 120.762 82.1914 125.695 76.55C139.178 61.1266 122.857 33.714 122.857 33.714C122.857 33.714 128.605 16.5321 123.914 9.67899Z" fill="#EAD3AC"/>
<path d="M101.926 78.9427C111.218 78.9427 118.75 71.3864 118.75 62.0651C118.75 52.7439 111.218 45.1875 101.926 45.1875C92.6344 45.1875 85.1019 52.7439 85.1019 62.0651C85.1019 71.3864 92.6344 78.9427 101.926 78.9427Z" fill="white"/>
<path d="M101.223 75.5857C108.278 75.5857 113.998 69.8486 113.998 62.7715C113.998 55.6944 108.278 49.9573 101.223 49.9573C94.1678 49.9573 88.4483 55.6944 88.4483 62.7715C88.4483 69.8486 94.1678 75.5857 101.223 75.5857Z" fill="#A44A43"/>
<path d="M105.622 57.4964C106.263 59.5023 108.398 60.6059 110.4 59.9613C112.397 59.3167 113.5 57.1716 112.858 55.1708C112.217 53.1649 110.082 52.0613 108.08 52.7059C106.084 53.3505 104.98 55.4957 105.622 57.4964Z" fill="white"/>
<path d="M109.327 65.2518C109.645 66.2521 110.713 66.8039 111.714 66.4842C112.71 66.1645 113.259 65.0919 112.941 64.0915C112.622 63.0911 111.555 62.5394 110.554 62.8591C109.558 63.1788 109.009 64.2514 109.327 65.2518Z" fill="white"/>
</g>
<defs>
<clipPath id="clip0_261_5563">
<rect width="135" height="188" fill="white"/>
</clipPath>
</defs>
</svg>
