<svg width="135" height="162" viewBox="0 0 135 162" fill="none" xmlns="http://www.w3.org/2000/svg">
<g clip-path="url(#clip0_1_246)">
<path d="M43.8365 131.695C38.4936 146.061 27.6486 155.26 26.5092 154.832C25.5597 154.476 23.1885 140.311 28.5314 125.945C33.8744 111.579 47.4293 104.854 51.6533 106.443C55.8774 108.031 49.1795 117.328 43.8365 131.695Z" fill="#A44A43"/>
<path d="M89.8801 131.695C95.223 146.061 106.068 155.26 107.207 154.832C108.157 154.476 110.528 140.311 105.185 125.945C99.8423 111.579 86.2874 104.854 82.0633 106.443C77.8393 108.031 84.5372 117.328 89.8801 131.695Z" fill="#A44A43"/>
<path d="M67.4973 172.999C83.3172 172.999 96.1418 157.124 96.1418 137.542C96.1418 117.96 83.3172 102.085 67.4973 102.085C51.6774 102.085 38.8528 117.96 38.8528 137.542C38.8528 157.124 51.6774 172.999 67.4973 172.999Z" fill="#A44A43"/>
<path d="M135 72.7492C135 106.865 104.78 110.609 67.5024 110.609C30.2251 110.609 -0.00012207 106.871 -0.00012207 72.7492C-0.00012207 38.6279 30.22 -0.000366211 67.4973 -0.000366211C104.775 -0.000366211 134.995 38.633 134.995 72.7492H135Z" fill="#A44A43"/>
<path d="M79.1224 85.4603C77.9265 94.4019 69.3399 107.35 67.5897 106.613C64.9311 105.494 57.3298 94.4225 56.057 85.4603C54.5429 74.7964 61.2203 65.9579 67.5897 65.9579C73.9591 65.9579 80.5492 74.7861 79.1224 85.4603Z" fill="#F8DEA2"/>
<path d="M67.8412 124.408C55.7028 124.408 45.1145 132.602 39.4534 144.767C42.1479 160.886 53.6806 172.999 67.4973 172.999C81.314 172.999 93.3548 160.334 95.7055 143.673C89.9263 132.112 79.6151 124.408 67.8412 124.408Z" fill="#EAD3AC"/>
<path d="M19.9755 15.7995C17.7839 13.907 15.8387 11.8805 14.1553 9.77143C13.1801 8.54931 11.2451 8.79683 10.5985 10.2304C7.20587 17.759 10.234 30.8568 14.8122 37.1479C20.3553 44.7694 31.0566 46.4092 38.7194 40.804C42.615 37.9523 67.7334 43.2585 65.4853 39.4065C58.7156 27.8041 44.4883 25.7157 42.5534 25.6383C35.4141 25.3599 27.1507 21.9823 19.9807 15.7944L19.9755 15.7995Z" fill="#A44A43"/>
<path d="M10.9526 9.67863C13.1185 6.51762 10.7217 23.6015 21.6693 31.4705C28.7162 36.5395 33.6947 33.1206 41.3986 37.9936C50.3137 43.635 56.1083 56.0882 52.5772 67.6493C52.1101 69.1809 47.3779 83.7586 32.8478 86.0378C23.2347 87.5436 14.1091 82.191 9.17165 76.5497C-4.31141 61.1262 12.0099 33.7136 12.0099 33.7136C12.0099 33.7136 6.26153 16.5318 10.9526 9.67863Z" fill="#EAD3AC"/>
<path d="M32.9454 78.9423C42.2372 78.9423 49.7697 71.3859 49.7697 62.0647C49.7697 52.7434 42.2372 45.1871 32.9454 45.1871C23.6535 45.1871 16.121 52.7434 16.121 62.0647C16.121 71.3859 23.6535 78.9423 32.9454 78.9423Z" fill="white"/>
<path d="M33.6434 75.5854C40.6987 75.5854 46.4181 69.8483 46.4181 62.7712C46.4181 55.6941 40.6987 49.957 33.6434 49.957C26.5881 49.957 20.8686 55.6941 20.8686 62.7712C20.8686 69.8483 26.5881 75.5854 33.6434 75.5854Z" fill="#A44A43"/>
<path d="M29.25 57.4959C28.6084 59.5019 26.4733 60.6054 24.4716 59.9608C22.4751 59.3162 21.3716 57.1711 22.0132 55.1703C22.6547 53.1644 24.7898 52.0609 26.7915 52.7054C28.788 53.35 29.8915 55.4952 29.25 57.4959Z" fill="white"/>
<path d="M25.5392 65.2515C25.221 66.2519 24.1534 66.8036 23.1526 66.4839C22.1569 66.1642 21.6077 65.0917 21.9259 64.0913C22.2441 63.0909 23.3117 62.5391 24.3125 62.8588C25.3082 63.1785 25.8574 64.2511 25.5392 65.2515Z" fill="white"/>
<path d="M114.891 15.7995C117.082 13.907 119.028 11.8805 120.711 9.77143C121.686 8.54931 123.621 8.79683 124.268 10.2304C127.66 17.759 124.632 30.8568 120.054 37.1479C114.511 44.7694 103.81 46.4092 96.1469 40.804C92.2514 37.9523 73.8822 42.5211 73.2355 38.107C72.9532 36.1888 81.237 26.0045 92.3129 25.6435C99.4574 25.4063 107.716 21.9875 114.886 15.7995H114.891Z" fill="#A44A43"/>
<path d="M123.914 9.67863C121.748 6.51762 124.145 23.6015 113.197 31.4705C106.15 36.5395 101.172 33.1206 93.4677 37.9936C84.5526 43.635 78.758 56.0882 82.2892 67.6493C82.7562 69.1809 87.4884 83.7586 102.018 86.0378C111.632 87.5436 120.762 82.191 125.695 76.5497C139.178 61.1262 122.856 33.7136 122.856 33.7136C122.856 33.7136 128.605 16.5318 123.914 9.67863Z" fill="#EAD3AC"/>
<path d="M101.926 78.9423C111.218 78.9423 118.75 71.3859 118.75 62.0647C118.75 52.7434 111.218 45.1871 101.926 45.1871C92.6342 45.1871 85.1017 52.7434 85.1017 62.0647C85.1017 71.3859 92.6342 78.9423 101.926 78.9423Z" fill="white"/>
<path d="M101.223 75.5854C108.278 75.5854 113.998 69.8483 113.998 62.7712C113.998 55.6941 108.278 49.957 101.223 49.957C94.1676 49.957 88.4482 55.6941 88.4482 62.7712C88.4482 69.8483 94.1676 75.5854 101.223 75.5854Z" fill="#A44A43"/>
<path d="M105.621 57.4959C106.263 59.5019 108.398 60.6054 110.4 59.9608C112.396 59.3162 113.5 57.1711 112.858 55.1703C112.217 53.1644 110.082 52.0609 108.08 52.7054C106.083 53.35 104.98 55.4952 105.621 57.4959Z" fill="white"/>
<path d="M109.327 65.2515C109.645 66.2519 110.713 66.8036 111.714 66.4839C112.709 66.1642 113.259 65.0917 112.94 64.0913C112.622 63.0909 111.555 62.5391 110.554 62.8588C109.558 63.1785 109.009 64.2511 109.327 65.2515Z" fill="white"/>
</g>
<defs>
<clipPath id="clip0_1_246">
<rect width="135" height="188" fill="white" transform="translate(-0.00012207 -0.000366211)"/>
</clipPath>
</defs>
</svg>
